<svg viewBox="0 0 275 300" xmlns="http://www.w3.org/2000/svg" xml:space="preserve" fill-rule="evenodd" clip-rule="evenodd" stroke-linejoin="round" stroke-miterlimit="2"><path d="M256.363 247.816 213.88 271.61c-1.882 1.087-5.2.949-7.372-.306l-14.131-8.428c-2.173-1.255-2.411-3.17-.53-4.257l42.32-24.274c1.883-1.087 5.2-.95 7.373.306l14.293 8.907c2.173 1.255 2.41 3.17.529 4.257m-17.685-20.788-42.482 23.795c-1.882 1.087-5.2.949-7.372-.306l-14.131-8.428c-2.173-1.255-2.411-3.17-.53-4.257l42.32-24.274c1.883-1.087 5.2-.95 7.373.306l14.293 8.907c2.173 1.255 2.41 3.17.529 4.257m10.167-35.108-128.19 71.507c-5.677 3.279-15.688 2.864-22.245-.922l-74.685-43.12c-6.557-3.785-7.276-9.565-1.597-12.843l128.19-71.507c5.677-3.278 15.688-2.864 22.245.922l74.685 43.12c6.557 3.785 7.276 9.565 1.597 12.843" fill="#b7cffc" fill-rule="nonzero" opacity=".15"/><path d="m.11.066.516-.36a.02.02 0 0 1 .021-.001l.41.192c.012.005.015.019.011.028a.023.023 0 0 1-.008.009l-.515.36C.538.298.53.299.523.295L.113.103a.02.02 0 0 1-.01-.028C.104.071.107.069.11.066Z" fill="url(#a)" fill-rule="nonzero" transform="scale(-70.7386 70.7386) rotate(64.908 -.601 -.216)"/><path d="m.04.556.278-.959a.035.035 0 0 1 .024-.023l.699-.172a.034.034 0 0 1 .041.025.033.033 0 0 1-.001.017L.803.403a.033.033 0 0 1-.024.023L.081.598A.035.035 0 0 1 .039.573.033.033 0 0 1 .04.556Z" fill="url(#b)" fill-rule="nonzero" transform="scale(95.3069 -95.3069) rotate(-76.166 .112 -.546)"/><path d="m.304.304.389-.645a.03.03 0 0 1 .023-.012l.542.011c.016 0 .025.013.025.026a.02.02 0 0 1-.004.012L.89.341a.026.026 0 0 1-.022.012L.326.342A.024.024 0 0 1 .301.316L.304.304Z" fill="url(#c)" fill-rule="nonzero" transform="scale(-52.37897 52.37897) rotate(88.888 -.923 -1.254)"/><path d="m.296.189.353-.457a.018.018 0 0 1 .018-.008l.413.056a.02.02 0 0 1 .017.022c-.001.003-.002.007-.004.009L.739.268a.018.018 0 0 1-.018.008L.309.22A.02.02 0 0 1 .292.198c0-.003.002-.007.004-.009Z" fill="url(#d)" fill-rule="nonzero" transform="scale(-68.23839 68.23839) rotate(82.293 -1.052 .342)"/><path d="M110.418 55.247c0 1.367-.979 3.04-2.188 3.738-1.209.699-2.19.156-2.19-1.21 0-1.367.98-3.041 2.19-3.738 1.209-.699 2.188-.157 2.188 1.21m7.692-4.443c0 1.368-.979 3.043-2.188 3.74-1.209.697-2.19.155-2.19-1.212 0-1.365.981-3.04 2.19-3.738s2.189-.155 2.188 1.21m7.694-4.44c0 1.367-.98 3.04-2.189 3.738s-2.19.156-2.19-1.211c0-1.366.982-3.04 2.19-3.738 1.21-.698 2.188-.156 2.189 1.21m-73.89 34.184a3.564 3.564 0 0 0-.839.359c-1.784 1.03-3.191 3.872-3.191 6.276 0 1.187.46 1.671 1.352 1.156 1.001-.578 2.056-2.655 2.299-4.606l.379-3.185Zm2.406 11.507c-1.622 1.78-3.028 2.872-4.948 3.981-4.489 2.592-8.437 1.156-8.437-4.965 0-6.37 4.001-14.208 10.113-17.736 4.76-2.748 8.167-.937 8.167 4.309 0 4.559-2.217 8.712-5.138 10.398-1.271.734-2.19.515-2.326-1.062l-.054.031c-.838 2.077-2.055 3.592-3.488 4.419-1.758 1.015-3.029.25-3.029-2.311 0-3.809 2.434-8.68 6.328-10.929 1.19-.687 2.542-1.124 3.219-1.077l-.812 6.245c-.271 1.999-.081 2.732.676 2.326 1.163-.639 2.623-3.2 2.623-6.791 0-4.06-2.272-5.902-6.463-3.482-4.138 2.389-7.762 8.228-7.762 14.192 0 5.215 2.894 6.511 6.923 4.185 1.38-.797 2.84-1.983 3.922-3.263l.486 1.53Zm11.719-39.318 9.448 2.619c.292.08.742-.18 1.036-.597l9.451-13.501-19.935 11.48Zm6.71 2.787-6.575 10.88a.97.97 0 0 1-.177-.593V53.667l6.752 1.856Z" fill="#b7cffc" fill-rule="nonzero"/><path d="m78.647 52.624 6.62 3.318c-.185.212-.395.39-.62.519L67.364 66.44a1.323 1.323 0 0 1-.571.194l6.613-10.951 2.599.723 2.642-3.782Zm7.37-10.518v12.145c0 .231-.073.492-.164.738l-6.537-3.293 6.701-9.59Zm66.158 16.354a.16.16 0 0 1-.16-.16V11.334L88.071 48.309a.16.16 0 1 1-.16-.277l64.423-37.252V58.3c0 .089-.071.16-.159.16m4.278.197c-.177 0-.319-.127-.319-.304v-.032a.319.319 0 1 1 .638 0c0 .177-.142.336-.319.336m0-17.32c-.177 0-.319-.112-.319-.289v-.061a.319.319 0 1 1 .638 0c0 .177-.142.35-.319.35m0 2.477c-.177 0-.319-.113-.319-.29v-.06a.319.319 0 1 1 .638 0c0 .177-.142.35-.319.35m0 2.476c-.177 0-.319-.113-.319-.29v-.06a.319.319 0 1 1 .638 0c0 .176-.142.35-.319.35m0 2.476c-.177 0-.319-.113-.319-.289v-.061a.319.319 0 1 1 .638 0c0 .177-.142.35-.319.35m0 2.476c-.177 0-.319-.113-.319-.289v-.061c0-.177.142-.319.319-.319.177 0 .319.142.319.319 0 .177-.142.35-.319.35m0 2.476c-.177 0-.319-.112-.319-.289v-.061c0-.177.142-.319.319-.319.177 0 .319.142.319.319 0 .177-.142.35-.319.35m0 2.476c-.177 0-.319-.112-.319-.289v-.06a.319.319 0 1 1 .638 0c0 .176-.142.349-.319.349m0-17.319a.322.322 0 0 1-.293-.172c-.086-.155-.044-.341.109-.427a.35.35 0 0 1 .332-.004c.098.058.171.154.171.268 0 .176-.142.335-.319.335" fill="#b7cffc" fill-rule="nonzero"/><path d="M154.141 40.151a.318.318 0 0 1-.278-.163.318.318 0 0 1 .121-.435c.154-.087.377-.047.464.106.086.154.058.334-.095.42l-.056.031a.317.317 0 0 1-.156.041m-2.286 1.276a.318.318 0 0 1-.279-.165.318.318 0 0 1 .124-.434l.056-.031a.32.32 0 0 1 .311.559l-.057.031a.317.317 0 0 1-.155.04m-2.284 1.276a.32.32 0 0 1-.158-.598c.154-.087.377-.047.463.106.087.154.06.333-.093.419l-.056.032a.32.32 0 0 1-.156.041m-2.285 1.275a.32.32 0 0 1-.158-.598c.155-.085.377-.047.464.106.086.155.059.334-.095.42l-.055.032a.33.33 0 0 1-.156.04m-2.287 1.276a.32.32 0 0 1-.155-.599l.057-.031a.32.32 0 1 1 .31.559l-.055.03a.318.318 0 0 1-.157.041m-2.284 1.275a.318.318 0 0 1-.155-.598c.153-.086.376-.046.462.108.086.154.058.334-.096.419l-.056.031a.31.31 0 0 1-.155.04m-2.285 1.276a.32.32 0 0 1-.155-.599c.153-.085.376-.046.462.109.086.154.058.333-.096.419l-.056.031a.317.317 0 0 1-.155.04m-2.285 1.276a.32.32 0 0 1-.156-.599c.154-.085.377-.046.463.108.085.155.057.334-.096.42l-.056.031a.323.323 0 0 1-.155.04m-2.285 1.276a.32.32 0 0 1-.156-.599c.155-.086.376-.046.462.108.086.155.059.334-.095.419l-.056.032a.325.325 0 0 1-.155.04m-2.286 1.275a.32.32 0 0 1-.155-.599l.057-.031a.32.32 0 1 1 .309.56l-.057.03a.319.319 0 0 1-.154.04m-2.285 1.276a.32.32 0 0 1-.155-.599c.153-.085.376-.046.462.109.086.154.059.333-.096.419l-.055.031a.326.326 0 0 1-.156.04m-2.285 1.276a.319.319 0 0 1-.157-.598c.154-.086.378-.048.464.106.086.154.059.333-.095.419l-.055.032a.32.32 0 0 1-.157.041m-2.285 1.275a.32.32 0 0 1-.279-.162.322.322 0 0 1 .122-.436c.155-.087.377-.047.464.106.086.154.059.334-.095.42l-.056.032a.323.323 0 0 1-.156.04m-2.285 1.276a.32.32 0 0 1-.156-.599l.055-.031a.32.32 0 1 1 .312.558l-.056.031a.31.31 0 0 1-.155.041m-2.285 1.276a.32.32 0 0 1-.156-.599l.055-.031a.32.32 0 1 1 .312.558l-.056.031a.31.31 0 0 1-.155.041m-2.285 1.276a.323.323 0 0 1-.28-.163.322.322 0 0 1 .122-.436c.155-.087.377-.047.464.107.086.154.06.333-.094.419l-.056.032a.314.314 0 0 1-.156.041m-2.286 1.275a.32.32 0 0 1-.157-.598c.155-.087.377-.047.464.106.086.155.06.334-.095.42l-.055.031a.32.32 0 0 1-.157.041m-2.285 1.276a.32.32 0 0 1-.156-.599l.056-.031a.32.32 0 0 1 .435.124.318.318 0 0 1-.124.434l-.055.031a.314.314 0 0 1-.156.041m-2.285 1.275a.32.32 0 0 1-.156-.598l.056-.031a.32.32 0 0 1 .311.558l-.056.031a.306.306 0 0 1-.155.04m-2.285 1.276a.319.319 0 0 1-.156-.598c.154-.087.376-.047.463.107.086.153.059.333-.095.419l-.056.031a.311.311 0 0 1-.156.041m-2.285 1.276a.32.32 0 0 1-.157-.598c.154-.087.377-.047.464.106.085.154.059.333-.095.42l-.056.031a.317.317 0 0 1-.156.041m-2.285 1.276a.32.32 0 0 1-.157-.599l.056-.031a.32.32 0 1 1 .312.558l-.056.031a.313.313 0 0 1-.155.041m-2.285 1.275a.32.32 0 0 1-.157-.598l.056-.031a.321.321 0 0 1 .436.123.32.32 0 0 1-.125.435l-.055.031a.323.323 0 0 1-.155.04m-2.286 1.276a.319.319 0 0 1-.156-.598c.153-.088.376-.047.463.106.086.154.06.334-.095.42l-.055.031a.315.315 0 0 1-.157.041m-2.285 1.276a.32.32 0 0 1-.156-.598l.057-.032a.32.32 0 0 1 .311.558l-.056.031a.314.314 0 0 1-.156.041m-2.285 1.276a.32.32 0 0 1-.155-.6c.155-.085.377-.044.463.11.085.154.056.333-.098.418l-.056.032a.324.324 0 0 1-.154.04m-2.285 1.275a.32.32 0 0 1-.155-.599c.154-.086.377-.046.462.109.086.154.058.333-.096.419l-.056.031a.32.32 0 0 1-.155.04m-2.285 1.276a.32.32 0 0 1-.155-.599c.153-.086.375-.046.461.109.086.153.059.333-.095.419l-.056.03a.31.31 0 0 1-.155.041m-2.285 1.275a.319.319 0 0 1-.156-.599c.156-.085.377-.045.463.11.085.154.057.333-.096.418l-.057.032a.318.318 0 0 1-.154.039m-2.286 1.276a.32.32 0 0 1-.155-.599c.156-.085.377-.045.463.109.085.155.058.334-.098.419l-.055.031a.32.32 0 0 1-.155.04m-2.285 1.276a.32.32 0 0 1-.155-.599c.153-.087.376-.046.462.109.086.154.059.333-.096.419l-.055.03a.314.314 0 0 1-.156.041m-2.285 1.275a.318.318 0 0 1-.155-.598l.056-.031a.319.319 0 1 1 .311.558l-.057.031a.317.317 0 0 1-.155.04m-2.285 1.276a.32.32 0 0 1-.156-.598l.056-.032a.32.32 0 0 1 .312.558l-.057.032a.32.32 0 0 1-.155.04m-2.285 1.276a.317.317 0 0 1-.278-.163.318.318 0 0 1 .122-.435c.154-.087.376-.047.462.106.087.154.06.333-.094.42l-.055.031a.318.318 0 0 1-.157.041m-2.285 1.276a.32.32 0 0 1-.157-.599c.155-.087.376-.047.463.107.086.154.06.333-.094.42l-.056.031a.325.325 0 0 1-.156.041M74.161 84.8a.322.322 0 0 1-.28-.163.32.32 0 0 1 .124-.435l.056-.031a.319.319 0 1 1 .311.558l-.056.031a.323.323 0 0 1-.155.04m-2.286 1.276a.32.32 0 0 1-.156-.598l.057-.032a.32.32 0 0 1 .434.123.321.321 0 0 1-.123.436l-.056.031a.323.323 0 0 1-.156.04m-2.285 1.276a.319.319 0 0 1-.156-.598c.154-.087.376-.047.463.106.086.154.059.333-.095.42l-.055.031a.315.315 0 0 1-.157.041m-2.285 1.276a.32.32 0 0 1-.155-.599l.055-.031a.32.32 0 1 1 .312.558l-.057.031a.318.318 0 0 1-.155.041m-2.285 1.275a.32.32 0 0 1-.156-.598l.056-.031a.32.32 0 0 1 .312.558l-.057.03a.31.31 0 0 1-.155.041m-2.257 1.276c-.177 0-.32-.127-.32-.304 0-.115.062-.254.163-.31.154-.087.363-.039.449.114.079.141.052.309-.07.403a.312.312 0 0 1-.222.097m0 2.731a.32.32 0 0 1-.32-.319v-.067a.32.32 0 0 1 .639 0v.067a.319.319 0 0 1-.319.319m0 2.715a.32.32 0 0 1-.32-.319v-.066a.32.32 0 1 1 .639 0v.066a.319.319 0 0 1-.319.319m0 2.716a.32.32 0 0 1-.32-.32v-.067a.32.32 0 0 1 .639 0v.067c0 .177-.142.32-.319.32m0 2.715a.32.32 0 0 1-.32-.32v-.066a.32.32 0 1 1 .639 0v.066a.32.32 0 0 1-.319.32m0 2.715a.32.32 0 0 1-.32-.319v-.067a.319.319 0 1 1 .639 0v.067a.319.319 0 0 1-.319.319m0 2.715a.32.32 0 0 1-.32-.32v-.066a.32.32 0 0 1 .639 0v.066c0 .177-.142.32-.319.32m0 2.715a.32.32 0 0 1-.32-.319v-.067a.32.32 0 0 1 .639 0v.067a.319.319 0 0 1-.319.319m0 2.681a.32.32 0 0 1-.32-.32c0-.177.143-.335.32-.335.177 0 .319.127.319.303v.032c0 .177-.142.32-.319.32M22.728 125.5a.16.16 0 0 1-.16-.16V99.797l.085-.045 15.001-7.94a.16.16 0 0 1 .15.282L22.888 99.99v25.35a.16.16 0 0 1-.16.16" fill="#b7cffc" fill-rule="nonzero"/><path d="M62.063 54.805a.317.317 0 0 1-.277-.161.318.318 0 0 1 .118-.436l.055-.031a.32.32 0 1 1 .318.554l-.056.032a.322.322 0 0 1-.158.042m-2.243 1.271a.321.321 0 0 1-.284-.15c-.087-.154-.061-.333.092-.42l.056-.032a.32.32 0 0 1 .316.556.365.365 0 0 1-.18.046m-2.276 1.298a.323.323 0 0 1-.284-.15c-.087-.153-.061-.333.093-.42l.055-.032a.32.32 0 1 1 .315.556.359.359 0 0 1-.179.046M55.235 58.7a.32.32 0 0 1-.159-.597l.054-.031a.32.32 0 0 1 .319.554l-.056.032a.322.322 0 0 1-.158.042m-2.243 1.271a.32.32 0 0 1-.284-.15c-.087-.154-.061-.333.092-.42l.056-.032a.32.32 0 1 1 .315.556.362.362 0 0 1-.179.046m-2.276 1.298a.32.32 0 0 1-.284-.15c-.088-.154-.061-.333.093-.42l.055-.032a.319.319 0 1 1 .315.556.359.359 0 0 1-.179.046m-2.31 1.326a.32.32 0 0 1-.159-.597l.055-.031a.32.32 0 1 1 .319.554l-.056.032a.326.326 0 0 1-.159.042m-2.242 1.271a.323.323 0 0 1-.285-.15c-.087-.154-.06-.333.093-.421l.056-.031a.32.32 0 0 1 .315.556.373.373 0 0 1-.179.046m-2.276 1.298a.319.319 0 0 1-.284-.151c-.088-.153-.062-.332.092-.419l.055-.032a.32.32 0 0 1 .316.556.359.359 0 0 1-.179.046m-2.31 1.326a.32.32 0 0 1-.159-.597l.055-.032a.32.32 0 1 1 .318.554l-.055.032a.32.32 0 0 1-.159.043m-2.243 1.271a.322.322 0 0 1-.284-.151c-.087-.153-.061-.332.093-.42l.055-.031a.32.32 0 1 1 .316.556.376.376 0 0 1-.18.046m-2.276 1.298a.323.323 0 0 1-.284-.15c-.087-.153-.061-.333.092-.42l.055-.032a.319.319 0 0 1 .436.12.319.319 0 0 1-.119.436.363.363 0 0 1-.18.046m-2.309 1.326a.32.32 0 0 1-.16-.597l.056-.032a.32.32 0 0 1 .318.554l-.056.032a.313.313 0 0 1-.158.043m-1.234 1.903a.319.319 0 0 1-.319-.319v-.064a.319.319 0 1 1 .639 0v.064a.32.32 0 0 1-.32.319m0 2.621a.319.319 0 0 1-.319-.32v-.064a.32.32 0 0 1 .639 0v.064a.32.32 0 0 1-.32.32m0 2.62a.318.318 0 0 1-.319-.319v-.064a.319.319 0 1 1 .639 0v.064a.319.319 0 0 1-.32.319m0 2.621a.319.319 0 0 1-.319-.32v-.064a.32.32 0 0 1 .639 0v.064a.32.32 0 0 1-.32.32m0 2.588c-.177 0-.319-.111-.319-.288v-.063a.319.319 0 1 1 .639 0c0 .176-.143.351-.32.351m0 2.652a.319.319 0 0 1-.319-.319v-.064a.319.319 0 1 1 .639 0v.064a.32.32 0 0 1-.32.319m0 2.621a.319.319 0 0 1-.319-.32v-.064a.32.32 0 1 1 .639 0v.064a.32.32 0 0 1-.32.32m0 2.62a.319.319 0 0 1-.319-.32v-.064a.32.32 0 0 1 .639 0v.064a.32.32 0 0 1-.32.32m0 2.62a.319.319 0 0 1-.319-.319v-.064a.319.319 0 1 1 .639 0v.064a.32.32 0 0 1-.32.319m0 2.589c-.177 0-.319-.112-.319-.288v-.064a.319.319 0 1 1 .639 0c0 .177-.143.352-.32.352m0 2.652a.319.319 0 0 1-.319-.32v-.064a.319.319 0 1 1 .639 0v.064a.32.32 0 0 1-.32.32m0 2.62a.319.319 0 0 1-.319-.32v-.064a.32.32 0 0 1 .639 0v.064a.32.32 0 0 1-.32.32m0 2.621a.319.319 0 0 1-.319-.32v-.064a.319.319 0 1 1 .639 0v.064a.32.32 0 0 1-.32.32m0 2.62a.319.319 0 0 1-.319-.319v-.064a.319.319 0 1 1 .639 0v.064a.32.32 0 0 1-.32.319m0 2.588c-.177 0-.319-.111-.319-.287v-.064a.319.319 0 1 1 .639 0c0 .176-.143.351-.32.351m0 2.653a.319.319 0 0 1-.319-.32v-.064a.319.319 0 1 1 .639 0v.064a.32.32 0 0 1-.32.32m0 2.62a.319.319 0 0 1-.319-.32v-.064a.32.32 0 0 1 .639 0v.064a.32.32 0 0 1-.32.32m0 2.62a.319.319 0 0 1-.319-.32v-.063a.319.319 0 1 1 .639 0v.063a.32.32 0 0 1-.32.32m0 2.62a.319.319 0 0 1-.319-.319v-.064a.319.319 0 1 1 .639 0v.064a.32.32 0 0 1-.32.319m0 2.589c-.177 0-.319-.112-.319-.288v-.064a.32.32 0 0 1 .639 0c0 .177-.143.352-.32.352m0 2.652a.319.319 0 0 1-.319-.32v-.064a.32.32 0 0 1 .639 0v.064a.32.32 0 0 1-.32.32m0 2.62a.319.319 0 0 1-.319-.319v-.064a.319.319 0 1 1 .639 0v.064a.32.32 0 0 1-.32.319m0 2.621a.319.319 0 0 1-.319-.32v-.064a.319.319 0 1 1 .639 0v.064a.32.32 0 0 1-.32.32m0 2.62a.319.319 0 0 1-.319-.319v-.064a.319.319 0 1 1 .639 0v.064a.32.32 0 0 1-.32.319m0 2.588c-.177 0-.319-.111-.319-.287v-.064a.32.32 0 1 1 .639 0c0 .177-.143.351-.32.351m0 2.653a.319.319 0 0 1-.319-.32v-.064a.319.319 0 1 1 .639 0v.064a.32.32 0 0 1-.32.32m0 2.62a.319.319 0 0 1-.319-.32v-.063a.319.319 0 1 1 .639 0v.063a.32.32 0 0 1-.32.32m0 2.588c-.177 0-.319-.111-.319-.287v-.064a.319.319 0 1 1 .639 0c0 .176-.143.351-.32.351m0 2.653a.319.319 0 0 1-.319-.32v-.064a.319.319 0 1 1 .639 0v.064a.32.32 0 0 1-.32.32m0 2.588c-.177 0-.319-.111-.319-.288v-.064a.32.32 0 0 1 .639 0c0 .177-.143.352-.32.352m0 2.653a.32.32 0 0 1-.319-.32v-.065a.32.32 0 0 1 .639 0v.065a.32.32 0 0 1-.32.32m0 2.588c-.177 0-.319-.112-.319-.288v-.064a.319.319 0 1 1 .639 0c0 .177-.143.352-.32.352m0 2.62c-.177 0-.319-.112-.319-.288v-.064a.319.319 0 1 1 .639 0c0 .177-.143.352-.32.352m0 2.652a.318.318 0 0 1-.319-.319v-.065a.32.32 0 0 1 .639 0v.065a.319.319 0 0 1-.32.319m0 2.589c-.177 0-.319-.111-.319-.288v-.064a.32.32 0 0 1 .639 0c0 .177-.143.352-.32.352m0 2.652a.319.319 0 0 1-.319-.319v-.064a.319.319 0 1 1 .639 0v.064a.32.32 0 0 1-.32.319m0 2.588c-.177 0-.319-.111-.319-.287v-.064a.319.319 0 1 1 .639 0c0 .176-.143.351-.32.351m70.54-107.55a.321.321 0 0 1-.283-.148c-.088-.154-.063-.333.091-.421l.054-.032a.32.32 0 0 1 .32.554.374.374 0 0 1-.182.047m-2.302 1.339a.319.319 0 0 1-.159-.596l.056-.032a.32.32 0 0 1 .318.554l-.056.032a.31.31 0 0 1-.159.042m-2.234 1.285a.319.319 0 0 1-.283-.149c-.088-.153-.063-.332.09-.42l.055-.032a.319.319 0 1 1 .319.554.373.373 0 0 1-.181.047m-21.463.555a.319.319 0 0 1-.319-.32v-.064a.319.319 0 1 1 .638 0v.064c0 .177-.142.32-.319.32m19.194.757a.322.322 0 0 1-.282-.147c-.089-.153-.064-.333.088-.422l.056-.032a.32.32 0 0 1 .321.553.365.365 0 0 1-.183.048m-2.301 1.339a.319.319 0 0 1-.161-.596l.056-.032a.32.32 0 1 1 .32.553l-.055.032a.323.323 0 0 1-.16.043m-16.893.524a.319.319 0 0 1-.319-.32v-.063a.319.319 0 1 1 .638 0v.063c0 .177-.142.32-.319.32m14.657.76a.318.318 0 0 1-.281-.147c-.089-.152-.065-.332.088-.421l.055-.032a.319.319 0 1 1 .321.552.365.365 0 0 1-.183.048m-2.268 1.312a.321.321 0 0 1-.282-.147c-.088-.153-.064-.332.088-.421l.056-.032a.319.319 0 1 1 .321.552.365.365 0 0 1-.183.048m-12.389.548a.319.319 0 0 1-.319-.319c0-.177.142-.351.319-.351.177 0 .319.11.319.287v.064a.319.319 0 0 1-.319.319m10.088.792a.316.316 0 0 1-.276-.16.317.317 0 0 1 .116-.436l.055-.032a.318.318 0 0 1 .437.116.32.32 0 0 1-.116.437l-.056.032a.32.32 0 0 1-.16.043m-2.235 1.284a.32.32 0 0 1-.283-.149c-.088-.153-.063-.332.09-.42l.055-.032a.319.319 0 0 1 .319.554.37.37 0 0 1-.181.047m-7.853.545a.319.319 0 0 1-.319-.32v-.064a.319.319 0 1 1 .638 0v.064c0 .177-.142.32-.319.32m5.585.767a.321.321 0 0 1-.283-.149c-.088-.153-.063-.332.09-.42l.055-.032a.32.32 0 0 1 .319.554.373.373 0 0 1-.181.047m-2.269 1.312a.322.322 0 0 1-.283-.149c-.088-.153-.062-.332.09-.42l.056-.032a.318.318 0 0 1 .436.117.32.32 0 0 1-.118.437.367.367 0 0 1-.181.047m-3.316.541a.319.319 0 0 1-.319-.319v-.064a.319.319 0 1 1 .638 0v.064a.319.319 0 0 1-.319.319m1.048.771a.32.32 0 0 1-.282-.149c-.088-.153-.064-.332.089-.42l.055-.032a.32.32 0 1 1 .319.553.358.358 0 0 1-.181.048" fill="#b7cffc" fill-rule="nonzero"/><path d="m238.404 58.734-23.195 13.392c-1.692.976-4.673.853-6.625-.275L186.34 59.008c-1.954-1.127-2.167-2.848-.476-3.825l23.195-13.391c1.692-.977 4.673-.853 6.625.274l22.244 12.843c1.954 1.127 2.167 2.848.476 3.825" fill="#e5f2fe" fill-rule="nonzero"/><path d="m-.023-.106.222-.146a.06.06 0 0 0 .02-.024l.746.375a.057.057 0 0 1-.02.025L.723.269C.715.275.707.275.701.271L-.04-.102c.005.001.011 0 .017-.004Z" fill="url(#e)" fill-rule="nonzero" transform="matrix(-45.3764 90.1135 90.1135 45.3764 246.95 65.59)"/><path d="M208.584 71.851 186.34 59.008c-.932-.537-1.463-1.21-1.585-1.873V140.8c-.171.839.37 1.771 1.585 2.472l22.244 12.843c1.014.586 2.304.893 3.549.924V72.775c-1.245-.03-2.535-.339-3.549-.924" fill="#dedede" fill-rule="nonzero"/><path d="M1.062.057c.006.002.01.009.009.02l-.013.195a.064.064 0 0 1-.01.026L.516-.059a.054.054 0 0 0 .009-.026l.014-.196c0-.008-.002-.014-.005-.017l.528.355Z" fill="url(#f)" fill-rule="nonzero" transform="scale(-131.4056 131.4056) rotate(56.104 -1.124 -1.752)"/><path d="M231.409 66.562c0 4.751-2.514 7.373-6.087 7.032-.804.093-1.742-.129-2.748-.709L192.931 55.77a7.701 7.701 0 0 1-.724-.476c-4.995-3.462-8.894-10.582-8.894-16.5 0-5.765 3.697-8.394 8.499-6.403.719-4.095 4.139-5.537 8.25-3.163 1.372.792 2.664 1.919 3.807 3.252 2.183-1.853 5.517-1.919 9.255.238 5.613 3.242 10.317 10.449 11.566 17.213 1.705 1.222 3.031 3.631 3.078 5.677 2.222 3.377 3.641 7.382 3.641 10.954" fill="#0081ed" fill-rule="nonzero"/><path d="M234.181 51.941c-.048-2.046-1.373-4.455-3.077-5.677-1.25-6.764-5.953-13.971-11.568-17.213-3.288-1.898-6.261-2.073-8.416-.828l-.905.517c-1.127-1.299-2.394-2.403-3.739-3.18-2.329-1.344-4.435-1.462-5.954-.57l-5.396 3.086c-.883.011-1.692.208-2.396.591l-6.349 3.631c1.458-.764 3.339-.774 5.432.093.719-4.095 4.139-5.537 8.25-3.163 1.372.792 2.664 1.92 3.806 3.252 2.183-1.852 5.517-1.92 9.255.238 5.614 3.242 10.318 10.45 11.567 17.213 1.705 1.222 3.029 3.632 3.078 5.677 2.222 3.377 3.641 7.382 3.641 10.954 0 3.234-1.167 5.479-3.039 6.477l6.348-3.631c1.91-.98 3.103-3.241 3.103-6.513 0-3.573-1.419-7.577-3.641-10.954" fill="#00a2f9" fill-rule="nonzero"/><path d="M196.809 51.557c0 1.169-.82 1.642-1.833 1.058-1.012-.584-1.832-2.005-1.832-3.174s.82-1.643 1.832-1.058c1.013.584 1.833 2.005 1.833 3.174m5.721 3.303c0 1.168-.82 1.641-1.832 1.058-1.013-.584-1.833-2.006-1.833-3.176 0-1.167.82-1.64 1.832-1.057 1.013.585 1.833 2.006 1.834 3.175m5.721 3.304c0 1.168-.82 1.642-1.833 1.058-1.012-.584-1.832-2.006-1.832-3.174 0-1.169.82-1.643 1.832-1.06 1.013.586 1.833 2.007 1.833 3.176m5.721 3.302c0 1.17-.82 1.644-1.833 1.06-1.012-.585-1.833-2.007-1.832-3.175-.001-1.17.82-1.643 1.832-1.059 1.013.585 1.833 2.006 1.833 3.174m5.722 3.304c0 1.168-.82 1.643-1.833 1.058-1.012-.584-1.832-2.006-1.832-3.174-.001-1.17.82-1.644 1.832-1.059 1.013.585 1.833 2.006 1.833 3.174" fill="#fff" fill-rule="nonzero"/><path d="m238.677 203.217-42.482 23.795c-1.882 1.087-5.2.949-7.372-.306l-14.131-8.428c-2.173-1.255-2.411-3.17-.53-4.257l42.321-24.274c1.882-1.087 5.199-.949 7.372.306l14.293 8.907c2.173 1.255 2.411 3.17.529 4.257" fill="#e5f2fe" fill-rule="nonzero"/><path d="M.027.019.422-.04a.048.048 0 0 0 .025-.012l.025.031a.058.058 0 0 1-.026.013L.052.05C.042.051.036.048.033.042L.012.015c.003.003.009.004.015.004Z" fill="url(#g)" fill-rule="nonzero" transform="scale(-122.1837 122.1837) rotate(37.64 -3.376 -2.065)"/><path d="M.928-.209c.017.013.022.038.012.07l-.104.34a.19.19 0 0 1-.048.074L.718.198A.197.197 0 0 0 .766.124l.104-.34C.878-.241.876-.261.868-.275l.06.066Z" fill="url(#h)" fill-rule="nonzero" transform="scale(-46.2545 46.2545) rotate(42.184 -7.851 -3.772)"/><path d="m256.362 229.393-42.482 23.795c-1.882 1.087-5.2.949-7.372-.305l-14.131-8.429c-2.173-1.255-2.411-3.17-.53-4.257l42.321-24.274c1.882-1.086 5.199-.949 7.372.306l14.293 8.908c2.173 1.254 2.411 3.169.529 4.256" fill="#e5f2fe" fill-rule="nonzero"/><path d="m-.005.01.436-.045A.058.058 0 0 0 .46-.048l.025.036A.056.056 0 0 1 .456 0L.02.046C.01.047.003.043 0 .036l-.022-.03c.004.003.01.005.017.004Z" fill="url(#i)" fill-rule="nonzero" transform="scale(-111.1016 111.1016) rotate(35.218 -4.392 -2.59)"/><path d="M1.064-.172c.014.013.014.037 0 .064L.917.183a.172.172 0 0 1-.055.059L.811.161A.172.172 0 0 0 .866.102l.147-.29c.011-.021.013-.04.007-.054l.044.07Z" fill="url(#j)" fill-rule="nonzero" transform="scale(-50.537 50.537) rotate(32.307 -10.072 -5.995)"/><path d="m248.844 162.045-126.016 72.594c-5.677 3.278-15.688 2.863-22.245-.922L23.724 189.51c-6.557-3.785-7.276-9.565-1.597-12.843l128.19-71.507c5.677-3.279 15.688-2.864 22.245.922l74.685 43.12c6.557 3.785 7.276 9.565 1.597 12.843" fill="#e5f2fe" fill-rule="nonzero"/><path d="m.135.046.706-.095a.097.097 0 0 0 .046-.022l.016.021a.093.093 0 0 1-.046.022L.151.067C.134.069.123.064.117.053L.107.039c.006.006.016.009.028.007Z" fill="url(#k)" fill-rule="nonzero" transform="scale(-204.202 204.202) rotate(37.595 -1.64 -1.568)"/><path d="M100.583 233.717 23.724 189.51c-3.128-1.806-4.911-4.065-5.321-6.29v3.47c-.576 2.817 1.241 5.945 5.321 8.3l76.859 44.207c3.405 1.966 7.737 3.001 11.916 3.104v-5.48c-4.179-.103-8.511-1.138-11.916-3.104" fill="#cacaca" fill-rule="nonzero"/><path d="M2.432-.303c.002.044-.032.088-.1.115l-1.27.51a.4.4 0 0 1-.189.022L.885.26a.4.4 0 0 0 .189-.021l1.27-.51c.052-.021.084-.052.095-.085l-.007.053Z" fill="url(#l)" fill-rule="nonzero" transform="scale(-64.7599 64.7599) rotate(-8.043 23.731 20.605)"/><path d="m130.477 202.032-26.314 15.19-66.937-38.685 26.313-15.193 66.938 38.688Z" fill="#fff" fill-rule="nonzero"/><path d="M.174-.119h.098L.135.119H.037l.137-.238Z" fill="url(#m)" fill-rule="nonzero" transform="matrix(0 110.947 110.947 0 117.32 197.966)"/><path d="M.539-.038h.625L1.12.038H.495l.044-.076Z" fill="url(#n)" fill-rule="nonzero" transform="scale(123.7813 -123.7813) rotate(-30.027 -2.362 -.34)"/><path d="m75.839 175.061-11.546 6.666c-.842.486-2.326.425-3.298-.137l-11.072-6.392c-.973-.562-1.079-1.418-.237-1.905l11.546-6.666c.841-.486 2.326-.424 3.297.137l11.074 6.393c.971.561 1.078 1.418.236 1.904" fill="#73e2f1" fill-rule="nonzero"/><path d="M76.391 179.472v-5.084c-.052.254-.233.49-.552.674l-11.546 6.666c-.404.233-.958.338-1.531.323v5.383c.573.014 1.127-.09 1.531-.324l11.546-6.666c.441-.254.619-.61.552-.972" fill="#00bfd3" fill-rule="nonzero"/><path d="m60.995 181.591-11.072-6.393c-.464-.267-.729-.602-.789-.932v5.084c-.086.418.183.882.789 1.23l11.072 6.393c.505.292 1.146.445 1.767.461v-5.383c-.621-.015-1.262-.168-1.767-.46" fill="#00a5b1" fill-rule="nonzero"/><path d="m96.203 186.858-11.547 6.666c-.842.486-2.325.425-3.298-.137l-11.072-6.392c-.972-.562-1.078-1.418-.236-1.905l11.546-6.666c.841-.486 2.326-.423 3.297.137l11.073 6.393c.972.561 1.079 1.418.237 1.904" fill="#ffb300" fill-rule="nonzero"/><path d="M96.755 191.268v-5.084c-.052.254-.234.49-.552.674l-11.547 6.666c-.404.233-.958.338-1.531.323v5.383c.573.014 1.127-.09 1.531-.324l11.547-6.666c.44-.254.618-.61.552-.972" fill="#ee9300" fill-rule="nonzero"/><path d="m81.358 193.388-11.072-6.393c-.464-.267-.728-.602-.789-.932v5.084c-.085.418.184.882.789 1.23l11.072 6.394c.505.291 1.147.444 1.767.46v-5.383c-.62-.015-1.262-.168-1.767-.46" fill="#d17c00" fill-rule="nonzero"/><path d="m116.991 198.822-11.546 6.666c-.842.486-2.326.425-3.299-.137l-11.072-6.392c-.972-.562-1.078-1.418-.236-1.905l11.546-6.666c.841-.486 2.326-.424 3.297.137l11.073 6.393c.972.561 1.079 1.418.237 1.904" fill="#f0ff00" fill-rule="nonzero"/><path d="M117.543 203.233v-5.085c-.052.254-.234.49-.552.674l-11.546 6.666c-.405.233-.959.338-1.532.323v5.383c.573.014 1.127-.09 1.532-.323l11.546-6.667c.441-.254.618-.61.552-.971" fill="#d2d700" fill-rule="nonzero"/><path d="m102.146 205.351-11.072-6.393c-.464-.267-.728-.602-.788-.932v5.084c-.086.418.183.882.788 1.23l11.072 6.394c.505.291 1.147.444 1.767.46v-5.383c-.62-.015-1.262-.168-1.767-.46" fill="#959300" fill-rule="nonzero"/><path d="M238.668 135.812c6.953 4.015 6.953 10.523 0 14.538-6.953 4.014-18.226 4.014-25.18 0-6.952-4.015-6.952-10.523.001-14.537 6.952-4.014 18.226-4.014 25.179 0" fill="#fff" fill-rule="nonzero"/><path d="M.377-.082c.147.079.38.071.521-.017.07-.044.104-.099.103-.153l.008.229C1.011.032.977.088.906.132a.573.573 0 0 1-.521.017C.311.11.273.056.272.001L.264-.227c.002.054.04.106.113.145Z" fill="url(#o)" fill-rule="nonzero" transform="scale(-48.27875 48.27875) rotate(1.896 -98.828 -159.208)"/><path d="m226.079 135.255 10.871 6.277c-5.964 3.443-15.779 3.443-21.743 0-5.964-3.444-5.964-9.11 0-12.554 3.33-1.923 8.014-2.859 12.69-2.537l-1.818 8.814Z" fill="#4db5d0" fill-rule="nonzero"/><path d="M215.207 141.532c-2.969-1.713-4.458-3.978-4.472-6.245v6.318c-.013 2.288 1.476 4.578 4.472 6.308 5.964 3.443 15.779 3.443 21.743 0v-6.381c-5.964 3.443-15.779 3.443-21.743 0" fill="#00a5b1" fill-rule="nonzero"/><path d="m226.079 135.255 10.871 6.277c-5.964 3.443-15.779 3.443-21.743 0-5.964-3.444-5.964-9.11 0-12.554 3.33-1.923 8.014-2.859 12.69-2.537l-1.818 8.814Z" fill="#73e2f1" fill-rule="nonzero"/><path d="m226.079 128.757 1.818-8.815c3.425.236 6.615 1.13 9.053 2.538 5.965 3.444 5.965 9.11 0 12.553l-10.871-6.276Z" fill="#ffb300" fill-rule="nonzero"/><path d="M226.079 128.757v6.498l10.871 6.277v-6.498l-10.871-6.277Z" fill="#d17c00" fill-rule="nonzero"/><path d="M241.421 141.573v-12.751c-.027 2.256-1.516 4.507-4.471 6.212v12.88c3.011-1.738 4.499-4.042 4.471-6.341" fill="#ee9300" fill-rule="nonzero"/><path d="m189.463 125.426-25.307-14.611c-2.991-1.727-2.616-4.743.838-6.737 3.453-1.993 8.677-2.21 11.667-.483l25.308 14.611c2.99 1.726 2.615 4.742-.838 6.736-3.453 1.994-8.677 2.211-11.668.484" fill="#fff" fill-rule="nonzero"/><path d="m1.121.012-.087.152C1.021.186.996.199.96.199L.281.204C.201.204.098.14.051.06.024.015.021-.026.038-.053l.085-.149c-.014.027-.01.065.015.108.047.08.15.145.23.144l.68-.004c.035-.001.059-.013.073-.034ZM.123-.202l.002-.003-.002.003Z" fill="url(#p)" fill-rule="nonzero" transform="scale(-43.0046 43.0046) rotate(-29.613 3.403 10.513)"/><path d="M174.942 108.614c-1.297.75-3.401.75-4.697 0-1.299-.749-1.299-1.962 0-2.711 1.297-.75 3.4-.75 4.697-.001 1.298.75 1.298 1.963 0 2.712m7.333 4.236c-1.297.748-3.4.748-4.698-.001-1.297-.75-1.297-1.964 0-2.712 1.298-.75 3.4-.75 4.699-.001 1.297.749 1.297 1.964 0 2.713m7.334 4.234c-1.298.749-3.4.75-4.698 0-1.299-.749-1.299-1.962 0-2.713 1.297-.75 3.4-.748 4.698.001 1.297.75 1.298 1.963 0 2.712m7.334 4.234c-1.299.749-3.401.749-4.698 0-1.299-.75-1.299-1.963 0-2.712 1.297-.75 3.4-.75 4.697 0 1.298.75 1.298 1.963 0 2.712" fill="#b7cffc" fill-rule="nonzero"/><path d="M178.859 112.249a1.626 1.626 0 0 0 1.882-1.311l1.597-9.044a1.627 1.627 0 0 0-1.311-1.882 1.626 1.626 0 0 0-1.882 1.311l-1.597 9.044a1.627 1.627 0 0 0 1.311 1.882" fill="#ffbc81" fill-rule="nonzero"/><path d="M171.606 112.826a1.627 1.627 0 0 0 2.034 1.06l5.596-1.631a1.627 1.627 0 0 0 1.515-1.723 1.628 1.628 0 0 0-1.723-1.514l-6.361 1.774a1.627 1.627 0 0 0-1.061 2.034" fill="#ffbc81" fill-rule="nonzero"/><path d="M188.436 139.639c.021.215-.151.401-.438.584-.083.052.011-1.164-.272-.961-.082.059-3.989 3.101-6.17 2.539-.242-.062-.319-.285-.326-.469v-.491c-.03-.553.793-1.397 2.043-2.615 1.377-1.342 2.255-2.179 4.313-.991.588.34.825.593.828.811l.022 1.593Z" fill-rule="nonzero"/><path d="M183.273 138.226c-1.664 1.622-2.572 2.58-1.718 3.072.855.495 2.562-.248 4.314-1.573 1.534-1.158 3.775-1.301 1.717-2.49-2.059-1.188-2.937-.35-4.313.991" fill="#464769" fill-rule="nonzero"/><path d="m184.945 137.452.121-14.97 4.949 1.604-.848 2.439s.382 3.26-.625 6.561c0 0-.706 1.441-.567 4.795 0 0-1.817 1.033-3.03-.429" fill="#ffbc83" fill-rule="nonzero"/><path d="M183.66 135.715c.021.215-.151.401-.438.584-.083.052.01-1.164-.273-.961-.082.059-3.988 3.101-6.17 2.539-.241-.062-.318-.285-.325-.469v-.491c-.03-.553.793-1.397 2.042-2.615 1.378-1.342 2.256-2.179 4.314-.991.588.34.825.594.828.811l.022 1.593Z" fill-rule="nonzero"/><path d="M178.497 134.302c-1.664 1.62-2.572 2.579-1.717 3.072.854.494 2.563-.25 4.315-1.573 1.533-1.159 3.773-1.302 1.715-2.49-2.057-1.19-2.936-.351-4.313.991" fill="#464769" fill-rule="nonzero"/><path d="m180.169 133.528.122-14.97 4.949 1.604-.848 2.439s.382 3.26-.626 6.561c0 0-.706 1.441-.567 4.795 0 0-1.817 1.033-3.03-.429" fill="#f79f63" fill-rule="nonzero"/><path d="M191.764 118.987v5.528s-6.479 2.187-12.567-5.528v-5.35l12.567 5.35Z" fill="#73e2f1" fill-rule="nonzero"/><path d="M188.687 121.119a.454.454 0 0 1-.208.068c-1.086.084-4.989-.766-8.894-5.167-.322-.362-.529-.854-.529-1.265v-12.489c0-.941.336-1.601.877-1.905l2.937-1.714c.534-.318 1.275-.279 2.091.192l4.005 2.312c1.617.934 2.94 3.225 2.94 5.092v12.562c0 .293-.105.507-.283.601l-2.936 1.713Z" fill="#00a4fb" fill-rule="nonzero"/><path d="M187.55 101.926c.006.311-.195.622-.605.859-.809.467-2.12.467-2.928 0-.41-.237-.612-.548-.606-.859v-2.721c-.006-.31.196-.622.606-.859.808-.466 2.119-.466 2.928 0 .41.237.611.549.605.859v2.721Z" fill="#f0a36c" fill-rule="nonzero"/><path d="M187.385 98.068c0 .68.477.955 1.066.615.59-.34 1.066-1.167 1.067-1.846 0-.68-.478-.956-1.067-.615-.588.34-1.066 1.166-1.066 1.846" fill="#ffbc81" fill-rule="nonzero"/><path d="M181.83 105.4s-5.513-5.012-2.151-13.929l2.584 9.256-.433 4.673Z" fill="#384697" fill-rule="nonzero"/><path d="M179.808 94.824a5.701 5.701 0 1 0 11.403 0 5.701 5.701 0 0 0-11.403 0" fill="#ffbc83" fill-rule="nonzero"/><path d="M183.82 105.4s4.24-4.673 1.298-13.327l-5.279 1.818s-1.817-4.5 4.154-5.799c0 0 3.98-.865 5.365 2.424 0 0 3.202.259 1.99 6.836 0 0-.173 6.231-7.528 8.048" fill="#384697" fill-rule="nonzero"/><path d="M187.564 115.9a1.626 1.626 0 0 0 1.997-1.127l2.51-9.347a1.626 1.626 0 0 0-1.127-1.997 1.626 1.626 0 0 0-1.997 1.127l-2.51 9.347a1.626 1.626 0 0 0 1.127 1.997" fill="#ffbc81" fill-rule="nonzero"/><path d="M178.465 116.226a1.627 1.627 0 0 0 1.924 1.248l7.551-1.533a1.626 1.626 0 0 0 1.67-1.571 1.626 1.626 0 0 0-1.572-1.67l-8.326 1.602a1.625 1.625 0 0 0-1.247 1.924" fill="#ffbc81" fill-rule="nonzero"/><path d="M76.006 154.37V98.411a3.97 3.97 0 0 1 1.986-3.439l67.264-38.835c2.648-1.529 5.958.382 5.958 3.44v55.959c0 1.418-.757 2.73-1.986 3.439L81.964 157.81c-2.647 1.529-5.958-.382-5.958-3.44" fill="#fff" fill-rule="nonzero"/><path d="M.817-.008.491.17A.01.01 0 0 1 .479.169L.251.03A.014.014 0 0 1 .246.012L.251.008.577-.17a.012.012 0 0 1 .013.001l.228.139c.007.004.007.013.004.018l-.005.004Z" fill="url(#q)" fill-rule="nonzero" transform="scale(209.22 -209.22) rotate(58.539 .995 -.248)"/><path d="m.04.047.625-.228a.035.035 0 0 1 .034.006l.367.308a.036.036 0 0 1 .012.029L1.076.17l-.003.017a.033.033 0 0 0-.012-.029L.694-.15C.684-.158.672-.161.66-.156L.035.071a.034.034 0 0 0-.02.021L.018.077C.019.069.021.062.026.057A.028.028 0 0 1 .04.047Z" fill="url(#r)" fill-rule="nonzero" transform="scale(-116.8113 116.8113) rotate(49.994 -1.043 -1.096)"/><path d="M.5 0Z" fill="url(#s)" fill-rule="nonzero" transform="scale(-49.6352 49.6352) rotate(49.994 -3.956 -.64)"/><path d="m81.964 164.689 48.462 27.979a3.97 3.97 0 0 0 3.972 0l67.264-38.834c2.648-1.529 2.648-5.351 0-6.88l-48.463-27.979a3.968 3.968 0 0 0-3.971 0L81.964 157.81c-2.647 1.528-2.647 5.351 0 6.879" fill="#fff" fill-rule="nonzero"/><path d="M.146-.139v.001-.001Zm.021.029.615.255A.035.035 0 0 0 .816.141l.381-.292a.036.036 0 0 0 .013-.032l.004.031a.036.036 0 0 1-.013.032L.82.172a.035.035 0 0 1-.034.004L.171-.079a.033.033 0 0 1-.02-.026L.146-.136a.034.034 0 0 0 .021.026Z" fill="url(#t)" fill-rule="nonzero" transform="scale(-116.64 116.64) rotate(7.474 -11.72 -13.91)"/><path d="m176.586 142.858-57.759 33.348c-2.254 1.3-6.189 1.137-8.792-.365l-17.387-10.039c-2.602-1.502-2.884-3.774-.631-5.076l57.758-33.347c2.254-1.301 6.19-1.138 8.792.365l17.388 10.038c2.602 1.503 2.884 3.775.631 5.076" fill="#afd0f8" fill-rule="nonzero"/><path d="m92.017 161.526 57.759-33.347c2.254-1.301 6.189-1.138 8.792.365l17.387 10.038c1.24.715 1.946 1.606 2.11 2.483.23-1.113-.489-2.347-2.11-3.283l-17.387-10.038c-2.603-1.502-6.538-1.666-8.792-.364l-57.759 33.346c-1.18.682-1.657 1.63-1.478 2.594.14-.674.628-1.303 1.478-1.794" fill="#8db7e2" fill-rule="nonzero"/><path d="m114.55 156.535-3.063-1.769-3.063 1.769 3.063 1.769 3.063-1.769Zm-6.021 3.477-3.063-1.769-3.062 1.769 3.062 1.768 3.063-1.768Zm62.108-21.471-60.211 34.763 3.063 1.768 60.211-34.763-3.063-1.768Zm-15.016-3.28-55.544 32.068 3.064 1.769 55.544-32.069-3.064-1.768Zm-35.05 17.797-3.063-1.767-3.062 1.767 3.062 1.769 3.063-1.769Zm37.466-13.217-52.785 30.475 3.063 1.769 52.785-30.476-3.063-1.768Zm-31.444 9.741-3.064-1.768-3.062 1.768 3.062 1.769 3.064-1.769Zm24.084-13.904-3.064-1.769-3.062 1.769 3.062 1.768 3.064-1.768Zm12.675-1.343-3.064-1.769-3.062 1.769 3.062 1.768 3.064-1.768Zm-1.204 6.67 6.378-3.683-3.063-1.768-6.379 3.682 3.064 1.769Zm-17.493-1.851-3.062-1.768-3.064 1.768 3.064 1.768 3.062-1.768Zm-12.042 6.952-3.062-1.768-3.063 1.768 3.063 1.769 3.062-1.769Zm6.022-3.476-3.064-1.768-3.062 1.768 3.062 1.768 3.064-1.768Z" fill="#8db7e2" fill-rule="nonzero"/><path d="m114.55 156.002-3.063-1.768-3.063 1.768 3.063 1.769 3.063-1.769Zm-6.021 3.477-3.063-1.769-3.062 1.769 3.062 1.768 3.063-1.768Zm62.108-21.471-60.211 34.764 3.063 1.767 60.211-34.762-3.063-1.769Zm-15.016-3.28-55.544 32.068 3.064 1.769 55.544-32.069-3.064-1.768Zm-35.05 17.798-3.063-1.768-3.062 1.768 3.062 1.769 3.063-1.769Zm37.466-13.218-52.785 30.475 3.063 1.769 52.785-30.475-3.063-1.769Zm-31.444 9.742-3.064-1.769-3.062 1.769 3.062 1.768 3.064-1.768Zm24.084-13.905-3.064-1.768-3.062 1.768 3.062 1.768 3.064-1.768Zm12.675-1.343-3.064-1.769-3.062 1.769 3.062 1.768 3.064-1.768Zm-1.204 6.67 6.378-3.683-3.063-1.768-6.379 3.683 3.064 1.768Zm-17.493-1.851-3.062-1.768-3.064 1.768 3.064 1.769 3.062-1.769Zm-12.042 6.953-3.062-1.769-3.063 1.769 3.063 1.768 3.062-1.768Zm6.022-3.477-3.064-1.768-3.062 1.768 3.062 1.769 3.064-1.769Z" fill="#dff2ff" fill-rule="nonzero"/><path d="m117.508 151.024 2.833 1.635.23-.133-3.063-1.769-3.063 1.769.231.133 2.832-1.635Zm6.021-3.477 2.833 1.636.231-.134-3.064-1.768-3.062 1.768.23.134 2.832-1.636Zm-12.042 6.953 2.833 1.635.23-.133-3.063-1.768-3.063 1.768.231.133 2.832-1.635Zm49.382-13.29.231-.134-3.063-1.768-52.785 30.475.231.134 52.554-30.343 2.832 1.636Zm-55.403 16.766 2.832 1.636.231-.134-3.063-1.768-3.062 1.768.23.134 2.832-1.636Zm52.988-21.347.231-.133-3.064-1.768-55.544 32.067.231.134 55.313-31.935 2.833 1.635Zm12.183 1.379-60.211 34.763.23.133 59.981-34.63 2.832 1.636.231-.134-3.063-1.768Zm-10.349-5.709 2.832 1.636.232-.134-3.064-1.768-3.062 1.768.23.134 2.832-1.636Zm-30.737 11.772 2.832 1.635.23-.133-3.062-1.768-3.064 1.768.231.133 2.833-1.635Zm29.765-5.235 6.147-3.549 2.832 1.635.231-.133-3.063-1.768-6.379 3.682.232.133Zm-23.745 1.759 2.833 1.635.231-.133-3.064-1.769-3.062 1.769.23.133 2.832-1.635Zm12.042-6.953 2.833 1.635.231-.133-3.064-1.768-3.062 1.768.23.133 2.832-1.635Zm-6.02 3.477 2.832 1.634.23-.132-3.062-1.769-3.064 1.769.232.132 2.832-1.634Z" fill="#fff" fill-rule="nonzero"/><path d="m171.86 162.441-17.998 10.392c-1.117.644-3.087.563-4.377-.182l-3.953-2.282c-1.29-.745-1.432-1.882-.315-2.528l17.998-10.39c1.118-.646 3.087-.564 4.377.18l3.954 2.284c1.29.744 1.431 1.881.314 2.526" fill="#afd0f8" fill-rule="nonzero"/><path d="m145.218 168.375 17.998-10.392c1.117-.644 3.087-.562 4.377.182l3.953 2.283c.583.336.918.753 1.023 1.168.159-.571-.186-1.219-1.023-1.701l-3.953-2.283c-1.29-.744-3.26-.826-4.377-.181l-17.998 10.391c-.612.353-.833.855-.708 1.358.087-.309.315-.598.708-.825" fill="#8db7e2" fill-rule="nonzero"/><path d="M140.354 76.511v-2.068c0-1.78-1.25-2.501-2.791-1.611L89.659 100.49c-1.542.889-2.791 3.054-2.791 4.833v2.068l53.486-30.88Z" fill="#fff" fill-opacity=".33" fill-rule="nonzero"/><path d="M91.799 101.9c0 .715-.503 1.586-1.125 1.945-.62.358-1.123.068-1.123-.648 0-.717.504-1.589 1.123-1.946.622-.359 1.124-.068 1.125.648m3.949-2.279c-.001.716-.504 1.587-1.124 1.945-.621.358-1.124.068-1.124-.648 0-.717.503-1.588 1.124-1.946.62-.359 1.123-.068 1.124.648m3.948-2.279c0 .716-.503 1.587-1.124 1.946-.621.358-1.124.068-1.124-.648 0-.717.504-1.589 1.124-1.946.62-.359 1.123-.068 1.124.648" fill="#fff" fill-rule="nonzero"/><path d="m95.337 112.504-8.47 4.89v-7.703l8.47-4.89v7.703Z" fill="#f0ff00" fill-rule="nonzero"/><path d="m105.918 106.394-8.47 4.891v-7.703l8.47-4.89v7.702Z" fill="#ffb300" fill-rule="nonzero"/><path d="m116.5 100.285-8.47 4.89v-7.703l8.47-4.89v7.703Z" fill="#73e2f1" fill-rule="nonzero"/><path d="M.75-.5h.077L.25.5H.173l.577-1Z" fill="url(#u)" fill-rule="nonzero" transform="matrix(0 20.9389 20.9389 0 129.884 81.278)"/><path d="M.75-.5h.077L.25.5H.173l.577-1Z" fill="url(#v)" fill-rule="nonzero" transform="matrix(0 20.9389 20.9389 0 129.884 78.237)"/><path d="M.75-.5h.077L.25.5H.173l.577-1Z" fill="url(#w)" fill-rule="nonzero" transform="matrix(0 20.9389 20.9389 0 129.884 75.195)"/><path d="m138.515 104.121-49.81 28.758c-1.01.583-1.837-.042-1.837-1.39v-9.249c0-1.348.827-2.928 1.837-3.512l49.81-28.758c1.012-.583 1.839.042 1.839 1.39v9.249c0 1.348-.827 2.929-1.839 3.512" fill="#fff" fill-opacity=".33" fill-rule="nonzero"/><path d="m108.732 119.242-6.51 3.759v-8.034l6.51-3.759v8.034Z" fill="#f0ff00" fill-rule="nonzero"/><path d="m116.865 114.546-6.511 3.76v-6.768l6.512-3.76v6.768Z" fill="#73e2f1" fill-rule="nonzero"/><path d="m124.998 109.85-6.511 3.76v-9.87l6.51-3.76v9.87Z" fill="#ffb300" fill-rule="nonzero"/><path d="M.706-.047h.086L.738.047H.652l.054-.094Z" fill="url(#x)" fill-rule="nonzero" transform="matrix(0 18.7032 18.7032 0 137.602 87.313)"/><path d="M.791-.047h.086L.823.047H.737l.054-.094Z" fill="url(#y)" fill-rule="nonzero" transform="matrix(0 18.7032 18.7032 0 137.602 82.678)"/><path d="M.876-.047h.087L.909.047H.822l.054-.094Z" fill="url(#z)" fill-rule="nonzero" transform="matrix(0 18.7032 18.7032 0 137.602 78.044)"/><path d="M.433-.242H.52L.24.242H.154l.279-.484Z" fill="url(#A)" fill-rule="nonzero" transform="matrix(0 18.7032 18.7032 0 131.359 98.123)"/><path d="M.518-.242h.087l-.28.484H.239l.279-.484Z" fill="url(#B)" fill-rule="nonzero" transform="matrix(0 18.7032 18.7032 0 131.359 93.489)"/><path d="M.603-.242H.69L.411.242H.324l.279-.484Z" fill="url(#C)" fill-rule="nonzero" transform="matrix(0 18.7032 18.7032 0 131.359 88.853)"/><path d="M.681-.04h.075L.709.04H.635l.046-.08Z" fill="url(#D)" fill-rule="nonzero" transform="matrix(0 21.7753 21.7753 0 89.677 107.259)"/><path d="M.76-.04h.074L.788.04H.713L.76-.04Z" fill="url(#E)" fill-rule="nonzero" transform="matrix(0 21.7753 21.7753 0 89.677 108.594)"/><path d="M.838-.04h.075L.866.04H.792l.046-.08Z" fill="url(#F)" fill-rule="nonzero" transform="matrix(0 21.7753 21.7753 0 89.677 109.929)"/><path d="M.448-.208h.074l-.24.416H.208l.24-.416Z" fill="url(#G)" fill-rule="nonzero" transform="matrix(0 21.7753 21.7753 0 95.919 110.844)"/><path d="M.526-.208h.075l-.24.416H.286l.24-.416Z" fill="url(#H)" fill-rule="nonzero" transform="matrix(0 21.7753 21.7753 0 95.92 112.179)"/><path d="M.605-.208h.074l-.24.416H.365l.24-.416Z" fill="url(#I)" fill-rule="nonzero" transform="matrix(0 21.7752 21.7752 0 95.919 113.514)"/><path d="M136.79 112.979 91.235 139.28c-.944.545-1.717-.039-1.717-1.299s.773-2.737 1.717-3.283l45.555-26.301c.945-.545 1.718.04 1.718 1.299 0 1.261-.773 2.738-1.718 3.283" fill="#fff" fill-opacity=".33" fill-rule="nonzero"/><path d="m.105.009.437-.256c.014-.008.038-.007.054.002l.361.205c.015.009.017.023.004.031L.523.247A.058.058 0 0 1 .47.245L.109.04C.097.033.093.024.097.016.099.014.101.011.105.009Z" fill="url(#J)" fill-rule="nonzero" transform="scale(-98.3887 98.3887) rotate(60.38 -1.263 -.36)"/><path d="M.53.019h.685l-.022-.038H.508L.53.019Z" fill="url(#K)" fill-rule="nonzero" transform="scale(-68.3683 68.3683) rotate(30 -4.237 -2.338)"/><path d="M.591-.212a.408.408 0 0 0-.184.318c0 .117.083.164.184.106a.407.407 0 0 0 .183-.318c0-.117-.082-.164-.183-.106Z" fill="url(#L)" fill-rule="nonzero" transform="scale(-68.3684 68.3684) rotate(-60 1.465 2.33)"/><path d="m.155.063.452-.309a.063.063 0 0 1 .057-.001l.315.151c.018.008.021.023.007.033L.534.245C.52.255.494.256.477.247L.161.096C.148.09.143.08.147.071A.03.03 0 0 1 .155.063Z" fill="url(#M)" fill-rule="nonzero" transform="scale(-91.1623 91.1623) rotate(64.33 -1.25 -1.393)"/><path d="M.255.019h.667L.9-.019H.234l.021.038Z" fill="url(#N)" fill-rule="nonzero" transform="scale(-70.258 70.258) rotate(30 -3.19 -4.6)"/><path d="M.197.019h.666L.842-.019H.175l.022.038Z" fill="url(#O)" fill-rule="nonzero" transform="scale(-70.258 70.258) rotate(30 -3.053 -4.535)"/><path d="M.587.078h.179l-.09-.156H.497l.09.156Z" fill="url(#P)" fill-rule="nonzero" transform="scale(-70.258 70.258) rotate(30 -2.793 -4.4)"/><path d="M.361.078H.54L.45-.078H.271l.09.156Z" fill="url(#Q)" fill-rule="nonzero" transform="scale(-70.2578 70.2578) rotate(29.996 -2.79 -4.41)"/><path d="M.135.078h.179L.225-.078H.046l.089.156Z" fill="url(#R)" fill-rule="nonzero" transform="scale(-70.2579 70.2579) rotate(30 -2.785 -4.417)"/><path d="m56.498 223.686-23.196 13.392c-1.691.976-4.672.853-6.625-.275L4.433 223.96c-1.953-1.127-2.166-2.848-.476-3.825l23.196-13.391c1.691-.977 4.673-.853 6.625.274l22.244 12.843c1.953 1.128 2.166 2.848.476 3.825" fill="#e5f2fe" fill-rule="nonzero"/><path d="m.027-.01.186-.124a.046.046 0 0 0 .016-.02l.32.158a.05.05 0 0 1-.016.021L.347.149C.34.153.333.153.328.15L.013-.007c.004.001.009 0 .014-.003Z" fill="url(#S)" fill-rule="nonzero" transform="scale(-119.9434 119.9434) rotate(63.614 -1.734 .526)"/><path d="M.964-.044c.01.004.015.016.014.032L.95.294a.095.095 0 0 1-.016.041L.517.04a.089.089 0 0 0 .015-.041L.56-.306C.561-.319.558-.329.553-.335l.411.291Z" fill="url(#T)" fill-rule="nonzero" transform="scale(-83.7366 83.7366) rotate(54.782 -2.623 .593)"/><path d="M39.571 218.268c0 9.931-6.97 13.955-15.57 8.99-8.6-4.965-15.572-17.04-15.571-26.969 0-9.93 6.971-13.956 15.57-8.99 8.6 4.965 15.57 17.04 15.571 26.969" fill="#007acd" fill-rule="nonzero"/><path d="M38.02 217.373c0 8.94-6.277 12.562-14.02 8.094-7.742-4.471-14.018-15.342-14.018-24.282s6.276-12.563 14.018-8.093c7.743 4.47 14.019 15.341 14.02 24.28" fill="#0081ed" fill-rule="nonzero"/><path d="M32.095 186.626c-4.32-2.495-8.229-2.719-11.049-1.066l-8.015 4.627v.001c2.814-1.603 6.689-1.36 10.969 1.111 8.6 4.965 15.571 17.04 15.571 26.97 0 4.941-1.727 8.42-4.521 10.056v-.001l8.014-4.627c2.842-1.617 4.602-5.113 4.602-10.101 0-9.931-6.971-22.005-15.571-26.97" fill="#00a2f9" fill-rule="nonzero"/><path d="M20.063 212.323c.661.027 1.355.177 2.072.415a10.109 10.109 0 0 1 1.512.642v-3.916l-4.199-2.425c.029 1.776.241 3.582.615 5.284m8.241-6.72a5.312 5.312 0 0 0 .429-.016c.505-.039.983-.15 1.425-.329-1.059-1.762-2.319-3.316-3.697-4.563.434.782.836 1.69 1.192 2.707.247.706.464 1.443.651 2.201m-5.42-7.286c-.774.012-1.488.535-2.076 1.545a7.58 7.58 0 0 0-.545 1.189 18.058 18.058 0 0 0 2.181 2.087c.395.318.776.596 1.203.87v-5.323c-.061-.034-.046-.025-.069-.036a10.395 10.395 0 0 0-.694-.332m-.635 15.229a7.031 7.031 0 0 0-1.986-.364c.16.626.342 1.234.546 1.819.587 1.69 1.302 3.037 2.076 3.943.229.165.461.323.692.468.023.015.009.008.07.044v-5.323a9.615 9.615 0 0 0-1.204-.521l-.194-.066m-.116-9.89a19.21 19.21 0 0 1-2.071-1.991c-.376 1.28-.589 2.856-.616 4.599l4.201 2.425v-3.928a14.143 14.143 0 0 1-1.514-1.105m-2.579-2.577a19.251 19.251 0 0 1-.516-.641 23.811 23.811 0 0 1-1.475-2.137c-1.575.951-2.477 2.842-2.558 5.399l3.891 2.247c.028-1.885.254-3.513.658-4.868m.204 12.111c-.077.004-.154.01-.23.019a4.657 4.657 0 0 0-1.498.409c.992 1.585 2.184 3.039 3.511 4.237a17.426 17.426 0 0 1-1.193-2.708c-.22-.63-.417-1.285-.59-1.957m-.538-.837c.11-.012.221-.027.334-.031a27.945 27.945 0 0 1-.657-5.601l-3.89-2.246c.091 2.728 1.036 5.668 2.547 8.329a4.962 4.962 0 0 1 1.484-.427c.062-.008.124-.019.182-.024m.307-12.176c.076.096.153.19.23.284.173-.472.37-.901.59-1.276.356-.605.757-1.049 1.191-1.329-1.29-.323-2.482-.256-3.499.197a22.533 22.533 0 0 0 1.488 2.124m8.971 17.1c.117.134.233.284.348.421l.185.225a23.01 23.01 0 0 1 1.6 2.207c1.403-.953 2.275-2.716 2.363-5.27l-3.891-2.246c-.028 1.813-.236 3.352-.605 4.663m-2.729-12.178a7.543 7.543 0 0 0 2.023.481c-.172-.7-.372-1.38-.599-2.032-.588-1.688-1.308-3.04-2.082-3.946-.23-.165-.468-.326-.698-.472l-.095-.058v5.34c.427.24.84.441 1.244.604.07.028.146.061.207.083m2.789 13.115a18.127 18.127 0 0 0-.254-.298 8.07 8.07 0 0 1-.651 1.449c-.356.606-.758 1.051-1.193 1.331 1.417.357 2.68.245 3.709-.278a21.98 21.98 0 0 0-1.611-2.204m.473-11.778a5.74 5.74 0 0 1-.533.015c.371 1.75.58 3.615.606 5.389l3.892 2.247c-.078-2.508-.914-5.349-2.374-8.023a5.078 5.078 0 0 1-1.591.372m-1.051-.017a8.245 8.245 0 0 1-2.122-.522l-.211-.084a12.33 12.33 0 0 1-1.33-.649v3.913l4.236 2.446a26.978 26.978 0 0 0-.573-5.104m-2.114 8.377c.729.563 1.438 1.2 2.117 1.918.346-1.241.542-2.744.57-4.417l-4.236-2.445v3.9c.427.253.898.561 1.33.884.08.059.159.113.219.16m1.923 2.55a17.34 17.34 0 0 0-2.227-2.009c-.404-.304-.818-.58-1.245-.834v5.341l.094.051c.232.121.469.234.699.334.774-.012 1.493-.532 2.081-1.542.227-.39.425-.84.598-1.341" fill="#fff" fill-rule="nonzero"/><path d="M199.606 199.317c-.197.088-.274.329-.292.667-.005.097 1.005-.58.968-.234-.011.099-.736 4.98.82 6.597.173.18.403.137.567.053l.425-.24c.495-.245.825-1.373 1.269-3.055.489-1.852.786-3.024-1.254-4.228-.583-.344-.92-.424-1.109-.321l-1.394.761Z" fill-rule="nonzero"/><path d="M203.363 203.106c-.592 2.237-.978 3.495-1.825 2.996-.847-.5-1.038-2.346-.749-4.514.254-1.9-.72-3.915 1.32-2.712 2.04 1.206 1.744 2.376 1.254 4.23" fill="#464769" fill-rule="nonzero"/><path d="m216.517 188.792-4.189 1.532-1.701 1.933s-3.016 1.264-5.386 3.758c0 0-.905 1.318-3.883 2.841 0 0-.006 2.083 1.857 2.419l11.938-6.872a3.009 3.009 0 0 0 1.492-2.288c.083-.773.084-1.852-.128-3.323" fill="#f79f63" fill-rule="nonzero"/><path d="M207.708 209.889c-.021.215.151.4.437.582.082.053-.011-1.159.271-.957.082.058 3.976 3.09 6.148 2.53.242-.062.319-.284.326-.468v-.489c.03-.551-.79-1.391-2.036-2.605-1.373-1.338-2.248-2.172-4.299-.989-.586.339-.822.592-.825.809l-.022 1.587Z" fill="#2e0562" fill-rule="nonzero"/><path d="M212.854 208.482c1.658 1.616 2.563 2.57 1.711 3.062-.852.492-2.553-.249-4.298-1.568-1.53-1.155-3.764-1.298-1.712-2.482 2.052-1.184 2.926-.35 4.299.988" fill="#464769" fill-rule="nonzero"/><path d="m211.188 207.711-.122-14.919-4.046 1.312-.04 2.718s-.382 3.249.623 6.538c0 0 .704 1.436.564 4.779 0 0 1.812 1.029 3.021-.428" fill="#ffbc83" fill-rule="nonzero"/><path d="M222.221 186.809a1.621 1.621 0 0 1-2.14-.804l-6.402-14.147a1.621 1.621 0 0 1 .804-2.14 1.62 1.62 0 0 1 2.139.805l6.403 14.147a1.62 1.62 0 0 1-.804 2.139" fill="#f79f63" fill-rule="nonzero"/><path d="M.226-.265h.876l-.306.53H-.08l.306-.53Z" fill="url(#U)" fill-rule="nonzero" transform="scale(13.22138 -13.22138) rotate(-30 -16.667 -36.532)"/><path d="M220.376 183.017v-6.134l.215.124v6.134l-.215-.124Zm-.485-2.096v-4.317l.215.124v4.317l-.215-.124Zm-.484 1.064v-5.661l.214.124v5.661l-.214-.124Zm-.486.192v-6.134l.215.124v6.134l-.215-.124Zm-.484-4.165v-2.247l.215.124v2.247l-.215-.124Z" fill="#a59bfe" fill-rule="nonzero"/><path d="M204.391 189.309v5.511s6.455 2.179 12.523-5.511v-5.331l-12.523 5.331Z" fill="#ffb300" fill-rule="nonzero"/><path d="M207.317 191.017a.45.45 0 0 0 .207.068c1.082.083 4.972-.763 8.863-5.149.321-.361.528-.852.528-1.262v-12.445c0-.938-.335-1.596-.874-1.899l-2.926-1.708c-.532-.316-1.272-.279-2.086.192l-3.99 2.304c-1.612.93-2.93 3.213-2.93 5.074v12.518c0 .292.104.506.282.599l2.926 1.708Z" fill="#fcffeb" fill-rule="nonzero"/><path d="M208.45 171.89c-.007.31.194.62.603.856.806.465 2.112.465 2.918 0 .409-.236.609-.546.603-.856v-2.711c.006-.31-.194-.62-.603-.856-.806-.465-2.112-.465-2.918 0-.409.236-.61.546-.603.856v2.711Z" fill="#f0a36c" fill-rule="nonzero"/><path d="M197.438 189.697a1.62 1.62 0 0 1-.713-2.171l7.035-13.943a1.621 1.621 0 0 1 2.172-.713 1.62 1.62 0 0 1 .713 2.171l-7.035 13.943a1.622 1.622 0 0 1-2.172.713" fill="#ffbc81" fill-rule="nonzero"/><path d="m215.761 163.306 2.04 7.917a.924.924 0 0 1-1.25 1.083l-4.694-1.953a.923.923 0 0 1-.551-1.031l1.538-7.787c.163-.827 1.254-1.022 1.693-.304l1.118 1.823a.917.917 0 0 1 .106.252m-7.143 4.739c0 .678-.476.952-1.062.613-.586-.338-1.063-1.162-1.062-1.84 0-.677.475-.951 1.062-.613.586.339 1.061 1.163 1.062 1.84" fill="#06d372" fill-rule="nonzero"/><path d="M216.168 164.813a5.681 5.681 0 1 1-11.363.001 5.681 5.681 0 0 1 11.363-.001" fill="#ffbc81" fill-rule="nonzero"/><path d="M204.964 165.57s4.8 2.634 7.141-4.215c0 0 1.25 2.893 4.374 2.254 0 0 0-4.503-4.649-5.377 0 0-8.218-.82-6.866 7.338" fill="#06d372" fill-rule="nonzero"/><path d="m207.609 165.796 2.039 7.917a.923.923 0 0 1-1.249 1.083l-4.694-1.953a.923.923 0 0 1-.552-1.031l1.538-7.788c.163-.826 1.255-1.021 1.694-.303l1.117 1.823a.952.952 0 0 1 .107.252" fill="#06d372" fill-rule="nonzero"/><path d="M162.254 190.096c-.039.662.961 1.592 2.483 2.47 2.024 1.169 2.742 2.65 5.244 1.205.716-.413 1.016-.742 1.033-1.029v-1.556c.07-.724-1.665-1.174-3.12-2.014-2.025-1.169-4.205-1.805-5.244-1.205-.264.152-.389.348-.396.572v1.557Z" fill-rule="nonzero"/><path d="M164.737 190.994c-2.025-1.17-3.127-2.428-2.087-3.027 1.039-.6 3.22.036 5.244 1.204 2.025 1.17 4.59 1.584 2.087 3.027-2.502 1.445-3.22-.036-5.244-1.204" fill="#2e0562" fill-rule="nonzero"/><path d="M167.88 186.22c-.038.662.962 1.591 2.483 2.47 2.025 1.169 2.743 2.649 5.245 1.205.715-.413 1.015-.742 1.033-1.029v-1.556c.07-.724-1.665-1.174-3.12-2.014-2.025-1.169-4.205-1.805-5.245-1.205-.263.152-.388.348-.396.572v1.557Z" fill-rule="nonzero"/><path d="M170.363 187.117c-2.024-1.168-3.126-2.427-2.086-3.027 1.039-.6 3.22.037 5.243 1.205 2.026 1.17 4.59 1.584 2.088 3.027-2.502 1.444-3.22-.036-5.245-1.205" fill="#2e0562" fill-rule="nonzero"/><path d="M165.654 139.743a1.667 1.667 0 0 1 2.291.522l6.907 10.985a1.666 1.666 0 0 1-.522 2.291 1.665 1.665 0 0 1-2.29-.522l-6.907-10.985a1.666 1.666 0 0 1 .521-2.291" fill="#ffbeb8" fill-rule="nonzero"/><path d="m170.183 151.772 2.229 3.544a2.576 2.576 0 0 0 3.542.808 2.576 2.576 0 0 0 .807-3.543l-2.228-3.545s-2.793-1.051-4.35 2.736" fill="#1d337a" fill-rule="nonzero"/><path d="M170.942 190.476a1.08 1.08 0 0 0 .116-.503v-17.361c0-1.098-1.132-1.995-2.515-1.995-1.384 0-2.516.897-2.516 1.995v18.878c0 .278.181.526.447.606.965.292 3.253.709 4.468-1.62m5.642-4.069c.077-.156.108-.332.105-.506l-.38-17.356c-.024-1.098-1.175-1.971-2.559-1.941-1.383.031-2.495.953-2.471 2.051l.413 18.872a.634.634 0 0 0 .46.598c.972.27 3.269.637 4.432-1.718" fill="#00ceff" fill-rule="nonzero"/><path d="M166.856 175.733a.46.46 0 0 0 .213.07c1.112.086 5.111-.784 9.111-5.293.329-.371.542-.875.542-1.297v-12.792c0-.965-.345-1.641-.898-1.954l-3.008-1.755c-.547-.325-1.307-.286-2.144.197l-4.102 2.369c-1.656.956-3.012 3.304-3.012 5.216v12.869c0 .3.108.519.29.615l3.008 1.755Z" fill="#4f57aa" fill-rule="nonzero"/><path d="M168.021 156.072c-.006.318.2.637.62.88.828.478 2.172.478 3 0 .42-.243.626-.562.62-.88v-2.787c.006-.318-.2-.638-.62-.88-.828-.479-2.172-.479-3 0-.42.242-.626.562-.62.88v2.787Z" fill="#ffbc83" fill-rule="nonzero"/><path d="M175.981 148.838a5.84 5.84 0 1 1-11.68 0 5.84 5.84 0 0 1 11.68 0m-15.955 25.826a1.666 1.666 0 0 1-1.036-2.108l4.392-11.876a1.668 1.668 0 0 1 2.11-1.036 1.667 1.667 0 0 1 1.035 2.109l-4.393 11.875a1.666 1.666 0 0 1-2.108 1.036" fill="#ffbeb8" fill-rule="nonzero"/><path d="m166.727 163.981 1.353-3.963a2.578 2.578 0 0 0-1.603-3.261 2.578 2.578 0 0 0-3.262 1.603l-1.351 3.962s.941 2.832 4.863 1.659" fill="#1d337a" fill-rule="nonzero"/><path d="M173.433 154.163c-1.842 1.073-3.25.258-3.75-.52-1.26-1.954-1.469-.65-2.22-1.57-.984-1.617-.763-3.821-2.129-4.84-1.959-1.462-1.422-4.372 3.687-5.675 6.865-1.75 9.569 6.899 5.285 11.899-.307.358-.465.468-.873.706" fill="#f9a800"/><path d="M168.1 152.317c-.491.492-1.038.346-1.218-.328-.18-.672.072-1.616.566-2.11.492-.491 1.037-.345 1.217.328.181.672-.072 1.617-.565 2.11m-29.755 68.904a1.476 1.476 0 0 1-2.053-.354l-6.635-9.396a1.477 1.477 0 0 1 .353-2.052 1.477 1.477 0 0 1 2.053.354l6.636 9.395a1.48 1.48 0 0 1-.354 2.053" fill="#ffbeb8" fill-rule="nonzero"/><path d="m133.766 210.788-2.141-3.031a2.283 2.283 0 0 0-3.174-.547 2.284 2.284 0 0 0-.547 3.175l2.141 3.031s2.523.798 3.721-2.628" fill="#b7cffc" fill-rule="nonzero"/><path d="M126.29 222.826c.084.13.202.234.336.312l7.75 4.433c.844.484 2.034.01 2.644-1.054.611-1.063.419-2.33-.424-2.814l-8.916-5.104a.562.562 0 0 0-.664.077c-.651.613-1.981 2.188-.726 4.15m-5.132 2.628a.967.967 0 0 0 .336.312l7.75 4.433c.844.484 2.034.011 2.644-1.054.611-1.063.419-2.33-.424-2.814l-8.916-5.103a.56.56 0 0 0-.664.077c-.651.612-1.981 2.187-.726 4.149" fill="#4f57aa" fill-rule="nonzero"/><path d="M133.281 238.794c-.064.643 1.475 1.042 2.766 1.787 1.795 1.036 3.727 1.601 4.648 1.068.233-.134.344-.306.352-.505v-1.054c.032-.596-.855-1.505-2.202-2.817-1.484-1.447-2.43-2.35-4.648-1.069-.635.366-.889.64-.892.873l-.024 1.717Z" fill-rule="nonzero"/><path d="M138.846 237.273c1.793 1.746 2.771 2.778 1.85 3.31-.92.532-2.76-.268-4.649-1.696-1.653-1.248-4.067-1.403-1.85-2.682 2.218-1.282 3.165-.379 4.649 1.068" fill="#161636" fill-rule="nonzero"/><path d="M137.411 236.005a.973.973 0 0 0 .103-.446v-10.367c0-.974-1.003-1.77-2.23-1.77s-2.23.796-2.23 1.77v11.711c0 .248.16.466.396.539.856.258 2.884.627 3.961-1.437" fill="#4f57aa" fill-rule="nonzero"/><path d="M121.93 226.359a.396.396 0 0 0 .188.062c.986.077 4.531-.695 8.077-4.692.293-.329.481-.775.481-1.149v-11.341c0-.855-.306-1.454-.797-1.732l-2.667-1.555c-.484-.288-1.158-.254-1.899.175l-3.637 2.099c-1.469.848-2.67 2.929-2.67 4.624v11.407c0 .266.095.461.257.546l2.667 1.556Z" fill="#fcfdff" fill-rule="nonzero"/><path d="M127.967 241.143c-.064.643 1.475 1.041 2.767 1.787 1.794 1.036 3.727 1.6 4.648 1.068.232-.134.344-.306.351-.505v-1.054c.032-.597-.855-1.506-2.202-2.818-1.484-1.447-2.43-2.349-4.648-1.069-.634.366-.889.641-.892.874l-.024 1.717Z" fill-rule="nonzero"/><path d="M133.53 239.62c1.794 1.748 2.772 2.78 1.852 3.313-.921.53-2.76-.27-4.649-1.697-1.653-1.248-4.07-1.402-1.85-2.683 2.217-1.282 3.164-.378 4.648 1.068" fill="#161636" fill-rule="nonzero"/><path d="M132.097 238.354a.962.962 0 0 0 .104-.446V227.54c0-.973-1.004-1.769-2.231-1.769-1.227 0-2.229.796-2.229 1.769v11.711a.56.56 0 0 0 .396.539c.856.258 2.884.628 3.96-1.436" fill="#4f57aa" fill-rule="nonzero"/><path d="M122.332 208.93c-.005.281.178.564.55.779.734.424 1.925.424 2.659 0 .373-.215.556-.498.55-.779v-2.472c.006-.282-.177-.564-.55-.779-.734-.425-1.925-.425-2.659 0-.372.215-.555.497-.55.779v2.472Z" fill="#ffbc83" fill-rule="nonzero"/><path d="M129.389 202.518a5.178 5.178 0 1 1-10.354-.002 5.178 5.178 0 0 1 10.354.002" fill="#ffbeb8" fill-rule="nonzero"/><path d="M121.433 206.575c.335-.337.856-.956 1.067-1.726a.445.445 0 0 0 .017-.126v-2.478c0-.492.118-.983.379-1.402.22-.356.547-.67 1.009-.643 0 0 4.155 1.811 5.71-1.572a.456.456 0 0 0-.297-.635c-.297-.07-.69-.326-1.123-1.032a.457.457 0 0 0-.492-.213c-.406.098-1.15.122-1.864-.687a.45.45 0 0 0-.343-.146c-.79.015-3.524.148-5.012 1.223a.26.26 0 0 0-.031.025c-.32.263-5.46 4.643.365 9.437.182.15.449.142.615-.025" fill="#0080ff" fill-rule="nonzero"/><path d="M122.482 205.426c0 .617-.433.869-.968.56-.534-.31-.968-1.06-.968-1.678 0-.616.433-.867.968-.559.535.31.968 1.06.968 1.677" fill="#ffbeb8" fill-rule="nonzero"/><path d="m137.175 223.125-9.23 5.31-7.078-3.86 9.446-5.404 6.862 3.954Z" fill="#babfb6" fill-rule="nonzero"/><path d="m137.175 223.125 1.45-9.253-10.243 5.906-.436 8.657 9.229-5.31Z" fill="#e9eef2" fill-rule="nonzero"/><path d="M129.099 224.704a1.477 1.477 0 0 1-2.054-.345l-6.675-9.369a1.478 1.478 0 0 1 .345-2.054 1.479 1.479 0 0 1 2.054.345l6.675 9.369a1.479 1.479 0 0 1-.345 2.054" fill="#ffbeb8" fill-rule="nonzero"/><path d="m124.198 214.7-1.859-3.212a2.286 2.286 0 0 0-3.114-.83 2.284 2.284 0 0 0-.829 3.112l1.86 3.212s2.44 1.022 3.942-2.282" fill="#b7cffc" fill-rule="nonzero"/><path d="M260.901 192.22a1.563 1.563 0 0 0 1.808-1.26l1.134-6.347a1.561 1.561 0 0 0-1.258-1.808 1.562 1.562 0 0 0-1.808 1.259l-1.136 6.348a1.563 1.563 0 0 0 1.26 1.808" fill="#ffbc81" fill-rule="nonzero"/><path d="m259.602 185.802.69-3.865a2.416 2.416 0 0 1 2.796-1.947 2.416 2.416 0 0 1 1.949 2.795l-.692 3.865s-2.058 1.896-4.743-.848" fill="#007417" fill-rule="nonzero"/><path d="M253.934 192.774a1.564 1.564 0 0 0 1.954 1.019l5.376-1.568c.855-.055 1.51-.8 1.454-1.654a1.562 1.562 0 0 0-1.654-1.455l-6.111 1.705a1.562 1.562 0 0 0-1.019 1.953" fill="#ffbc81" fill-rule="nonzero"/><path d="M270.679 217.516c.068.68-1.561 1.102-2.926 1.89-1.898 1.096-3.943 1.693-4.918 1.131-.246-.143-.363-.326-.371-.536v-1.114c-.034-.632.904-1.593 2.328-2.981 1.571-1.531 2.572-2.485 4.918-1.13.671.386.94.677.943.924l.026 1.816Z" fill-rule="nonzero"/><path d="M264.792 215.906c-1.895 1.848-2.931 2.94-1.957 3.503.975.561 2.922-.285 4.918-1.794 1.75-1.32 4.305-1.484 1.958-2.839-2.347-1.355-3.349-.4-4.919 1.13" fill="#161636" fill-rule="nonzero"/><path d="M266.31 214.565a1.028 1.028 0 0 1-.108-.472v-16.28c0-1.029 1.061-1.871 2.358-1.871 1.298 0 2.359.842 2.359 1.871v17.702a.594.594 0 0 1-.42.57c-.904.273-3.049.665-4.189-1.52" fill="#44446e" fill-rule="nonzero"/><path d="M265.573 213.751c.067.68-1.561 1.103-2.927 1.891-1.897 1.095-3.942 1.692-4.917 1.13-.246-.143-.363-.325-.371-.535v-1.115c-.034-.631.903-1.593 2.328-2.98 1.571-1.531 2.572-2.486 4.918-1.131.67.387.94.677.943.925l.026 1.815Z" fill-rule="nonzero"/><path d="M259.686 212.141c-1.896 1.849-2.932 2.94-1.957 3.503.976.562 2.92-.284 4.918-1.794 1.748-1.32 4.303-1.484 1.958-2.839-2.348-1.354-3.348-.4-4.919 1.13" fill="#161636" fill-rule="nonzero"/><path d="M261.204 210.801a1.02 1.02 0 0 1-.109-.473v-16.279c0-1.029 1.061-1.871 2.359-1.871 1.297 0 2.358.842 2.358 1.871v17.702a.596.596 0 0 1-.419.57c-.904.273-3.05.665-4.189-1.52" fill="#29294f" fill-rule="nonzero"/><path d="M270.141 200.74a.417.417 0 0 1-.199.066c-1.043.081-4.792-.736-8.544-4.963-.309-.348-.508-.821-.508-1.216V182.63c0-.905.323-1.538.842-1.831l2.821-1.646c.513-.306 1.226-.268 2.01.185l3.847 2.22c1.553.897 2.824 3.098 2.824 4.892v12.067c0 .282-.101.488-.272.577l-2.821 1.646Z" fill="#00a625" fill-rule="nonzero"/><path d="M269.05 182.304c.006.298-.187.598-.582.825-.776.448-2.036.448-2.813 0-.394-.227-.587-.527-.582-.825v-2.614c-.005-.298.188-.598.582-.825.777-.449 2.037-.449 2.813 0 .395.227.588.527.582.825v2.614Z" fill="#faa29d" fill-rule="nonzero"/><path d="M261.584 175.52a5.477 5.477 0 1 0 10.954 0 5.477 5.477 0 0 0-10.954 0" fill="#ffbeb8" fill-rule="nonzero"/><path d="M271.631 169.044c4.68 1.606 2.353 8.442-1.051 10.907-1.665-.909.36-2.537-1.911-1.404-.452-2.201.564-1.531-.053-4.299-2.379 1.241-7.011-.264-7.73-2.557.828-.368 1.697-2.722 3.636-3.585 2.495-1.112 5.689-.622 7.109.938" fill="#00a2f9"/><path d="M268.892 178.597c-.001.653.458.918 1.023.59.566-.325 1.025-1.119 1.025-1.772 0-.654-.459-.919-1.025-.592-.565.327-1.024 1.121-1.023 1.774" fill="#ffbeb8" fill-rule="nonzero"/><path d="m270.911 192.783-8.574 4.951-8.574-4.95v-3.771l8.574-4.95 8.574 4.95v3.77Z" fill="#babfb6"/><path d="m262.337 184.063 8.574 4.95-8.575 4.852-8.573-4.852 8.574-4.95Z" fill="#e9eef2"/><path d="M270.651 196.03a1.564 1.564 0 0 0 1.763-1.321l.912-6.385a1.562 1.562 0 0 0-1.322-1.762 1.56 1.56 0 0 0-1.762 1.322l-.913 6.383a1.562 1.562 0 0 0 1.322 1.763" fill="#ffbc81" fill-rule="nonzero"/><path d="m269.127 189.662.556-3.887a2.417 2.417 0 0 1 2.726-2.045 2.417 2.417 0 0 1 2.044 2.727l-.555 3.887s-1.992 1.966-4.771-.682" fill="#007417" fill-rule="nonzero"/><path d="M262.023 197.472a1.561 1.561 0 0 0 1.987.949l7.003-2.398a1.562 1.562 0 0 0 1.396-1.704 1.563 1.563 0 0 0-1.705-1.396l-7.732 2.561a1.562 1.562 0 0 0-.949 1.988" fill="#ffbc81" fill-opacity=".97" fill-rule="nonzero"/><defs><linearGradient id="a" x1="0" y1="0" x2="1" y2="0" gradientUnits="userSpaceOnUse" gradientTransform="scale(1 -1)"><stop offset="0" stop-color="#dff2ff"/><stop offset="1" stop-color="#b7cffc" stop-opacity="0"/></linearGradient><linearGradient id="b" x1="0" y1="0" x2="1" y2="0" gradientUnits="userSpaceOnUse" gradientTransform="scale(1 -1)"><stop offset="0" stop-color="#dff2ff"/><stop offset="1" stop-color="#b7cffc" stop-opacity="0"/></linearGradient><linearGradient id="c" x1="0" y1="0" x2="1" y2="0" gradientUnits="userSpaceOnUse" gradientTransform="scale(1 -1)"><stop offset="0" stop-color="#dff2ff"/><stop offset="1" stop-color="#b7cffc" stop-opacity="0"/></linearGradient><linearGradient id="d" x1="0" y1="0" x2="1" y2="0" gradientUnits="userSpaceOnUse" gradientTransform="scale(1 -1)"><stop offset="0" stop-color="#dff2ff"/><stop offset="1" stop-color="#b7cffc" stop-opacity="0"/></linearGradient><linearGradient id="e" x1="0" y1="0" x2="1" y2="0" gradientUnits="userSpaceOnUse" gradientTransform="matrix(1 0 0 -1 0 -.001)"><stop offset="0" stop-color="#dff2ff"/><stop offset="1" stop-color="#b7cffc"/><stop offset="1" stop-color="#b7cffc"/></linearGradient><linearGradient id="f" x1="0" y1="0" x2="1" y2="0" gradientUnits="userSpaceOnUse" gradientTransform="scale(1 -1)"><stop offset="0" stop-color="#dff2ff"/><stop offset="1" stop-color="#b7cffc"/><stop offset="1" stop-color="#b7cffc"/></linearGradient><linearGradient id="g" x1="0" y1="0" x2="1" y2="0" gradientUnits="userSpaceOnUse" gradientTransform="matrix(1 0 0 -1 0 -.001)"><stop offset="0" stop-color="#dff2ff"/><stop offset="1" stop-color="#b7cffc"/><stop offset="1" stop-color="#b7cffc"/></linearGradient><linearGradient id="h" x1="0" y1="0" x2="1" y2="0" gradientUnits="userSpaceOnUse" gradientTransform="scale(1 -1)"><stop offset="0" stop-color="#dff2ff"/><stop offset="1" stop-color="#b7cffc"/><stop offset="1" stop-color="#b7cffc"/></linearGradient><linearGradient id="i" x1="0" y1="0" x2="1" y2="0" gradientUnits="userSpaceOnUse" gradientTransform="scale(1 -1)"><stop offset="0" stop-color="#dff2ff"/><stop offset="1" stop-color="#b7cffc"/><stop offset="1" stop-color="#b7cffc"/></linearGradient><linearGradient id="j" x1="0" y1="0" x2="1" y2="0" gradientUnits="userSpaceOnUse" gradientTransform="scale(1 -1)"><stop offset="0" stop-color="#dff2ff"/><stop offset="1" stop-color="#b7cffc"/><stop offset="1" stop-color="#b7cffc"/></linearGradient><linearGradient id="k" x1="0" y1="0" x2="1" y2="0" gradientUnits="userSpaceOnUse" gradientTransform="matrix(1 0 0 -1 0 -.002)"><stop offset="0" stop-color="#dff2ff"/><stop offset="1" stop-color="#b7cffc"/><stop offset="1" stop-color="#b7cffc"/></linearGradient><linearGradient id="l" x1="0" y1="0" x2="1" y2="0" gradientUnits="userSpaceOnUse" gradientTransform="matrix(1 0 0 -1 0 -.005)"><stop offset="0" stop-color="#dff2ff"/><stop offset="1" stop-color="#b7cffc"/><stop offset="1" stop-color="#b7cffc"/></linearGradient><linearGradient id="m" x1="0" y1="0" x2="1" y2="0" gradientUnits="userSpaceOnUse" gradientTransform="scale(1 -1) rotate(45.35 .154 0)"><stop offset="0" stop-color="#dff2ff"/><stop offset="1" stop-color="#b7cffc"/><stop offset="1" stop-color="#b7cffc"/></linearGradient><linearGradient id="n" x1="0" y1="0" x2="1" y2="0" gradientUnits="userSpaceOnUse" gradientTransform="scale(-1 1) rotate(-13.837 0 6.835)"><stop offset="0" stop-color="#dff2ff"/><stop offset="1" stop-color="#b7cffc"/><stop offset="1" stop-color="#b7cffc"/></linearGradient><linearGradient id="o" x1="0" y1="0" x2="1" y2="0" gradientUnits="userSpaceOnUse" gradientTransform="matrix(1 0 0 -1 0 -.024)"><stop offset="0" stop-color="#dff2ff"/><stop offset="1" stop-color="#b7cffc"/><stop offset="1" stop-color="#b7cffc"/></linearGradient><linearGradient id="p" x1="0" y1="0" x2="1" y2="0" gradientUnits="userSpaceOnUse" gradientTransform="scale(1 -1)"><stop offset="0" stop-color="#dff2ff"/><stop offset="1" stop-color="#b7cffc"/><stop offset="1" stop-color="#b7cffc"/></linearGradient><linearGradient id="q" x1="0" y1="0" x2="1" y2="0" gradientUnits="userSpaceOnUse" gradientTransform="scale(1 -1)"><stop offset="0" stop-color="#050a39"/><stop offset="1" stop-color="#252dd6"/><stop offset="1" stop-color="#252dd6"/></linearGradient><linearGradient id="r" x1="0" y1="0" x2="1" y2="0" gradientUnits="userSpaceOnUse" gradientTransform="matrix(1 0 0 -1 0 .002)"><stop offset="0" stop-color="#dff2ff"/><stop offset="1" stop-color="#b7cffc"/><stop offset="1" stop-color="#b7cffc"/></linearGradient><linearGradient id="s" x1="0" y1="0" x2="1" y2="0" gradientUnits="userSpaceOnUse" gradientTransform="scale(1 -1)"><stop offset="0" stop-color="#dff2ff"/><stop offset="1" stop-color="#b7cffc"/><stop offset="1" stop-color="#b7cffc"/></linearGradient><linearGradient id="t" x1="0" y1="0" x2="1" y2="0" gradientUnits="userSpaceOnUse" gradientTransform="matrix(1 0 0 -1 0 -.002)"><stop offset="0" stop-color="#dff2ff"/><stop offset="1" stop-color="#b7cffc"/><stop offset="1" stop-color="#b7cffc"/></linearGradient><linearGradient id="u" x1="0" y1="0" x2="1" y2="0" gradientUnits="userSpaceOnUse" gradientTransform="matrix(0 1 1 0 .5 -.5)"><stop offset="0" stop-color="#fcfdff"/><stop offset="1" stop-color="#f0ff00"/><stop offset="1" stop-color="#f0ff00"/></linearGradient><linearGradient id="v" x1="0" y1="0" x2="1" y2="0" gradientUnits="userSpaceOnUse" gradientTransform="matrix(0 1 1 0 .5 -.5)"><stop offset="0" stop-color="#fcfdff"/><stop offset="1" stop-color="#f0ff00"/><stop offset="1" stop-color="#f0ff00"/></linearGradient><linearGradient id="w" x1="0" y1="0" x2="1" y2="0" gradientUnits="userSpaceOnUse" gradientTransform="matrix(0 1 1 0 .5 -.5)"><stop offset="0" stop-color="#fcfdff"/><stop offset="1" stop-color="#f0ff00"/><stop offset="1" stop-color="#f0ff00"/></linearGradient><linearGradient id="x" x1="0" y1="0" x2="1" y2="0" gradientUnits="userSpaceOnUse" gradientTransform="scale(-1 1) rotate(58.426 0 -1.291)"><stop offset="0" stop-color="#fcfdff"/><stop offset="1" stop-color="#ff2276"/><stop offset="1" stop-color="#ff2276"/></linearGradient><linearGradient id="y" x1="0" y1="0" x2="1" y2="0" gradientUnits="userSpaceOnUse" gradientTransform="scale(-1 1) rotate(58.426 0 -1.443)"><stop offset="0" stop-color="#fcfdff"/><stop offset="1" stop-color="#ff2276"/><stop offset="1" stop-color="#ff2276"/></linearGradient><linearGradient id="z" x1="0" y1="0" x2="1" y2="0" gradientUnits="userSpaceOnUse" gradientTransform="scale(-1 1) rotate(58.426 0 -1.596)"><stop offset="0" stop-color="#fcfdff"/><stop offset="1" stop-color="#ff2276"/><stop offset="1" stop-color="#ff2276"/></linearGradient><linearGradient id="A" x1="0" y1="0" x2="1" y2="0" gradientUnits="userSpaceOnUse" gradientTransform="scale(-1 1) rotate(58.426 0 -.602)"><stop offset="0" stop-color="#fcfdff"/><stop offset="1" stop-color="#ff2276"/><stop offset="1" stop-color="#ff2276"/></linearGradient><linearGradient id="B" x1="0" y1="0" x2="1" y2="0" gradientUnits="userSpaceOnUse" gradientTransform="scale(-1 1) rotate(58.426 0 -.754)"><stop offset="0" stop-color="#fcfdff"/><stop offset="1" stop-color="#ff2276"/><stop offset="1" stop-color="#ff2276"/></linearGradient><linearGradient id="C" x1="0" y1="0" x2="1" y2="0" gradientUnits="userSpaceOnUse" gradientTransform="scale(-1 1) rotate(58.426 0 -.907)"><stop offset="0" stop-color="#fcfdff"/><stop offset="1" stop-color="#ff2276"/><stop offset="1" stop-color="#ff2276"/></linearGradient><linearGradient id="D" x1="0" y1="0" x2="1" y2="0" gradientUnits="userSpaceOnUse" gradientTransform="scale(1 -1) rotate(55.864 .695 0)"><stop offset="0" stop-color="#fcfdff"/><stop offset="1" stop-color="#f0ff00"/><stop offset="1" stop-color="#f0ff00"/></linearGradient><linearGradient id="E" x1="0" y1="0" x2="1" y2="0" gradientUnits="userSpaceOnUse" gradientTransform="scale(1 -1) rotate(55.864 .774 0)"><stop offset="0" stop-color="#fcfdff"/><stop offset="1" stop-color="#f0ff00"/><stop offset="1" stop-color="#f0ff00"/></linearGradient><linearGradient id="F" x1="0" y1="0" x2="1" y2="0" gradientUnits="userSpaceOnUse" gradientTransform="scale(1 -1) rotate(55.864 .852 0)"><stop offset="0" stop-color="#fcfdff"/><stop offset="1" stop-color="#f0ff00"/><stop offset="1" stop-color="#f0ff00"/></linearGradient><linearGradient id="G" x1="0" y1="0" x2="1" y2="0" gradientUnits="userSpaceOnUse" gradientTransform="scale(1 -1) rotate(55.864 .365 0)"><stop offset="0" stop-color="#fcfdff"/><stop offset="1" stop-color="#f0ff00"/><stop offset="1" stop-color="#f0ff00"/></linearGradient><linearGradient id="H" x1="0" y1="0" x2="1" y2="0" gradientUnits="userSpaceOnUse" gradientTransform="scale(1 -1) rotate(55.864 .444 0)"><stop offset="0" stop-color="#fcfdff"/><stop offset="1" stop-color="#f0ff00"/><stop offset="1" stop-color="#f0ff00"/></linearGradient><linearGradient id="I" x1="0" y1="0" x2="1" y2="0" gradientUnits="userSpaceOnUse" gradientTransform="scale(1 -1) rotate(55.864 .522 0)"><stop offset="0" stop-color="#fcfdff"/><stop offset="1" stop-color="#f0ff00"/><stop offset="1" stop-color="#f0ff00"/></linearGradient><linearGradient id="J" x1="0" y1="0" x2="1" y2="0" gradientUnits="userSpaceOnUse" gradientTransform="scale(1 -1)"><stop offset="0" stop-color="#dff2ff"/><stop offset="1" stop-color="#b7cffc" stop-opacity="0"/></linearGradient><linearGradient id="K" x1="0" y1="0" x2="1" y2="0" gradientUnits="userSpaceOnUse" gradientTransform="scale(1 -1) rotate(-29.771 .862 0)"><stop offset="0" stop-color="#dff2ff"/><stop offset="1" stop-color="#b7cffc"/><stop offset="1" stop-color="#b7cffc"/></linearGradient><linearGradient id="L" x1="0" y1="0" x2="1" y2="0" gradientUnits="userSpaceOnUse" gradientTransform="scale(-1 1) rotate(60.229 0 -1.019)"><stop offset="0" stop-color="#dff2ff"/><stop offset="1" stop-color="#b7cffc"/><stop offset="1" stop-color="#b7cffc"/></linearGradient><linearGradient id="M" x1="0" y1="0" x2="1" y2="0" gradientUnits="userSpaceOnUse" gradientTransform="scale(1 -1)"><stop offset="0" stop-color="#dff2ff"/><stop offset="1" stop-color="#b7cffc" stop-opacity="0"/></linearGradient><linearGradient id="N" x1="0" y1="0" x2="1" y2="0" gradientUnits="userSpaceOnUse" gradientTransform="scale(1 -1) rotate(-11.444 .578 0)"><stop offset="0" stop-color="#dff2ff"/><stop offset="1" stop-color="#b7cffc"/><stop offset="1" stop-color="#b7cffc"/></linearGradient><linearGradient id="O" x1="0" y1="0" x2="1" y2="0" gradientUnits="userSpaceOnUse" gradientTransform="scale(1 -1) rotate(-11.444 .52 0)"><stop offset="0" stop-color="#dff2ff"/><stop offset="1" stop-color="#b7cffc"/><stop offset="1" stop-color="#b7cffc"/></linearGradient><linearGradient id="P" x1="0" y1="0" x2="1" y2="0" gradientUnits="userSpaceOnUse" gradientTransform="scale(1 -1) rotate(-11.444 .631 0)"><stop offset="0" stop-color="#dff2ff"/><stop offset="1" stop-color="#b7cffc"/><stop offset="1" stop-color="#b7cffc"/></linearGradient><linearGradient id="Q" x1="0" y1="0" x2="1" y2="0" gradientUnits="userSpaceOnUse" gradientTransform="scale(1 -1) rotate(-11.448 .406 0)"><stop offset="0" stop-color="#dff2ff"/><stop offset="1" stop-color="#b7cffc"/><stop offset="1" stop-color="#b7cffc"/></linearGradient><linearGradient id="R" x1="0" y1="0" x2="1" y2="0" gradientUnits="userSpaceOnUse" gradientTransform="scale(1 -1) rotate(-11.444 .18 0)"><stop offset="0" stop-color="#dff2ff"/><stop offset="1" stop-color="#b7cffc"/></linearGradient><linearGradient id="S" x1="0" y1="0" x2="1" y2="0" gradientUnits="userSpaceOnUse" gradientTransform="matrix(1 0 0 -1 0 -.001)"><stop offset="0" stop-color="#dff2ff"/><stop offset="1" stop-color="#b7cffc"/><stop offset="1" stop-color="#b7cffc"/></linearGradient><linearGradient id="T" x1="0" y1="0" x2="1" y2="0" gradientUnits="userSpaceOnUse" gradientTransform="scale(1 -1)"><stop offset="0" stop-color="#dff2ff"/><stop offset="1" stop-color="#b7cffc"/><stop offset="1" stop-color="#b7cffc"/></linearGradient><linearGradient id="U" x1="0" y1="0" x2="1" y2="0" gradientUnits="userSpaceOnUse" gradientTransform="scale(-1 1) rotate(-8.682 0 6.734)"><stop offset="0" stop-color="#e8eaff"/><stop offset="1" stop-color="#c1c1f8"/><stop offset="1" stop-color="#c1c1f8"/></linearGradient></defs></svg>