<svg viewBox="0 0 160 140" xmlns="http://www.w3.org/2000/svg" xml:space="preserve" fill-rule="evenodd" clip-rule="evenodd" stroke-linejoin="round" stroke-miterlimit="2"><ellipse cx="80" cy="124.61" rx="66.95" ry="15.39" fill="#06d372"/><path d="M15.78 41.37c2.7-.6 2.2 3.79 2.01 4.96.9.5 1.68 1.02 2.36 1.56-.32-1.41-1.42-2.22-1.37-3.17.07-1.06.8-2.12 1.98-.62.94 1.2.06 3.21-.35 4 1.16.95 1.99 1.89 2.55 2.63-.15-1.68-1.32-2.76-1.14-3.83.19-1.17 1.11-2.25 2.23-.4.93 1.52-.41 3.75-.9 4.48.49.7.73 1.17.75 1.22.48.94.9 1.88 1.25 2.8-.1-1.48-.91-2.62-.63-3.57.33-1.13 1.37-2.06 2.24-.04.69 1.6-.74 3.51-1.37 4.24a30 30 0 0 1 1.42 5.58c.36-1.35 0-3.51.71-4.63.47-.74 1.03-.76 1.42-.64.34.1.6.36.73.72.72 2.04-1.97 4.25-2.81 4.88.3 2.15.35 4.1.28 5.73.19-.7.47-1.74.6-2.3.2-.86.86-1.95 1.6-2.23l.08-.03c.56-.17 1.11.17 1.32.76.82 2.3-2.84 4.06-3.64 4.42v.03c-.29 4.1-1.3 6.72-1.34 6.83l-.35-.16c0-.02.97-2.5 1.28-6.34-3.22-1.6-3.43-4.14-2.7-4.8.75-.7 2.15-.55 2.23 1.26.04 1.05.3 2.12.52 2.84.1-1.64.06-3.63-.25-5.85-4.77-.37-4.11-3.69-2.97-4.12 1.14-.43 1.72.28 2.04 1.74.22.97.63 1.7.89 2.09-.26-1.72-.7-3.56-1.38-5.48-.76.5-2.77 1.65-3.96.47-1.48-1.48-.44-2.4.6-2.48.97-.07 1.79 1.38 3.26 1.73a29.98 29.98 0 0 0-1.4-3.23c-.02-.01-.49-.96-1.57-2.19-.7.6-2.58 2-3.9 1.01-1.65-1.24-.7-2.29.33-2.52.93-.2 1.88 1.03 3.32 1.23a16.28 16.28 0 0 0-4.09-3.2c-.74.63-2.56 1.95-3.85.98-1.65-1.24-.71-2.3.33-2.52.93-.21 1.9 1.06 3.37 1.23l.02-.04c-.4-.4-1.25-1.25-1.67-1.63-.57-.51-1.06-1.55-.89-2.36.17-.8.8-1.04.8-1.04" fill="#01025d" fill-rule="nonzero"/><path d="m11.46 62.55-5.38-2.07c-.65-4.09-.95-7.55-.95-7.55 6.63.8 11.58 3.26 15.29 6.47l.28 6.62 2.12-4.25c8.57 9.62 8.55 23.4 8.55 23.4S13.25 76.31 9.93 73.01c-1.28-1.28-2.29-4.56-3.04-8.12 1.94-.85 4.57-2.36 4.57-2.36" fill="#00c0ae" fill-rule="nonzero"/><path d="M5.13 52.93s20.5 18.95 26.24 32.23c0 0-18.12-8.84-21.44-12.14-1.28-1.28-2.29-4.56-3.04-8.12 1.94-.85 4.57-2.36 4.57-2.36l-5.38-2.06c-.65-4.09-.95-7.55-.95-7.55" fill="#00cdc1" fill-rule="nonzero"/><path d="M1.53 58.81c1.66-1.34 2.82 1.86 3.1 2.73.78.04 1.5.13 2.15.27-.7-.86-1.74-1.04-2.02-1.72-.33-.75-.18-1.74 1.15-1.1 1.05.5 1.14 2.2 1.13 2.88 1.12.25 2.01.62 2.66.94-.68-1.11-1.86-1.46-2.1-2.26-.27-.87 0-1.93 1.4-1.04 1.16.74 1 2.74.9 3.4.59.32.91.56.95.58.65.5 1.26 1 1.82 1.51-.57-.99-1.52-1.5-1.66-2.24-.16-.9.24-1.9 1.54-.8 1.02.87.69 2.68.5 3.4 1.15 1.1 2.1 2.24 2.9 3.35-.22-1.05-1.2-2.42-1.1-3.43.07-.67.45-.88.76-.93.26-.05.54.04.75.25 1.2 1.15.1 3.6-.27 4.32a23.38 23.38 0 0 1 2.16 3.86c-.1-.54-.27-1.36-.38-1.79-.16-.66-.07-1.64.34-2.08a.84.84 0 0 1 .05-.05c.33-.31.83-.27 1.17.06 1.35 1.3-.57 3.78-1 4.3l.02.03c1.2 2.93 1.4 5.07 1.4 5.16l-.28.02c0-.02-.2-2.07-1.3-4.82-2.76 0-3.78-1.68-3.5-2.39.28-.73 1.3-1.1 1.97.11.39.71.94 1.36 1.33 1.78-.5-1.16-1.2-2.53-2.18-3.95-3.41 1.38-4.1-1.13-3.46-1.82.64-.7 1.29-.4 2 .5.49.6 1.03.96 1.33 1.14a22.8 22.8 0 0 0-2.82-3.3c-.35.6-1.35 2.08-2.57 1.67-1.53-.51-1.13-1.5-.44-1.92.64-.38 1.7.35 2.84.08-.63-.6-1.32-1.18-2.08-1.74 0-.01-.66-.5-1.83-.98-.28.66-1.09 2.27-2.33 2.04-1.57-.3-1.28-1.34-.64-1.86.56-.46 1.65.07 2.7-.29-1-.38-2.32-.73-3.91-.8-.3.68-1.1 2.22-2.32 2-1.57-.3-1.28-1.35-.64-1.86.57-.46 1.68.08 2.75-.3v-.04c-.42-.14-1.3-.43-1.72-.55-.56-.16-1.25-.7-1.41-1.32-.16-.62.2-1 .2-1" fill="#ffb739" fill-rule="nonzero"/><path d="M0 69.48c3.98-.8 7.65-.67 10.98.06.52 1.5 1.17 3.27 1.17 3.27l1.1-2.67C25.65 74 32.81 85.85 32.81 85.85c-8.69 1.9-15.16.94-19.96-1.25l.16-2.63-1.67 1.87a22.65 22.65 0 0 1-5.53-4.28c.87-.97 1.83-2.08 1.83-2.08l-3.17.54A24.52 24.52 0 0 1 0 69.48" fill="#4077a2" fill-rule="nonzero"/><path d="m12.85 84.6.16-2.63-1.67 1.87a22.65 22.65 0 0 1-5.53-4.28c.87-.97 1.83-2.08 1.83-2.08l-3.17.54A24.52 24.52 0 0 1 0 69.48C14.82 73 32.8 85.85 32.8 85.85c-8.67 1.9-15.15.94-19.95-1.25" fill="#01025d" fill-rule="nonzero"/><path d="m151.56 63.02 3.55-1.85c.12-2.86.06-5.27.06-5.27-4.5 1.08-6.55 1.99-8.85 4.5l-.4 3.8-1.53-2.2c-5.15 7.3-4.76 18.16-4.76 18.16s11.78-7.51 13.81-10.05c.78-.98 1.22-3.32 1.46-5.83-1.4-.43-3.34-1.26-3.34-1.26" fill="#00c0ae" fill-rule="nonzero"/><path d="M155.17 55.9s-12.63 14.66-15.54 24.26c0 0 11.78-7.51 13.81-10.05.78-.98 1.22-3.32 1.46-5.83-1.4-.43-3.34-1.26-3.34-1.26l3.55-1.85c.12-2.86.06-5.27.06-5.27" fill="#00cdc1" fill-rule="nonzero"/><path d="M160 66.9c-2.8-.25-5.32.13-7.56.9-.23 1.07-.54 2.34-.54 2.34l-.97-1.75c-8.24 3.64-12.23 12.35-12.23 12.35 6.13.62 10.5-.54 13.64-2.43l-.31-1.8 1.29 1.16a15.72 15.72 0 0 0 3.47-3.38l-1.42-1.3 2.23.13c2.02-3.23 2.4-6.23 2.4-6.23" fill="#4bb874" fill-rule="nonzero"/><path d="m152.34 78.31-.31-1.8 1.29 1.16a15.72 15.72 0 0 0 3.47-3.38l-1.42-1.3 2.23.13c2.02-3.23 2.4-6.23 2.4-6.23-9.93 3.59-21.3 13.85-21.3 13.85 6.13.62 10.5-.54 13.64-2.43" fill="#06d372" fill-rule="nonzero"/><path d="m133.8 38.86-52.33-11.6v82.03l52.34 11.05V38.86Z" fill="#141a75" fill-rule="nonzero"/><path d="m135.18 120.32-1.37.02V38.3l1.37-.02v82.03Z" fill="#01025d" fill-rule="nonzero"/><path d="m81.47 27.26.6-.45 53.1 11.48-1.36.57-52.34-11.6Z" fill="#495199" fill-rule="nonzero"/><path d="m29.13 38.86 52.34-11.6v82.03l-52.34 11.05V38.86Z" fill="#141a75" fill-rule="nonzero"/><path d="m31.32 39.63 46.52-11.55s2.44 1.03 3.63.88L59.36 47.44s-15.32 1.99-15.7 1.33c-.4-.66-12.34-9.14-12.34-9.14" fill="#e6f5f9" fill-rule="nonzero"/><path d="m31.32 119.95 5.93 2.66V42.28l-5.93-2.65v80.32Z" fill="#d3eef8" fill-rule="nonzero"/><path d="M81.47 109.29 37.25 122.6V42.29l44.22-13.32v80.33Z" fill="#c1e3eb" fill-rule="nonzero"/><path d="M77.04 42.1 41.68 52.73v-5.79l35.36-10.64v5.78ZM77.04 44.61l-22.24 6.7v-1.04l22.24-6.7v1.04ZM77.04 47.2 54.8 53.9v-1.03l22.24-6.7v1.04ZM77.04 49.8 54.8 56.5v-1.04l22.24-6.7v1.05ZM77.04 52.4 54.8 59.1v-1.04l22.24-6.7v1.04ZM77.04 55 54.8 61.7v-1.05l22.24-6.7V55ZM77.04 57.6 54.8 64.28v-1.04l22.24-6.7v1.04ZM77.04 60.19l-22.24 6.7v-1.04l22.24-6.7v1.04ZM77.04 62.78l-22.24 6.7v-1.04l22.24-6.7v1.04ZM77.04 65.38l-22.24 6.7v-1.04l22.24-6.7v1.04ZM77.04 67.98l-22.24 6.7v-1.05l22.24-6.7v1.05ZM77.04 70.57 41.68 81.22v-1.04l35.36-10.65v1.04ZM59.36 78.5 41.68 83.8v-1.03l17.68-5.33v1.04ZM59.36 81.09 41.68 86.4v-1.04l17.68-5.32v1.04ZM59.36 83.68l-17.68 5.33v-1.04l17.68-5.33v1.04ZM59.36 86.28 41.68 91.6v-1.04l17.68-5.32v1.04ZM59.36 88.88 41.68 94.2v-1.04l17.68-5.32v1.03ZM59.36 91.47 41.68 96.8v-1.03l17.68-5.33v1.04ZM59.36 94.07l-17.68 5.32v-1.04l17.68-5.32v1.04ZM59.36 96.66 41.68 102v-1.04l17.68-5.33v1.04ZM59.36 99.26l-17.68 5.32v-1.04l17.68-5.32v1.04ZM77.04 96.53l-35.36 10.65v-1.04l35.36-10.65v1.04ZM77.04 99.13l-35.36 10.64v-1.03l35.36-10.65v1.04ZM77.04 101.72l-35.36 10.65v-1.04l35.36-10.64v1.03ZM41.68 78.62l11.66-3.5v-24.4l-11.66 3.5v24.4ZM60.6 98.88l16.44-4.94V72.13L60.6 77.08v21.8Z" fill="#c1e3eb" fill-rule="nonzero" opacity=".5"/><path d="M131.61 39.63 85.1 28.08s-2.44 1.03-3.62.88l22.1 18.48s15.33 1.99 15.72 1.33c.38-.66 12.32-9.14 12.32-9.14" fill="#f0fcff" fill-rule="nonzero"/><path d="m131.61 119.95-5.93 2.66V42.28l5.93-2.65v80.32Z" fill="#a9d6e1" fill-rule="nonzero"/><path d="m81.47 109.29 44.22 13.31V42.29L81.47 28.96v80.33Z" fill="#d3eef8" fill-rule="nonzero"/><path d="m81.5 109.29 44.21 13.31V42.29L81.5 28.96v80.33Z" fill="#daeef3" fill-rule="nonzero"/><path d="m85.92 42.1 35.36 10.64v-5.79L85.92 36.31v5.78ZM85.92 44.61l22.25 6.7v-1.04l-22.25-6.7v1.04ZM85.92 47.2l22.25 6.7v-1.03l-22.25-6.7v1.04ZM85.92 49.8l22.25 6.7v-1.04l-22.25-6.7v1.05ZM85.92 52.4l22.25 6.7v-1.04l-22.25-6.7v1.04ZM85.92 55l22.25 6.7v-1.05l-22.25-6.7V55ZM85.92 57.6l22.25 6.69v-1.04l-22.25-6.7v1.04ZM85.92 60.19l22.25 6.7v-1.04l-22.25-6.7v1.04ZM85.92 62.78l22.25 6.7v-1.04l-22.25-6.7v1.04ZM85.92 65.38l22.25 6.7v-1.04l-22.25-6.7v1.04ZM85.92 67.98l22.25 6.7v-1.05l-22.25-6.7v1.05ZM85.92 70.57l35.36 10.65v-1.04L85.92 69.53v1.04ZM103.6 78.5l17.68 5.31v-1.03l-17.68-5.33v1.04ZM103.6 81.09l17.68 5.32v-1.04l-17.68-5.32v1.04ZM103.6 83.68l17.68 5.33v-1.04l-17.68-5.33v1.04ZM103.6 86.28l17.68 5.32v-1.04l-17.68-5.32v1.04ZM103.6 88.88l17.68 5.32v-1.04l-17.68-5.32v1.03ZM103.6 91.47l17.68 5.32v-1.03l-17.68-5.33v1.04ZM103.6 94.07l17.68 5.32v-1.04l-17.68-5.32v1.04ZM103.6 96.66l17.68 5.33v-1.04l-17.68-5.33v1.04ZM103.6 99.26l17.68 5.32v-1.04l-17.68-5.32v1.04ZM85.92 96.53l35.36 10.65v-1.04L85.92 95.49v1.04ZM85.92 99.13l35.36 10.64v-1.03L85.92 98.09v1.04ZM85.92 101.72l35.36 10.65v-1.04L85.92 100.7v1.03ZM121.28 78.62l-11.65-3.5v-24.4l11.65 3.5v24.4ZM102.36 98.88l-16.44-4.94V72.13l16.44 4.95v21.8Z" fill="#c1e3eb" fill-rule="nonzero" opacity=".5"/><path d="m27.76 120.32 1.37.02V38.3l-1.37-.02v82.03Z" fill="#01025d" fill-rule="nonzero"/><path d="m81.47 27.26-.6-.45-53.11 11.48 1.37.57 52.34-11.6Z" fill="#495199" fill-rule="nonzero"/><path d="M85.76 27.61a13.8 13.8 0 0 0-3.88-.82c-.53-.05-2.15-.1-4.66.8a5.56 5.56 0 0 0 2.76 1.24c3.37.7 5.78-1.21 5.78-1.21" fill="#01025d" fill-rule="nonzero"/><path d="m84.06 28.46 45.39 12.14.69 80.01-1.5 1.18V40.96l-44.57-12.5Z" fill="#a9d6e1" fill-rule="nonzero"/><path d="m117.2 133.9-35.28-12.36 27.94-15.41 36.07 12.9-27.12 14.74a2 2 0 0 1-1.62.13" fill="#0074e4" fill-rule="nonzero"/><path d="M84.67 108.15s5.3 6.13-.84 12.85l33.23 12.48c.83.31 1.75.12 2.38-.5l1.2-1.16s4.2-11.47 4.2-11.76c0-.3-8.38-7.08-8.38-7.08s-13.79-1.66-14.15-1.66c-.36 0-17.64-3.17-17.64-3.17" fill="#d3eef8" fill-rule="nonzero"/><path d="M120.8 129.73c-.22 0-24.7-8.08-24.7-8.08s24.4 8.86 24.48 8.65c.07-.22.21-.57.21-.57" fill="#d3eef8" fill-rule="nonzero"/><path d="M82.79 107.82v.76l35.08 12.02s2.16 2.7 1.95 6.39c-.22 3.68-1.02 6.59-2.17 6.63 0 0 .73.06 1.1-.17.36-.23 1.22-1 1.22-1s1.45-6.55 1.53-6.7c.07-.17-.76-5.51-1.32-5.9-.56-.4-.1-1.04-2.75-1.52-2.65-.5-23.54-9.88-24.05-9.75-.5.13-4.83-.07-5.07 0-.23.07-5.52-.76-5.52-.76" fill="#0074e4" fill-rule="nonzero"/><path d="M118.41 120.27s4.47 7.58 0 13.67l29.74-16.12s3.5-7.18-1.01-11.7l-28.73 14.15Z" fill="#0074e4" fill-rule="nonzero"/><path d="m118.41 120.27-35.62-12.45 32.15-10.93 32.2 9.24-28.73 14.14Z" fill="#497bff" fill-rule="nonzero"/><path d="m112.7 122.73-25.92-9.02c.01.19.02.38.01.58l25.92 8.44ZM86.5 116.4l-.27.8 19.02 6.21-18.76-7.01Z" fill="#d3eef8" fill-rule="nonzero"/><path d="m112.73 116.34 35.98-10.68-27.04-13.32-36.82 11.15 26.27 12.74c.48.23 1.07.28 1.61.11" fill="#00c0ae" fill-rule="nonzero"/><path d="M146.74 94.09s-5.66 5.3.1 11.1L112.88 116c-.84.26-1.76.1-2.35-.43l-1.14-1.01s-3.53-9.92-3.51-10.17c.02-.25 8.78-6.11 8.78-6.11s13.88-1.44 14.24-1.44c.36 0 17.83-2.74 17.83-2.74" fill="#d3eef8" fill-rule="nonzero"/><path d="M109.37 112.74c.22 0 25.16-6.99 25.16-6.99s-24.91 7.67-24.97 7.48c-.06-.19-.19-.5-.19-.5" fill="#d3eef8" fill-rule="nonzero"/><path d="m148.64 93.8-.05.66-35.77 10.39s-2.32 2.34-2.31 5.52c0 3.18.63 5.7 1.78 5.73 0 0-.73.05-1.08-.15-.36-.2-1.17-.86-1.17-.86s-1.08-5.66-1.14-5.8c-.06-.14 1.07-4.75 1.66-5.1.58-.34.15-.88 2.83-1.3 2.68-.43 24.11-8.53 24.61-8.43.5.11 4.84-.06 5.07 0 .23.07 5.57-.65 5.57-.65" fill="#00c0ae" fill-rule="nonzero"/><path d="M112.3 104.57s-4.9 6.55-.79 11.8l-28.8-13.92s-3.1-6.2 1.68-10.1l27.91 12.22Z" fill="#00c0ae" fill-rule="nonzero"/><path d="m112.3 104.57 36.34-10.76-31.53-9.45-32.72 7.98 27.91 12.23Z" fill="#00cdc1" fill-rule="nonzero"/><path d="m117.86 106.69 26.44-7.8-.04.5-26.4 7.3ZM144.44 101.22c.06.23.13.46.22.7l-19.38 5.36 19.16-6.06Z" fill="#d3eef8" fill-rule="nonzero"/><path d="M89.23 94.46s-4.85 5.06-1.06 10.64l2.14 1.03s-2.75-6.67 1.35-10.6l-2.43-1.07Z" fill="#00c0ae" fill-rule="nonzero" opacity=".3"/><path d="M121.02 103.3 91.05 93.11l21.82-12.62 30.67 10.61-21.2 12.08c-.39.22-.87.26-1.32.1" fill="#ffa833" fill-rule="nonzero"/><path d="M92.29 82.14s4.83 5.04.3 10.54l28.3 10.27c.7.25 1.44.1 1.91-.4l.9-.96s2.58-9.41 2.56-9.65c-.03-.23-7.43-5.8-7.43-5.8s-11.48-1.38-11.77-1.38c-.3 0-14.77-2.62-14.77-2.62" fill="#d3eef8" fill-rule="nonzero"/><path d="M123.67 99.87c-.18 0-20.94-6.65-20.94-6.65s20.76 7.3 20.8 7.12c.04-.18.14-.47.14-.47" fill="#d3eef8" fill-rule="nonzero"/><path d="m90.72 81.87.06.63 29.78 9.88s2 2.22 2.1 5.24c.1 3.02-.34 5.4-1.29 5.44 0 0 .6.05.9-.14.28-.18.93-.81.93-.81s.7-5.37.74-5.5c.05-.14-1.04-4.52-1.53-4.85-.5-.32-.15-.84-2.37-1.24-2.23-.4-20.14-8.12-20.54-8.02-.41.1-3.99-.06-4.18 0-.19.06-4.6-.63-4.6-.63" fill="#ffa833" fill-rule="nonzero"/><path d="M120.99 92.11s4.25 6.23 1.04 11.21l23.25-13.2s2.33-5.88-1.72-9.59l-22.57 11.58Z" fill="#ffa833" fill-rule="nonzero"/><path d="M120.99 92.11 90.72 81.88l25.64-8.94 27.2 7.6-22.57 11.58Z" fill="#ffb739" fill-rule="nonzero"/><path d="M116.48 94.12 94.46 86.7l.05.48 21.97 6.94ZM94.42 88.91l-.15.66 16.13 5.11-15.98-5.77Z" fill="#d3eef8" fill-rule="nonzero"/><path d="m118.4 89.07-17.53-6.15 3.46-1.5 18.56 5.5-4.5 2.15Z" fill="#ffa833" fill-rule="nonzero"/><path d="M97.8 90.13s-1.8 1.84-.98 4.3c0 0 .55-1.28 1.1-1.64 0 0-.1 1.55.55 2.2 0 0 .56-3.45 2.3-3.79l-2.97-1.07Z" fill="#ff5b80" fill-rule="nonzero"/><path d="M118.41 110.25s1.11 1.3 1.02 2.95c0 0 .6-.84.76-1.47 0 0 .61.28.98 1.02 0 0 .68-1.75-.03-3.26l-2.73.77Z" fill="#ffb739" fill-rule="nonzero"/><path d="M101.26 118.74s-1.88 2.52-1.24 6.55c0 0 .64-1.65 2.1-2.57 0 0 .65 2.66 1.01 3.58 0 0 1.47-5.35 3.2-5.79l-5.07-1.77Z" fill="#00cdc1" fill-rule="nonzero"/><path d="M55.75 17.81c2.3.66 10.43-1.21 13.09-1.86l.1-.04.93-.66c.78-.51 1.58-1.11 1.66-1.08.11.05.12.16-.52 1.05-.04.06 0 .14.07.15.56.02 2.29.1 2.32.23.03.17-1.52.14-1.58.3-.05.14 1.46.13 1.47.32 0 .18-1.38.14-1.4.23-.03.07 1.3.25 1.36.36.07.1-1.36.09-1.42.18-.06.08.93.43.9.51-.01.1.24.07-2.2-.07l-.84-.08-.6.28c-4.9 2.84-14.19 3.1-14.19 3.1l.85-2.92Z" fill="#ffcfbb" fill-rule="nonzero"/><path d="M50.49 15.05s-.93.88-1.51.27c0 0-1.68.36-1.54-1.11 0 0-1.14-.7-.72-2.02 0 0-1.02-.93.1-2 0 0-.74-1.26.68-1.68 0 0 .18-2.15 2.19-1.58 0 0 1.51-1.63 2.82-.6 0 0 1.36-.45 1.93 1.11 0 0 1.45.49.92 2.26 0 0 1.4 1.55.47 3.12 0 0 .5 2.1-1.87 1.83-2.36-.26-3.47.4-3.47.4" fill="#ffb739" fill-rule="nonzero"/><path d="M57.88 21.3s-3 1.06-5.51.38c-.47-.12-.8-.54-.8-1.02 0-.51-.91-2.62.13-2.91 2.24-.61 5.56-.46 5.56-.46s1.06 1.54.63 4.02" fill="#00b874" fill-rule="nonzero"/><path d="M49.72 17.09s-2.5.44-3.37 1.44c-.87 1-3.1 12.11-2.57 14.1l10.55-1.51s1.14-8.88.91-11.44c-.23-2.56-3.02-2.45-3.02-2.45l-2.5-.14Z" fill="#00b874" fill-rule="nonzero"/><path d="M55.23 21.86c.04-1.34 0-2.27 0-2.27.15.93 0 2.27 0 2.27M46.02 25.39s.44.21 1 .21a8.92 8.92 0 0 0 1.06-4.26c-1 1.66-2.06 4.05-2.06 4.05" fill="#fff" fill-rule="nonzero"/><path d="m61.78 41.65-.44 1.54c-.04.13.03.26.16.3l3.61 1.03c.27.07.46-.24.28-.44L63.57 42s-.8.56-1.79-.35" fill="#0089e8" fill-rule="nonzero"/><path d="M55.19 31.36s7.25-2.04 8.1-1.95c.94.1 3.53 1.7.6 13.03 0 0-1.42.45-2.28-.53l.06-6.45s-5.24 2.87-6.86 2.17c-1.62-.7.38-6.27.38-6.27" fill="#232323" fill-rule="nonzero"/><path d="m50.14 41.61-.97 1.28c-.08.1-.06.26.05.34l3 2.26c.21.16.51-.06.41-.31l-.94-2.6s-.95.24-1.55-.97" fill="#0089e8" fill-rule="nonzero"/><path d="M44.04 32.6s-.14 7.42 7.39 4.62l-1.5 4.66s1.07 1.1 1.82.98c.7-.12 7.85-8.83 3.69-11.92a3.57 3.57 0 0 0-2.07-.68c-1.88-.03-6.77.12-9.33 2.33" fill="#303030" fill-rule="nonzero"/><path d="m49.75 18.18-.07-2.44 2.42-.03.5 2.13s-1.37 1.57-2.85.34" fill="#ffcfbb" fill-rule="nonzero"/><path d="m52.43 17.14-.33-1.43-2.42.03.04 1.2c.52.42 1.43.8 2.71.2M54.36 12.56c-.07.41.13.8.47.86.33.06.66-.23.73-.64.08-.41-.13-.8-.46-.86-.33-.06-.66.23-.74.64" fill="#ffbb92" fill-rule="nonzero"/><path d="M54.72 14.81a6.02 6.02 0 0 0 .13-2.4 3.23 3.23 0 0 0-3.68-3.12 3.26 3.26 0 0 0-2.78 3.9.7.7 0 0 0-.63.08c-.35.24-.38.8-.06 1.22.3.43.83.57 1.18.32a.64.64 0 0 0 .12-.12 3.05 3.05 0 0 0 3.55 2.12 2.93 2.93 0 0 0 2.17-2" fill="#ffcfbb" fill-rule="nonzero"/><path d="m52.3 12.34.16.52c.05.16.12.34.22.44l.02.01.02.02.07.06c.04.04.07.09.1.15.03.12 0 .24-.07.33a.63.63 0 0 1-.51.25c.17-.08.32-.19.39-.33.03-.07.04-.14.01-.2a.2.2 0 0 0-.05-.07l-.04-.03-.03-.03-.04-.03a.74.74 0 0 1-.16-.26 1.93 1.93 0 0 1-.1-.83" fill="#ff9994" fill-rule="nonzero"/><path d="M51.31 12.86a.29.29 0 0 1-.55.13.29.29 0 0 1 .55-.13M53.74 12.48c.03.15-.07.3-.22.34a.28.28 0 1 1-.12-.56c.15-.03.3.06.34.22" fill="#303030" fill-rule="nonzero"/><path d="m51.49 12.15-.43.01a1.42 1.42 0 0 0-.72.3c-.06.03-.1.09-.16.13l-.16.15c.01-.07.04-.14.07-.21.04-.07.07-.14.12-.2a.96.96 0 0 1 1.28-.19M52.74 11.95a.89.89 0 0 1 .35-.3.97.97 0 0 1 .91.04c.07.04.13.1.18.15.06.05.1.11.14.18l-.2-.1-.2-.07a1.38 1.38 0 0 0-.77-.03c-.14.03-.27.07-.41.13" fill="#01025d" fill-rule="nonzero"/><path d="M46.88 23.48c-1.45 1.91-2.67 10.17-3.04 12.9v.1l.27 1.11c.2.92.46 1.88.4 1.94-.09.1-.19.06-.79-.86a.09.09 0 0 0-.16.01c-.22.5-.92 2.1-1.06 2.08-.17-.04.42-1.47.3-1.58-.11-.1-.65 1.31-.83 1.25-.17-.06.37-1.34.3-1.4-.06-.04-.71 1.12-.84 1.15-.12.02.42-1.3.36-1.4-.06-.08-.74.72-.81.67-.08-.05-.14.19.87-2.03 0 0 .26-.55.38-.76l-.04-.66c-.85-5.62 2.29-14.37 2.29-14.37l2.4 1.85Z" fill="#ffcfbb" fill-rule="nonzero"/><path d="M43.07 24.25s.78-4.32 3.22-5.87c1.03-.65 1.62-.9 2.09-.63.48.28-.58 1.33-.37 2.51.43 2.35-1.09 5.3-1.09 5.3s-2.04-.24-3.85-1.31" fill="#00b874" fill-rule="nonzero"/><path d="m48.56 9.32-.04 2.1 4.9-1.32s.56.47.64.46c.08-.02.7-.3.67-.39-.02-.09-1.8-2.3-1.8-2.3s-1.62.4-1.76.45c-.15.04-2.6 1-2.6 1" fill="#ffb739" fill-rule="nonzero"/><path d="M48.32 12.4s2.5-2.17 6.32-1.04c0 0-.02-.44-.19-1 0 0-2.6-1.68-6.24.98 0 0-.2.27.11 1.05" fill="#ff5b80" fill-rule="nonzero"/><path d="M53.61 14.4c-.05.49-.48.9-1.03.94-.56.05-1.05-.27-1.2-.74l2.23-.2Z" fill="#fff" fill-rule="nonzero"/><path d="M36.37 124.55v1.67c0 .13-.1.25-.25.25h-3.9c-.29 0-.4-.37-.16-.53l2.14-1.4s.92.64 2.17 0M44.99 124.55v1.67c0 .13.1.25.25.25h3.9c.29 0 .4-.37.16-.53l-2.14-1.4s-.91.64-2.17 0" fill="#01025d" fill-rule="nonzero"/><path d="M40.44 82.47v2.72l2.64-.4-.44-3.07-2.2.75Z" fill="#ffd6bb" fill-rule="nonzero"/><path d="M43.98 84.47s1.89.47 3.45 1.64c1.56 1.18 4.71 3.45 4.56 5.76-.15 2.3-2.64 5.92-2.64 5.92l-.84-1.73s.76-4.07.59-4.22l-3.4-3.07-1.72-4.3Z" fill="#01025d" fill-rule="nonzero"/><path d="M48.34 100.39c0-.3.78.59.77.35-.31-5.04-10.17-.82-10.17-.82l-2.41 1.77-3.15 23.34s1.58.57 3 .18l5.9-20.1.73-.29s3.3-2.3 5.33-4.43" fill="#4077a2" fill-rule="nonzero"/><path d="M49.1 99.6c-2.02 2.13-6.09 5.22-6.09 5.22L45 125.07s1.94.29 2.88-.22c0 0 1.37-19.25 1.24-25.26M36.53 101.69l-.39 3.33c1.03.4 3.53.82 5.41-3.3.6-1.3.75-2.23.64-2.9-1.8.48-3.25 1.1-3.25 1.1l-2.41 1.77Z" fill="#1f5e8f" fill-rule="nonzero"/><path d="M45.58 88.08c-.09 0-1.02-2.05-1.51-3.17a.72.72 0 0 0-.92-.38c-1.35.53-2.84 0-2.84 0s-4.48 15.62-2.63 16.85c4.84 3.22 10.4-.5 10.4-.5s.72-2.91.72-3.03c0-.11-3.1-9.77-3.22-9.77" fill="#ffcd61" fill-rule="nonzero"/><path d="M40.31 84.53s-.86 1.26-.94 1.24c-.57-.1-2.17-1.53-2.45 3.18.15 1.44-1.22 13.09-1.22 13.09 3.72 1.74 4.77.72 4.77.72.76-3.52-.16-18.23-.16-18.23" fill="#01025d" fill-rule="nonzero"/><path d="M40.31 84.53s-2.4.3-4.17 1.14c-1.76.83-4.9 2.5-4.77 4.84.13 2.34 4.62 7.28 4.62 7.28l.68-.68.6-.92-3.1-5.45 3.97-1.66 2.17-4.55ZM44.47 84.78c1.14 1.25 3.4 5.1 5.2 16.82 0 0-2 1.21-4.28 1.34 0 0-.6-15.52-2.27-18.4a1.13 1.13 0 0 1 1.35.24" fill="#01025d" fill-rule="nonzero"/><path d="M48.19 95.55a3.2 3.2 0 0 1 1.15 1.84c.12.5-.14.6-.27.62-.04.01-.08-.01-.1-.05a4.39 4.39 0 0 0-.16-.28c-.42-.68-.9.44-1.05.16-.18-.34.63-.64.52-.82-.2-.33-.67.43-.83.23-.17-.23.75-.44.53-.83-.12-.2-.73.45-.8.17-.08-.28.69-.4.55-.64-.2-.34-.63.43-.8.19-.1-.15.83-.88 1.26-.6" fill="#ffd4bb" fill-rule="nonzero"/><path d="m42.84 83.13-.2-1.41-2.2 1v.54c.53.13 1.52.25 2.4-.13" fill="#ffcabc" fill-rule="nonzero" opacity=".6"/><path d="m44.24 76.9.16 1.88-.3.18-.54-2.27.68.22Z" fill="#01025d" fill-rule="nonzero"/><path d="M43.85 78.58c-.08.43.13.82.46.89.34.06.68-.23.77-.65.08-.42-.13-.82-.47-.88-.34-.07-.68.22-.76.64" fill="#ffbb92" fill-rule="nonzero"/><path d="M44.2 80.9a6.2 6.2 0 0 0 .15-2.46 3.34 3.34 0 1 0-6.63.73.72.72 0 0 0-.64.08c-.36.25-.39.81-.07 1.25.31.44.85.6 1.2.35.05-.04.1-.08.13-.13a3.13 3.13 0 0 0 3.62 2.2 3 3 0 0 0 2.23-2.02" fill="#ffd4c4" fill-rule="nonzero"/><path d="M40.72 78.86a.3.3 0 1 1-.57.13.3.3 0 0 1 .57-.13M43.2 78.5a.3.3 0 1 1-.56.12.3.3 0 0 1 .57-.13" fill="#303030" fill-rule="nonzero"/><path d="M40.95 78.23a2.7 2.7 0 0 0-.44-.05 1.4 1.4 0 0 0-.78.2c-.16.1-.27.21-.36.27.06-.14.14-.3.26-.4a.96.96 0 0 1 .42-.23c.16-.04.33-.04.48 0 .15.03.3.1.41.2M42.1 78.04a1 1 0 0 1 1.26-.4c.14.06.27.18.37.29-.1-.03-.24-.1-.42-.13a1.45 1.45 0 0 0-.8.05c-.14.05-.27.11-.4.19" fill="#e25400" fill-rule="nonzero"/><path d="M43.9 74.91s.98-.19-.23-.78c-1.21-.6-4.18-.94-5.74.39 0 0-.52-.67-.99-.38-.47.3.5.62.5.62s-.66.13-.8.5c-.09.26.32.18.53.12-.36.15-1.4 1.14-.04 3.84.24-.12 1.8-2.33 1.8-2.33s3.13 1.02 2.56.17c0 0 3.65.92 2.76-.73 0 0 1.35-.2-.35-1.42" fill="#e25400" fill-rule="nonzero"/><path d="M38.93 76.89c.05.18-.82 2.12-1.2 2.28-.32 0-.6.05-.6.05-.1-.56.84-2.1.84-2.1l.96-.23Z" fill="#d65400" fill-rule="nonzero"/><path d="M41.65 78.08a2.24 2.24 0 0 0 .12.94c.04.1.1.2.19.3.1.07.15.1.18.17s.02.15-.01.23c-.08.16-.25.28-.44.37a.7.7 0 0 0 .57-.3c.07-.1.1-.23.06-.36-.04-.14-.13-.19-.23-.27a.8.8 0 0 1-.15-.22l-.1-.27-.19-.59" fill="#ff9994" fill-rule="nonzero"/><path d="m35.3 92.63-1.04-1.75-.08-.14a82.46 82.46 0 0 0 1.33-.52 48.36 48.36 0 0 0 2.09-.92 22.48 22.48 0 0 0-2.14.8 38.76 38.76 0 0 0-2.09.91c.24-.07.48-.16.7-.24l.1.16a140.7 140.7 0 0 0 3.1 5.26 75.21 75.21 0 0 0-1.98-3.56" fill="#01025d" fill-rule="nonzero"/><path d="M37.77 96.87a.06.06 0 0 1 .04-.1c.77-.17.82-.23.78-.3a8.4 8.4 0 0 0-1.32-.28l-.4.63-.63.71.06.09c1.22 1.26 1.25 1.22 1.3 1.19.06-.04-.3-.7-.22-.72.07-.02.82.7.84.6.01-.09-.6-.83-.55-.86.05-.03.77.67.86.57.08-.1-.73-.84-.62-.89.1-.05.9.72.98.62.05-.09-.83-.98-1.12-1.26" fill="#ffd4bb" fill-rule="nonzero"/><path d="m35.99 97.79.34-.39.33-.39.32-.4.15-.2.14-.22c-.07.16-.16.3-.25.45A4.93 4.93 0 0 1 36 97.8" fill="#01025d" fill-rule="nonzero"/><path d="M42.83 80.6c-.02.37-.34.7-.8.8-.45.08-.88-.12-1.03-.46l1.83-.34Z" fill="#fff" fill-rule="nonzero"/><path d="M98.67 21.33s-2.27-.21-3.78.87c-1.5 1.09-3.26 2.92-7.07 1.78 0 0 1.8 2.17 4.2 2.4 2.4.24 1.75-1.7 7.2-.56l-.26-2.3-.3-2.19Z" fill="#ff5b80" fill-rule="nonzero"/><path d="m110.2 57.57.33 22.3.57 1.6 1.71-1.6L114.44 57l-4.25.57ZM120.4 58.33h-4.28s2 21.4 1.99 21.54c-.02.13.72 1.1.72 1.1l1.56-1.1V58.33Z" fill="#ffc1bc" fill-rule="nonzero"/><path d="m110.2 57.57.33 22.3.57 1.6 1.71-1.6L114.44 57l-4.25.57ZM120.4 58.33h-4.28s2 21.4 1.99 21.54c-.02.13.72 1.1.72 1.1l1.56-1.1V58.33Z" fill="#ffd2bb" fill-rule="nonzero"/><path d="m110.44 73.93.1 5.94.56 1.6 1.71-1.6.43-6c-1.31.51-2.28.28-2.8.06M117.57 73.93l.54 5.94c-.02.13.72 1.1.72 1.1l1.56-1.1v-5.91a4.63 4.63 0 0 1-2.82-.03" fill="#fcf9eb" fill-rule="nonzero"/><path d="M109.56 58.66c1.21.49 3.1.98 5.18.53l.3-3.13c.21.19.34.28.34.28l.28 2.75s2.3.84 5.13.32c.01-1.22.02-2.3 0-3.17-.04-6.27-1.98-7.18-1.98-7.18l-3.3-.84-.72.13c-1.15-.38-3.24-.82-4.1.62-1.21 2.04-1.14 8.32-1.14 8.32v1.37" fill="#00cdc1" fill-rule="nonzero"/><path d="m111.77 42.69-3.09-1.44.28 3.28s-5.85-2.66-6.15-2.93c-.1-.09-.2-.32-.32-.6a5.97 5.97 0 0 1-.25-.89 2 2 0 0 0-.63-.93 1.84 1.84 0 0 1-.26-.5c-.02-.1-.16-.1-.18 0l-.03.2c-.03.2.04.42.08.53l-.08-.03-.14 1.37.17 1.2.92.7s8.16 5.88 8.9 5.11c.8-.82.78-5.07.78-5.07" fill="#ffd2bb" fill-rule="nonzero"/><path d="M112.81 79.87v1.7c0 .14-.12.25-.26.25h-4.1c-.3 0-.42-.38-.17-.53l2.25-1.42s.96.64 2.28 0M120.39 79.87v1.7c0 .14-.12.26-.27.26h-4.1c-.3 0-.41-.38-.16-.54l2.25-1.42s.95.64 2.28 0" fill="#01025d" fill-rule="nonzero"/><path d="M111.07 35.76s-.63.15-1.55 1.28c-.91 1.14-1.73 4.27-1.73 4.27l2.92 1.6 1.9-3.78-1.54-3.37Z" fill="#ffba4c" fill-rule="nonzero"/><path d="M119.35 53.84a18.14 18.14 0 0 0-1.8.78l-.89.44-.86.46-.02-.05a6.02 6.02 0 0 1 1.95-.1l.17.03.16.03.08.01.08.02.16.04-.16-.03-.08-.02-.09-.01-.16-.02-.16-.02-.16-.01h-.16l-.17-.01h-.16a7.39 7.39 0 0 0-1.29.15l-.2.04.18-.1a21.18 21.18 0 0 1 2.65-1.3l.46-.17.47-.16M110.7 53.71l.46.16.46.18a22 22 0 0 1 2.65 1.3l.17.1-.2-.05a5.98 5.98 0 0 0-1.28-.15h-.33l-.16.01-.16.01-.17.02-.16.02-.08.01-.08.02-.16.03.16-.04.08-.02.08-.01.16-.03.17-.02a5.3 5.3 0 0 1 1.3 0c.22.02.44.05.65.1l-.02.05a32.46 32.46 0 0 0-3.55-1.69" fill="#fff" fill-rule="nonzero"/><path d="M111.35 50.1a17.03 17.03 0 0 0 1.62.2 22.09 22.09 0 0 0 3.25.06 11.02 11.02 0 0 0 .81-.08 10.98 10.98 0 0 1-2.44.16 20.15 20.15 0 0 1-3.24-.34" fill="#d3eef8" fill-rule="nonzero" opacity=".5"/><path d="M118.45 29.98s.58-3-1.1-4.05a4.32 4.32 0 0 0-4.58-.16c-1.16.71-2.19 2.96-.78 5.11l3.47-2.15 3 1.25Z" fill="#01025d" fill-rule="nonzero"/><path d="m117.47 51.11.05.1.04.08.1.18.16.3.45.78c.06.12.65 1.15.8 1.38-.18-.2-.4-.41-.53-.64l-.2-.35a16.25 16.25 0 0 1-.8-1.64l-.07-.19" fill="#ff9825" fill-rule="nonzero"/><path d="M123.23 39.42c-1.33-1.6-2.74-3.1-4.02-3.9a7.59 7.59 0 0 0-3.25-.84c-1.04-.13-1.79-.18-2.35.1-1.66.23-3.4 1.16-3.42 1.75-.12 2.9-.15 5.14-.14 6.85 0 0-.05 6.2 0 7.53 0 0 6.73 1.46 10.18.59 0 0 .58-8.11-.24-10.3l.35.44s1.38-.32 2.9-2.22" fill="#ffcd61" fill-rule="nonzero"/><path d="M123.03 39.67a6.35 6.35 0 0 1-2.43 1.88l3.25 3.91-5.96 6.43 1.05 1.83c.83-.4 1.01-1.93 1.01-1.93s7.38-4.93 7.38-6.11c0-1.58-4.3-6.01-4.3-6.01" fill="#ffd2bb" fill-rule="nonzero"/><path d="m123.08 39.6-.15.16-.16.17-.08.09-.08.08-.16.16-.17.15-.36.29c-.25.18-.5.35-.77.5l-.1.05-.1.05a3.5 3.5 0 0 1-.22.09l-.1.04-.1.04-.15.05-.36-.43-.4-.47-.82-.95-.83-.94-.86-.92a40.71 40.71 0 0 0 1.54 1.97l.8.97.4.48.4.48.05.05.06-.02a2.73 2.73 0 0 0 .67-.27l.11-.05.1-.06c.28-.16.54-.35.78-.54l.17-.16.17-.16.17-.17.15-.17.08-.09.07-.09.14-.18.26-.38-.15.17Z" fill="#fcf9eb" fill-rule="nonzero"/><path d="M113.6 34.9s1.35.8 2.39.01l-.24-1.94-2.08-.42-.06 2.36Z" fill="#ffd2bb" fill-rule="nonzero"/><path d="m113.64 33.8.03-1.25 2.1.65.06.47c-.46.17-1.35.38-2.2.14" fill="#ffc4bc" fill-rule="nonzero" opacity=".6"/><path d="M112.17 31.98a5.3 5.3 0 0 1-.4-2.15c-.03-.37 0-.75.12-1.13a3.05 3.05 0 0 1 2.93-2.1 3 3 0 0 1 3.04 3.19c.2-.1.41-.1.6 0 .34.18.43.67.2 1.1-.25.42-.72.6-1.07.43a.61.61 0 0 1-.13-.1 2.85 2.85 0 0 1-3.04 2.32 2.77 2.77 0 0 1-2.25-1.56" fill="#ffd2bb" fill-rule="nonzero"/><path d="M115.1 29.83c-.01.14.1.27.24.28.15.02.28-.09.3-.23a.26.26 0 0 0-.25-.28.26.26 0 0 0-.29.23M112.81 29.76c-.01.15.1.27.24.29.15 0 .28-.1.3-.24a.26.26 0 0 0-.25-.28.26.26 0 0 0-.29.23" fill="#303030" fill-rule="nonzero"/><path d="M114.83 29.3c.14-.05.27-.08.4-.1a1.33 1.33 0 0 1 .72.1l.05.03.04.02.09.04c.06.04.1.08.17.1a1.3 1.3 0 0 0-.11-.16c-.05-.05-.1-.11-.16-.15a.93.93 0 0 0-.84-.12.86.86 0 0 0-.36.23M113.76 29.25a.92.92 0 0 0-1.18-.21c-.07.02-.12.08-.17.12-.05.05-.1.1-.13.16l.18-.09.1-.03.04-.02.05-.02a1.25 1.25 0 0 1 .73-.04c.13.03.25.07.38.13" fill="#01025d" fill-rule="nonzero"/><path d="M114.18 29.24a1.96 1.96 0 0 1-.01.84.7.7 0 0 1-.14.27l-.03.04-.03.02-.04.04a.22.22 0 0 0-.05.08c-.02.06 0 .13.04.2.09.13.25.22.44.28a.66.66 0 0 1-.55-.2.38.38 0 0 1-.1-.31l.03-.09.05-.07.06-.06.02-.02.02-.02a.68.68 0 0 0 .11-.21l.07-.26.1-.53" fill="#ff9994" fill-rule="nonzero"/><path d="M113.35 31.37c.1.32.48.55.95.54.46 0 .84-.25.92-.57l-1.87.03Z" fill="#fff" fill-rule="nonzero"/><path d="M117.78 29.88c.17-.16.31-.16.31-.16l-.12-.95-.32-.57s-1.22-1.5-1.27-1.54c-.04-.04-.95-.5-1-.53-.06-.02-1.3.21-1.3.21s-2.2-.36-1.8.77c.42 1.13 2.05 1.67 2.13 1.62-.27-.25-.33-.98-.33-.98 1.18 1.19 3.36 2 3.7 2.13" fill="#01025d" fill-rule="nonzero"/><path d="m98.67 21.32 7.12 59.99.35-.04-7.12-59.98-.35.03Z" fill="#9e4325" fill-rule="nonzero"/><path d="m100.34 40.65.02-.32a.36.36 0 0 1 .25-.26l.14-.05.01.32c0 .25-.01.23.33.38.48.21.28.47.28.47s-.14.18-.73-.12c0 0-.28-.15-.3-.42" fill="#ffc1bc" fill-rule="nonzero"/><path d="m100.28 40.93.03-.3a.34.34 0 0 1 .23-.26l.14-.04.01.3c-.01.24-.01.22.31.36.46.2.27.45.27.45s-.13.17-.7-.11c0 0-.27-.15-.28-.4" fill="#ffc1bc" fill-rule="nonzero"/><path d="m100.36 41.3.02-.27c.02-.1.1-.18.2-.2l.11-.04.01.26c0 .2-.01.18.26.3.4.17.23.37.23.37s-.1.15-.59-.09c0 0-.22-.12-.24-.34M100.44 40.26l.03-.32a.35.35 0 0 1 .24-.27l.15-.04v.32c0 .24 0 .23.33.38.49.2.28.46.28.46s-.13.18-.72-.12c0 0-.29-.15-.3-.41" fill="#ffc1bc" fill-rule="nonzero"/><path d="M100.87 39.95v.16c.02.05.06.09.11.1l.3.14.08.04.07.05c.04.04.08.1.1.15a.24.24 0 0 1-.03.21l-.04.04a.26.26 0 0 1-.1.03h-.17l-.16-.05c-.11-.04-.21-.08-.31-.14a.68.68 0 0 1-.23-.24.42.42 0 0 1-.05-.16v-.16.08l.01.08.06.15c.05.09.14.16.23.22l.3.12c.1.03.22.06.32.04.02 0 .05 0 .07-.02l.02-.02.02-.03a.2.2 0 0 0 .01-.14.3.3 0 0 0-.08-.12l-.07-.05-.06-.05-.3-.14a.3.3 0 0 1-.07-.05.14.14 0 0 1-.04-.08v-.16" fill="#ff9994" fill-rule="nonzero"/><path d="M101.3 40.84c.06.05.12.13.12.21 0 .05 0 .1-.03.13l-.02.03a.23.23 0 0 1-.1.04.62.62 0 0 1-.26-.01 1.59 1.59 0 0 1-.25-.09l-.12-.05a.63.63 0 0 1-.28-.27.5.5 0 0 1-.03-.12c0-.03-.01-.05 0-.07v-.06c0-.09.01-.17.03-.25v.37c.01.04.02.08.05.11a.62.62 0 0 0 .26.24l.11.06.24.08c.08.02.17.03.24.02.04 0 .08-.02.1-.05a.22.22 0 0 0 .04-.1l-.03-.12a.44.44 0 0 0-.08-.1" fill="#ff9994" fill-rule="nonzero"/><path d="M101.3 41.23a.2.2 0 0 1 0 .18.1.1 0 0 1-.03.05.16.16 0 0 1-.04.02.32.32 0 0 1-.1.03.86.86 0 0 1-.37-.07 2.33 2.33 0 0 1-.17-.08.6.6 0 0 1-.26-.26.39.39 0 0 1-.05-.17.61.61 0 0 0 .33.39 2.68 2.68 0 0 0 .34.12l.18.03c.03 0 .06 0 .08-.02.02 0 .03 0 .04-.02l.02-.03a.2.2 0 0 0 .02-.16M101.17 45.48a.2.2 0 0 1 .07.15.2.2 0 0 1-.03.1l-.02.02a.14.14 0 0 1-.05.02.38.38 0 0 1-.17.02 1.35 1.35 0 0 1-.32-.1l-.08-.05a.58.58 0 0 1-.07-.05.39.39 0 0 1-.14-.3c.02.11.09.2.17.26l.07.05.07.03a1.4 1.4 0 0 0 .3.1c.06.02.11.02.16 0h.03l.02-.02v-.01a.17.17 0 0 0 .02-.15.27.27 0 0 0-.03-.07" fill="#ff9994" fill-rule="nonzero"/><path fill="none" d="M0 0h160v140H0z"/></svg>