<svg viewBox="0 0 160 140" xmlns="http://www.w3.org/2000/svg" xml:space="preserve" fill-rule="evenodd" clip-rule="evenodd" stroke-linejoin="round" stroke-miterlimit="2"><ellipse cx="80" cy="124.61" rx="66.95" ry="15.39" fill="#06d372"/><g fill-rule="nonzero"><path d="M63.13 71.67c1.9-.66 5.95-2.7 4.04-5.47-1.92-2.76-3.52-8.4-7.04-8.4-2.8 0-6.31 1.42-6.31 4.63 0 2.47-2.69 12.7-3.34 14.22-.65 1.52.8 3.27 3.34 3.06 2.54-.2 4.85-1.14 5.82-3.97a7.6 7.6 0 0 1 3.48-4.07" fill="#2a2359"/><path d="m58.83 120.03-.16 1.63 1.35.4 1.1-1.16.17-.67-2.46-.2Z" fill="#ffbc94"/><path d="M63.1 87.34s2.04 13.18 1.5 18.82c-.56 5.65-3.32 14.1-3.32 14.1H58.8s.05-1.02.14-4.39c.13-4.3 0-7.82 1.88-10.03-.97-4.2-3.46-18.5-3.46-18.5h5.74Z" fill="#ffbc94"/><path d="M60.59 89.6s-.66 12.12-2.66 17.43c-5.12 3.5-9.78 5.19-12.88 6.4-.14.06-.76-2.24-.76-2.24 3.45-2.25 6.47-6.31 9.98-5.8-.6-3.88-1.19-13.86-1.19-13.86l7.51-1.94ZM57.84 68.03v4.99s1.66.88 3.1 0c-.22-1.11-.35-4.64-.35-4.64l-2.75-.35Z" fill="#ffbc94"/><path d="M54.87 70.72h8.27s1.48 3.34 1.28 6.19c-.2 2.85-.56 10.62-.56 10.62s-5.07-1.16-8.31-2.15c-.26-5.86-2-8.53-1.88-10.43.12-1.9 1.2-4.23 1.2-4.23" fill="#8daaf8"/><path d="M63.07 63.67c0 2.8-1.68 5.06-3.76 5.06s-3.76-2.27-3.76-5.06c0-2.79 1.68-5.05 3.76-5.05s3.76 2.26 3.76 5.05" fill="#ffbc94"/><path d="M55.3 63.67c2.08-.26 4-1.42 5.1-2.91.7 1.74 2.67 2.91 2.67 2.91s1.48-3.34-1.2-5.14c-2.57-1.72-8.68-.55-6.57 5.14" fill="#2a2359"/><path d="M57.73 64.75a.4.4 0 1 1 0-.8.4.4 0 0 1 0 .8M60.91 64.75a.4.4 0 1 1 0-.8.4.4 0 0 1 0 .8"/><path d="M61.62 64a.2.2 0 0 1-.17-.1c-.1-.17-.22-.27-.35-.3-.24-.05-.47.1-.48.1a.2.2 0 0 1-.22-.3c.02-.02.37-.26.78-.17.24.05.45.2.6.47a.2.2 0 0 1-.16.3M56.97 64.01a.2.2 0 0 1-.15-.31c.25-.32.53-.49.83-.51.39-.03.65.2.66.22.08.07.09.19.01.27a.2.2 0 0 1-.27.01s-.16-.14-.37-.12c-.2.02-.38.14-.56.37a.19.19 0 0 1-.15.07" fill="#2a2359"/><path d="M59.7 64.88c.52.37.68.52.88.65-.13.46-.86.69-1.06.63.5-.25.57-.58.57-.58l-.38-.7Z" fill="#fd9f64"/><path d="M56.11 64.06c.43.55.45 1.25.05 1.57-.4.32-1.08.13-1.51-.41-.43-.55-.45-1.25-.05-1.57.4-.32 1.08-.13 1.51.41" fill="#ffbc94"/><path d="M55.73 65.24a.13.13 0 0 1-.11-.18c.09-.21.09-.39 0-.51-.13-.2-.45-.26-.68-.25a.13.13 0 1 1 0-.25c.3-.02.7.07.9.35.09.14.17.39.01.76a.13.13 0 0 1-.12.08" fill="#fd9f64"/><path d="M58.31 66.84a.12.12 0 0 1 .13-.17 9.64 9.64 0 0 0 2.18.2c.1 0 .16.11.09.19-.21.23-.63.58-1.26.53a1.5 1.5 0 0 1-1.14-.75" fill="#fff"/><path d="M60.06 121.89c.33-.89 1.05-.99 1.05-.99 1.4 1.87 4.84.72 4.73 3.25-5.23-.03-7.4 0-7.4 0 0-.58.1-1.96.23-2.5l.27.05 1.12.19Z" fill="#2a2359"/><path d="M65.59 124.82h-6.9a.25.25 0 0 1-.25-.25v-.49h7.4v.5c0 .13-.11.24-.25.24" fill="#1b173f"/><path d="m44.53 111.03-1.84.94.26 1.35 1.49.4.7-.32-.6-2.37Z" fill="#ffbc94"/><path d="M43.12 113.27c.9-.12 1.32.46 1.32.46-.97 2.04 1.57 4.48-.65 5.52-2.34-4.5-3.35-6.35-3.35-6.35.5-.26 1.73-.8 2.25-.93l.08.25.35 1.05Z" fill="#2a2359"/><path d="M43.08 119.3 40 113.47a.3.3 0 0 1 .12-.4l.38-.2 3.35 6.35-.38.2a.3.3 0 0 1-.4-.12" fill="#1b173f"/><path d="M55.08 101.86a19.46 19.46 0 0 0-3.84-.26c.54-1.81.38-13.02 3.82-16.87h8.66c3.06 5.26 1.9 13.05 3.8 16.24a17.1 17.1 0 0 1-5.53 1.52c-3 .3-4.34-.17-6.91-.63" fill="#010133"/><path d="m57.84 70.72-2.08-.17s-2.6-5.5-3.6-7.29c-.69-2.85.28-10.4.28-10.4l-3.03-.72s-1.39 9.2-.92 11.8c.13.69 3.9 8.75 3.9 8.75s1.28 2.26-.46 13.6c2.46.62 4.18.66 4.18.66l1.73-16.23ZM60.71 70.72l1.62 16.23s.73.25 3.5-.58c-1.34-6.77-.95-10.93-.76-12.23.04-.27.12-.53.25-.77.58-1.1 2.5-4.84 4.27-9.7-.12-2.26-1.75-11.53-1.75-11.53L64.97 52l.87 10.9s-3.06 6.68-3.43 7.8l-1.7.03Z" fill="#006eea"/></g><g fill-rule="nonzero"><path d="M80.26 53.35H37.74a3.54 3.54 0 0 1-3.54-3.54v-9.86a3.54 3.54 0 0 1 3.54-3.54h42.52a3.54 3.54 0 0 1 3.54 3.54v9.86a3.54 3.54 0 0 1-3.54 3.54" fill="#bdeecb"/><path d="m42.6 48.75-2.2-1.33-2.21 1.32a.28.28 0 0 1-.42-.31l.57-2.5-1.93-1.7a.28.28 0 0 1 .16-.5l2.56-.22 1.02-2.37c.1-.23.42-.23.52 0l1 2.37 2.57.24c.25.02.35.33.16.5l-1.94 1.68.57 2.51c.05.25-.21.44-.43.3M51.9 48.75l-2.2-1.33-2.22 1.32a.29.29 0 0 1-.42-.31l.58-2.5-1.93-1.7a.28.28 0 0 1 .16-.5l2.56-.22 1.02-2.37c.1-.23.42-.23.52 0l1 2.37 2.57.24c.25.02.35.33.16.5l-1.94 1.68.56 2.51c.06.25-.2.44-.42.3M61.2 48.75 59 47.42l-2.22 1.32a.28.28 0 0 1-.42-.31l.58-2.5-1.94-1.7a.28.28 0 0 1 .17-.5l2.56-.22 1.01-2.37c.1-.23.43-.23.53 0l1 2.37 2.56.24c.25.02.35.33.16.5l-1.94 1.68.57 2.51c.06.25-.2.44-.42.3M70.5 48.75l-2.21-1.33-2.21 1.32a.29.29 0 0 1-.42-.31l.58-2.5-1.94-1.7a.28.28 0 0 1 .16-.5l2.57-.22 1.01-2.37c.1-.23.43-.23.52 0l1.01 2.37 2.56.24c.25.02.35.33.16.5l-1.94 1.68.57 2.51c.05.25-.21.44-.42.3M79.8 48.75l-2.21-1.33-2.21 1.32a.28.28 0 0 1-.42-.31l.57-2.5-1.93-1.7a.28.28 0 0 1 .16-.5l2.56-.22 1.02-2.37c.1-.23.42-.23.52 0l1 2.37 2.57.24c.25.02.35.33.16.5l-1.94 1.68.57 2.51c.05.25-.21.44-.43.3" fill="#f9f900"/></g><path d="M74.72 111.97 72 124.61c-.08.34-.2.54-.33.54-.23 0-.42-.68-.38-1.42l.6-11.76h2.83ZM122.9 111.97l2.73 12.64c.07.34.19.54.32.54.24 0 .42-.68.38-1.42l-.59-11.76h-2.83Z" fill="#007417" fill-rule="nonzero"/><path d="M103.11 114.25H74.1a3.05 3.05 0 0 1-3.05-3.05V95.71c0-1.3 1.07-2.37 2.38-2.37h29.7v20.91Z" fill="#c0efcd" fill-rule="nonzero"/><path d="M109.2 114.25H80.18a3.05 3.05 0 0 1-3.05-3.05V95.71c0-1.3 1.06-2.37 2.37-2.37h29.7v20.91Z" fill="#00c53f" fill-rule="nonzero"/><path d="M143.42 98.63H91.53v-10.9a2.27 2.27 0 0 1 2.28-2.27h49.6v13.17Z" fill="#c0efcd" fill-rule="nonzero"/><path d="M146.95 98.27h-67.1a2.78 2.78 0 0 0-2.77 2.78v3.2h69.87v-5.98Z" fill="#b4ecc4" fill-rule="nonzero"/><path fill="#c0efcd" d="M77.08 103.56h69.87v10.71H77.08z"/><path d="M146.94 98.63h-7.04V85.46h4.77a2.28 2.28 0 0 1 2.27 2.27v10.9Z" fill="#00c43f" fill-rule="nonzero"/><path d="m76.99 121.88-2.26.74-1.08-1.99c.1-.08.15-1.45.18-2.5l3.74.27a27.99 27.99 0 0 1-.58 3.48" fill="#ffbc94" fill-rule="nonzero"/><path d="M73.01 123.36s-.88-1.28-1.9-1.3c0 0-1.9.23-2.5 1.08-.2.26-.08.8.03 1.13.06.21.26.43.83.57.85.2 1.98.3 4-.38 2.44-.8 2.85-.57 3.74-.92.93-.37.55-1.51.21-2.62 0 0-.6 1.42-4.41 2.44" fill="#2a2359" fill-rule="nonzero"/><path d="M73.58 120.44s-1.06.74-2.49 1.17c-.8.23-2.92.8-2.47 2.2.06.22.26.44.83.58.85.2 1.98.29 4-.38 2.44-.8 2.85-.57 3.74-.93.93-.36.4-1.65.07-2.76 0 .29-.08 1.05-1.76 1.83-.5.24-.23-2.05-1.92-1.72" fill="#2a64d0" fill-rule="nonzero"/><path d="m85.95 121.62-2.2.89-1.21-1.9c.09-.09.05-1.46 0-2.5h3.75a28.25 28.25 0 0 1-.34 3.5" fill="#ffbc94" fill-rule="nonzero"/><path d="M88.05 96.26c-5.07 1.28-12.14 5.1-12.81 5.9-1.38 1.66-1.5 7.08-1.55 16.7h4.1c1.17-7.59 2.65-10.95 2.7-14 0 0 3.96 0 9.73-2.68 2.85-1.32 5.8-2.84 4.75-5.42-.83-2.06-2.08-1.72-6.92-.5" fill="#34238e" fill-rule="nonzero"/><path d="M93.67 95.8c-4.24.72-9.6 5.98-10.27 6.78-1.38 1.67-.8 7.02-.86 16.64h3.88c.4-5.01 2.33-10.72 2.08-14.36 0 0 4.17-.62 9.95-3.3 2.84-1.33 5.73-1.2 5.04-4.5-.45-2.17-4.9-2.11-9.82-1.27" fill="#004ceb" fill-rule="nonzero"/><path d="M81.1 78.51c1.08-1.08.37-2.19.37-2.19.6-.12 3.7 4.58 5.03 7.56 2.33-2.35 6.45-5.52 7.56-5.7 0 0 1.5-.41 2.04 1.4.48 1.62-1.4 2.77-1.4 2.77S86.68 88 85.5 87.5c-1.85-.78-3.52-7.53-4.38-9" fill="#ffbc94" fill-rule="nonzero"/><path d="M79.43 78.38c.65.04 1.46-.28 1.72.3l1.29-.63.08-.78c-1.11-1.77-3.82-2.28-4.09-2.3-.7-.06-1.02-.14-1.07-.04-.06.09-.23.7.78.83 1.27.15.43 1.17-2.14.2-.65-.24-1.86.07-1.42.54.48.52 1.87 1.7 4.85 1.88" fill="#ffbc94" fill-rule="nonzero"/><path d="M93.67 79.5c-2-.28-5.17-1.14-3.83-4.22 1.34-3.07 1.54-1.9.16-5-1.37-3.1.4-6.15 2.74-5.97 2.34.18 3.28 1.85 5.88.83 2.6-1.03 5.38 1.02 4.83 3.43-.55 2.4-.76 3.55.44 4.56 1.21 1.01 5.77 1.41 4.6 4.7-1.18 3.27-2.03 3.27-1.1 4.63.94 1.35-.14 3.35-2.67 3.64-2.53.3-4.97-.17-6.47-2.75-1.5-2.57-4.58-3.85-4.58-3.85" fill="#2a2359" fill-rule="nonzero"/><path d="M89.4 80.66c1.7-1.02 4.5-3.9 6.62-3.04 2.13.85 1.41 3.42.4 4.49a58.75 58.75 0 0 1-4.2 3.5l-2.82-4.95Z" fill="#009749" fill-rule="nonzero"/><path d="M103.24 96.47c-.95-4.9-.72-4.88-1.11-7.19-.98-5.68 4.03-10.25-3.29-12.5l-3.24.71c-3.12 1.54-3.73 4.3-4.04 6.2-.58 3.6-.07 8.96-.07 8.96l-1.23 3.06s.85.85 4.89 1.62c4.03.76 8.09-.86 8.09-.86" fill="#006a3c" fill-rule="nonzero"/><path d="M103.98 81.94c.78 2.88.86 12.4.2 13.26l-3.34-1.85s-1.55-9.92-1.73-11.58c-.3-2.87 3.6-4.54 4.87.17" fill="#ffbc94" fill-rule="nonzero"/><path d="M99.05 86.48c-.3-2.19-.72-6.37 1.12-7.74 1.84-1.38 3.6.3 3.97 1.72.38 1.43.8 5.4.8 5.4l-5.89.62Z" fill="#009749" fill-rule="nonzero"/><path d="M100.13 71.88c-.07 2.58-1.77 4.64-3.8 4.58-2.04-.05-3.63-2.2-3.56-4.78.07-2.59 1.77-4.64 3.8-4.58 2.04.05 3.63 2.2 3.56 4.78" fill="#ffbc94" fill-rule="nonzero"/><path d="m99.46 73.37-2.79 2.67s.02 1.48-.03 1.97c-.1 1.02 1.12 1.2 1.95.4.82-.8.9-1.63.9-1.63l-.03-3.4Z" fill="#ffbc94" fill-rule="nonzero"/><path d="M92.35 70.79c.93-.12 2.88-.7 3.42-1.7.88 1.63 3.41 2.82 5.38 3.21-.3-1.8-1-5.07-4.49-5.76-2.73-.54-4.3 4.25-4.3 4.25" fill="#2a2359" fill-rule="nonzero"/><path d="M93.77 72.27a.35.35 0 1 1-.68-.18.35.35 0 0 1 .68.18M96.67 72.23a.38.38 0 0 1-.74-.19c.05-.2.26-.33.47-.27.2.05.32.26.27.46" fill-rule="nonzero"/><path d="M97.02 71.83a.13.13 0 0 1-.07-.05c-.28-.36-.8-.33-.8-.33a.13.13 0 0 1-.02-.27c.02 0 .67-.04 1.03.45.04.06.03.14-.03.18a.14.14 0 0 1-.11.02M92.95 71.8l-.04-.02a.13.13 0 0 1-.03-.19.93.93 0 0 1 .86-.41c.07 0 .12.07.11.15a.13.13 0 0 1-.15.11.67.67 0 0 0-.6.3.13.13 0 0 1-.15.05" fill="#2a2359" fill-rule="nonzero"/><path d="M94.2 72.84c-.15.24-.28.47-.43.63a.14.14 0 0 0-.01.19c.2.23.67.35.96.4.04.01.06-.04.02-.06a1.82 1.82 0 0 1-.53-.41.17.17 0 0 1-.03-.15c.03-.12.1-.36.13-.55.01-.07-.08-.1-.12-.05" fill="#ffbc94" fill-rule="nonzero"/><path d="M99.2 72.09c-.4.46-.4 1.1-.02 1.42.38.32 1 .2 1.4-.26.39-.46.4-1.1.02-1.42-.38-.32-1-.2-1.4.26" fill="#feb183" fill-rule="nonzero"/><path d="M99.73 73.28a.13.13 0 0 1-.05-.03c-.24-.2-.3-.47-.2-.71a.64.64 0 0 1 .63-.38c.08 0 .13.07.12.15 0 .07-.07.12-.14.11a.38.38 0 0 0-.37.23c-.06.13-.01.27.13.4.06.05.06.13.01.19a.13.13 0 0 1-.13.04" fill="#fc8f49" fill-rule="nonzero"/><path d="M101.1 93.08c.96-.31 3.2 1.78 3.11 2.13-2.87 5.27-10.22 7.43-10.22 7.43l-1.29-.97s4.95-4.17 8.4-8.6M93.99 102.64c-.14 1.37-2.2 3.16-3.98 3.29-1.8.13-1.22-1.6-.51-2.05.7-.44 1.71-.89 1.46-1.24-.25-.36-.7-.26-1.02-.67-.28-.37 1.11-1.1 2.76-.3l1.29.97" fill="#ffbc94" fill-rule="nonzero"/><path d="M95.45 74.87c.05.24-.13.49-.4.54-.26.06-.52-.1-.57-.34-.06-.24.12-.49.39-.54.27-.06.53.1.58.34" fill="#fff" fill-rule="nonzero"/><path d="M82.1 123.37s-.98-1.22-2-1.16c0 0-1.86.37-2.42 1.25-.17.28-.02.8.11 1.13.08.2.3.41.88.5.86.16 1.99.16 3.96-.65 2.37-.98 2.8-.77 3.67-1.19.9-.43.44-1.54.02-2.62 0 0-.5 1.46-4.23 2.74" fill="#2a2359" fill-rule="nonzero"/><path d="M82.45 120.42s-1 .81-2.4 1.34c-.77.3-2.85 1-2.3 2.38.07.2.28.41.87.5.86.15 1.99.16 3.96-.65 2.37-.98 2.8-.77 3.67-1.19.9-.43.28-1.68-.13-2.76.02.29-.01 1.05-1.63 1.95-.48.27-.37-2.03-2.04-1.57" fill="#2a64d0" fill-rule="nonzero"/><path d="M115.64 77.42c-2.56.78-3.83 6.16-4.92 11.8a507.62 507.62 0 0 0-4.73 9.53c1.57.35 2.86-.63 2.86-.63s3.98-3.65 5.82-7.67c.42-.92.56-2.77.8-3.6.1-2.57.17-9.43.17-9.43" fill="#5980ec" fill-rule="nonzero"/><path d="m102.14 121.9-2.26.73-1.07-1.99c.1-.08.15-1.45.17-2.49l3.75.27a28 28 0 0 1-.59 3.47" fill="#ff7b4c" fill-rule="nonzero"/><path d="M98.17 123.37s-.89-1.28-1.9-1.3c0 0-1.9.24-2.5 1.08-.2.26-.08.8.02 1.13.07.21.27.43.84.57.85.2 1.98.3 4-.38 2.43-.8 2.85-.57 3.74-.92.93-.37.55-1.5.21-2.62 0 0-.6 1.43-4.41 2.44" fill="#1b173f" fill-rule="nonzero"/><path d="M98.73 120.45s-1.06.74-2.48 1.17c-.8.24-2.92.8-2.48 2.2.07.22.27.44.84.58.85.2 1.98.29 4-.38 2.44-.8 2.85-.57 3.74-.93.93-.36.4-1.65.07-2.76 0 .29-.09 1.05-1.76 1.84-.5.23-.23-2.06-1.93-1.72" fill="#2a2359" fill-rule="nonzero"/><path d="M99.17 122.15a.2.2 0 0 1-.19-.13c-.22-.7-.95-.7-.98-.7a.2.2 0 0 1 0-.4c.36 0 1.1.2 1.36.98a.2.2 0 0 1-.2.25M98.29 122.58a.2.2 0 0 1-.19-.14c-.22-.69-.95-.69-.98-.69a.2.2 0 0 1 0-.4c.35 0 1.1.2 1.35.97a.2.2 0 0 1-.18.26" fill="#464b82" fill-rule="nonzero"/><path d="m111.18 122.16-2.2.9-1.21-1.91c.08-.09.31-1.55.26-2.59l3.5.09a28.25 28.25 0 0 1-.35 3.5" fill="#ff7b4c" fill-rule="nonzero"/><path d="M113.21 96.27c-5.07 1.28-12.14 5.1-12.81 5.9-1.39 1.66-1.75 7.08-1.82 16.7h4.52c1.16-7.59 2.5-10.95 2.55-14 0 0 3.96 0 9.73-2.68 2.85-1.32 5.8-2.84 4.75-5.42-.83-2.05-2.08-1.72-6.92-.5" fill="#1b173f" fill-rule="nonzero"/><path d="M118.98 96.33c-4.23.73-9.6 6-10.27 6.8-1.38 1.66-1.21 7-1.27 16.63l4.5.11c.4-5 2.13-10.83 1.88-14.47 0 0 3.95-1.14 10.05-2.94 3.34-1 4.32-1.59 4.82-3.84.17-.77.35-2.54-.01-2.9-1.61-1.63-5.69-.07-9.7.61" fill="#2a2359" fill-rule="nonzero"/><path d="M107.32 123.91s-.97-1.22-1.98-1.16c0 0-1.88.37-2.43 1.25-.17.28-.02.8.11 1.13.08.2.3.41.88.51.85.15 1.99.15 3.96-.66 2.37-.98 2.8-.77 3.67-1.19.9-.43.43-1.54.02-2.62 0 0-.5 1.46-4.23 2.74" fill="#1b173f" fill-rule="nonzero"/><path d="M107.68 120.96s-1 .81-2.4 1.34c-.77.3-2.85 1-2.31 2.38.08.2.3.41.88.51.85.14 1.99.15 3.96-.66 2.37-.98 2.8-.77 3.66-1.19.9-.43.29-1.67-.12-2.76.01.29-.01 1.05-1.63 1.95-.48.28-.37-2.03-2.04-1.57" fill="#2a2359" fill-rule="nonzero"/><path d="M108.62 122.68a.2.2 0 0 1-.19-.14c-.22-.69-.95-.69-.98-.69a.2.2 0 0 1 0-.39c.36 0 1.1.19 1.35.96a.2.2 0 0 1-.18.26M107.73 123.1a.2.2 0 0 1-.18-.13c-.22-.7-.95-.7-.98-.7a.2.2 0 0 1 0-.39c.35 0 1.1.2 1.35.97a.2.2 0 0 1-.19.25" fill="#464b82" fill-rule="nonzero"/><path d="M122 73.11h-1.71l-.39 4.04 2 1.05 2.12-1.04-.34-4.04H122Z" fill="#ffbc94" fill-rule="nonzero"/><path d="M122.77 72.5c1.43.62 2.77-1.04 2.77-1.04.96.12 1.08-.83 1.08-.83.47 0 .6-.57 1.24-1.17 1.94-1.85-3.3-7.21-5.13-6.59-.77.26-4.04.17-4.77.8-.67.6-2.16 4.11-1.72 4.62.28.32.6.44.6.44.34.17.08 1.11.34 1.39.4.44.88.81 1.39 1.14l4.2 1.24Z" fill="#2a2359" fill-rule="nonzero"/><path d="M125.86 70.52c-.47 2.79-3 4.9-5.18 4.52-2.2-.37-3.22-3.1-2.74-5.88s2.64-4.74 4.83-4.36c2.19.37 3.57 2.94 3.1 5.72" fill="#ffbc94" fill-rule="nonzero"/><path d="M119 69.81a.39.39 0 1 1-.72-.3.39.39 0 0 1 .72.3M122.07 70.36a.42.42 0 1 1-.77-.32.42.42 0 0 1 .77.32" fill-rule="nonzero"/><path d="m119.7 70.3-.96 1.13s.13.61.9.73c-.3-.18-.6-.45-.41-.87l.47-1" fill="#fda26a" fill-rule="nonzero"/><path d="M122.76 69.96c.02 0 .03 0 .05-.02a.2.2 0 0 0 .09-.25c-.13-.26-.52-.73-1.1-.6a.2.2 0 0 0 .08.38c.43-.1.67.38.67.38a.2.2 0 0 0 .21.11M119.22 68.93c.03 0 .06-.02.08-.04a.16.16 0 0 0 0-.22.8.8 0 0 0-.55-.25c-.22.01-.43.13-.61.35a.16.16 0 1 0 .25.2c.12-.14.24-.22.37-.22.17 0 .3.13.31.13.04.05.1.06.15.05" fill="#2a2359" fill-rule="nonzero"/><path d="m117.75 65.8 5.12-2.45 4.4 4.14-1.73 3.54c.37-1.76-.85-1.51-1.25-2.17-.4-.67-.4-1.54-1.91-1.22 0 0-.84-1.03-1.69-.17-.65.67-1.17.35-1.75.23-.68-.15-.71.55-1.11.4l-.08-2.3Z" fill="#2a2359" fill-rule="nonzero"/><path d="M125.27 70.22c-.5.44-.6 1.12-.25 1.53.36.4 1.06.38 1.56-.06s.6-1.12.25-1.53c-.36-.4-1.06-.38-1.56.06" fill="#ffbc94" fill-rule="nonzero"/><path d="M125.66 71.59a.15.15 0 0 1-.06-.04c-.21-.26-.25-.56-.1-.8a.7.7 0 0 1 .75-.31.15.15 0 1 1-.07.28c-.15-.04-.34.04-.43.18-.09.14-.06.3.08.46a.15.15 0 0 1-.17.23" fill="#fda26a" fill-rule="nonzero"/><path d="M120.52 73.33c-.06.3-.38.5-.72.45-.34-.06-.57-.37-.51-.68.05-.31.38-.51.72-.45.34.06.57.36.51.67" fill="#fff" fill-rule="nonzero"/><path d="M125.58 78.15a11.01 11.01 0 0 0-3.85-.57c-4.42 0-5.1 1.12-5.1 1.1l3.28 9.01 1.82.9 2-.59s2.57-9.58 1.85-9.85" fill="#ffd1b7" fill-rule="nonzero"/><path d="M128.89 96.1s-3.6.91-6.95.94a25.4 25.4 0 0 1-6.88-1.23s.45-6.15.4-8.5c-.06-2.72.18-6.3.18-9.89 0 0 2.37-.38 3.7-.55l.56-.06s.77 1.6 4.09 0h.63c1.4.08 3.65.61 3.65.61 0 3.57.14 7.07.1 9.78l.52 8.9" fill="#a2aaf8" fill-rule="nonzero"/><path d="m120.09 85.16-.81-.47s-.23-1.15-1.53-1.17l.37 1.17s-.64.5-2.16-.35c-1.49-.33-.85.75-1.34.83-.73.11.52 1.54 2 1.75 1.92.29 2.15-.1 2.15-.1l1.09.37.23-2.03Z" fill="#ffbc94" fill-rule="nonzero"/><path d="M127.58 86.39c-2.7-.19-7.32-1.53-7.32-1.53-.74 1.14-.54 2.64-.54 2.64 4.2 3.69 10.53 4.88 12.48 4 1.77-.82.52-11.6-3.93-14.08l-.16.02c-1.52 2.58-.53 8.95-.53 8.95" fill="#5980ec" fill-rule="nonzero"/><path d="M106.33 99.07a.42.42 0 0 0 .06-.13l.02.02c.39.25.85.22 1.03-.06l.06-.15c.29.07.56 0 .69-.2a.46.46 0 0 0 .07-.27c.28.08.58 0 .72-.22.18-.28.05-.68-.28-.9-.34-.2-3.26 1.06-3.39 1.25-.15.24-.04.58.24.76.28.18.63.13.78-.1" fill="#ffbc94" fill-rule="nonzero"/><path d="M124.62 76.81c-.23.39-.56.68-1.02.91-.73.37-1.72.53-2.33.48a2.69 2.69 0 0 1-1.37-.5 1.58 1.58 0 0 1-.55-.83l.59-.07s.73 1.61 4.05.01h.63" fill="#5980ec" fill-rule="nonzero"/><path d="M143.24 114.01h-21.32a2.6 2.6 0 0 1-2.6-2.6V95.13c0-1.11.9-2.02 2.02-2.02h22.48c1.12 0 2.02.9 2.02 2.02v16.3a2.6 2.6 0 0 1-2.6 2.6" fill="#c0efcd" fill-rule="nonzero"/><path d="M146.95 114.27h-18.96a2.34 2.34 0 0 1-2.35-2.35v-17c0-1 .82-1.82 1.82-1.82h19.49v21.17Z" fill="#00c53f" fill-rule="nonzero"/><g fill-rule="nonzero"><path d="M6.36 28.08h19.92c2.47 0 4.47 2 4.47 4.47v9.29c0 2.47-2 4.46-4.47 4.46h-.14l1.6 5.36c.07.24-.2.43-.4.28l-7.39-5.63H6.35c-2.46 0-4.46-2-4.46-4.47v-9.29c0-2.47 2-4.47 4.47-4.47" fill="#bdeecb"/><path d="M26.27 35.88H7.14a2.21 2.21 0 1 1 0-4.42h19.14a2.21 2.21 0 0 1 0 4.42M26.27 42.63H7.14a2.21 2.21 0 1 1 0-4.42h19.14a2.21 2.21 0 0 1 0 4.42" fill="#fff"/></g><g fill-rule="nonzero"><path d="M60.26 9.92h19.93c2.46 0 4.46 2 4.46 4.47v9.29c0 2.46-2 4.46-4.47 4.46h-.14l1.6 5.36c.07.24-.2.43-.4.28l-7.38-5.64h-13.6c-2.47 0-4.47-2-4.47-4.46v-9.3c0-2.46 2-4.46 4.47-4.46" fill="#bdeecb"/><path d="M80.18 17.72H61.04a2.21 2.21 0 0 1 0-4.42h19.14a2.21 2.21 0 0 1 0 4.42M80.18 24.48H61.04a2.21 2.21 0 0 1 0-4.43h19.14a2.21 2.21 0 0 1 0 4.43" fill="#fff"/></g><g fill-rule="nonzero"><path d="M153.63 36.4h-18.42a4.13 4.13 0 0 0-4.13 4.13v8.6a4.13 4.13 0 0 0 4.13 4.12h.14l-1.48 4.95c-.07.22.19.4.37.26l6.82-5.21h12.57a4.13 4.13 0 0 0 4.13-4.13v-8.59a4.13 4.13 0 0 0-4.13-4.12" fill="#bdeecb"/><path d="M153.47 43.66h-18.54c-.92 0-1.67-.74-1.67-1.66v-.42c0-.92.75-1.66 1.67-1.66h18.54c.93 0 1.67.74 1.67 1.66V42c0 .92-.74 1.66-1.66 1.66M144.42 49.33h-8.68a1.87 1.87 0 0 1 0-3.75h8.68a1.87 1.87 0 1 1 0 3.75" fill="#fff"/></g><g fill-rule="nonzero"><path d="M118.4 33.83H100a4.13 4.13 0 0 0-4.13 4.13v8.59a4.13 4.13 0 0 0 4.13 4.12h.14l-1.48 4.96c-.07.21.18.39.36.25l6.83-5.2h12.57a4.13 4.13 0 0 0 4.13-4.13v-8.6a4.13 4.13 0 0 0-4.13-4.12" fill="#bdeecb"/><path d="M112.49 41.09H99.9a1.87 1.87 0 1 1 0-3.75h12.58a1.87 1.87 0 1 1 0 3.75M118.78 46.75h-18.27a1.87 1.87 0 0 1 0-3.74h18.27a1.87 1.87 0 1 1 0 3.74" fill="#fff"/></g><g fill-rule="nonzero"><path d="M25.82 68.42h1.71l.39 4.06-2 1.05-2.14-1.04.35-4.06h1.69Z" fill="#ffbc94"/><path d="M20.71 66.13c1.18 2.93 4 4.56 6.3 3.64 2.3-.92 3.22-4.04 2.04-6.98-1.17-2.93-3.99-4.56-6.3-3.64-2.3.92-3.21 4.05-2.04 6.98" fill="#ffbc94"/><path d="M28.05 63.76a.43.43 0 1 0 .71-.5.43.43 0 0 0-.7.5M24.82 65.07a.47.47 0 1 0 .77-.53.47.47 0 0 0-.77.53"/><path d="m27.4 64.44 1.31 1.02s0 .7-.81 1c.3-.26.55-.62.25-1.04l-.75-.98" fill="#fd9f64"/><path d="M23.97 64.8a.21.21 0 0 1-.21-.27c.07-.32.4-.92 1.05-.92.12 0 .21.1.21.22 0 .11-.1.21-.21.21-.49 0-.63.58-.63.59a.22.22 0 0 1-.21.16M27.6 62.84c-.03 0-.06 0-.09-.02a.18.18 0 0 1-.06-.25c0-.01.2-.33.55-.4.24-.04.5.04.75.24a.18.18 0 1 1-.23.28c-.16-.13-.32-.18-.46-.16-.19.04-.3.22-.3.22a.18.18 0 0 1-.16.1" fill="#1b173f"/><path d="M18.12 64.97c-.74-2.9 1.71-5.18 1.71-5.18s-.32-.03-.65-.17c-.46-.2-.31-.88.18-.88.6.01 1.32-.1 1.85-.5 3.32-2.48 6.02-1.15 6.02.23 0 .5 3.04.82 1.93 4.6.07-.22-1.2-2.49-1.92-2.63-.72-.13-.07.83-1.57 1.04-1.52.2-2.63-.16-3.56.7-1.72 1.76-.03 6.01.08 6.24-.25-.52-3.26-.23-4.07-3.45" fill="#1b173f"/><path d="M21.89 65.5c.65.37.93 1.1.63 1.63-.3.53-1.06.66-1.7.3-.66-.37-.94-1.1-.64-1.62.3-.53 1.06-.67 1.71-.3" fill="#feaf7f"/><path d="M21.8 67.1a.17.17 0 0 0 .04-.06c.18-.33.15-.67-.08-.9a.78.78 0 0 0-.89-.16.16.16 0 1 0 .15.29c.15-.08.38-.04.51.1.13.13.13.31.02.52a.16.16 0 0 0 .24.2M26.84 67.97a3.3 3.3 0 0 1-.77-.3.14.14 0 0 1-.06-.2c.04-.07.12-.1.2-.06.59.32 1.12.41 1.58.27.57-.17.82-.65.83-.65.04-.07.12-.1.2-.06.06.03.09.12.05.2a1.76 1.76 0 0 1-2.03.8" fill="#fd9f64"/><path d="M28.94 121.4c1.52 2.1 5.24.8 5.12 3.64-5.66-.04-8.02 0-8.02 0 .01-.65.12-2.2.26-2.8l2.64-.84ZM20.02 121.4c1.51 2.1 5.23.8 5.11 3.64-5.66-.04-8.01 0-8.01 0 0-.65.12-2.2.25-2.8l2.65-.84Z"/><path d="M31.52 89.42s1.64 13.9 1.27 16.87c-.37 2.98-2.42 6.32-2.27 16.18-1.84.46-4.52 0-4.52 0s-.4-11.15 1.56-16.13c-.8-4.83-3.34-15.9-3.34-15.9l7.3-1.02Z" fill="#1b173f"/><path d="M28.07 89.83s-1.86 15.06-2.76 17.91c-.91 2.86-2.3 4.96-3.94 14.67-1.9.1-4.05.31-4.05.31s.25-12.32 3.2-15.12c.1-4.9-.47-17.67-.47-17.67l8.02-.1Z" fill="#2a2359"/><path d="M19.13 72.24s3.71-.13 4.76-.06c2.18 1.96 4.03-.04 4.03-.04 1.17-.26 3.94-.26 3.94-.26.35 4.68.93 19.63.93 19.63s-3.55.93-6.92.95c-3.36-.02-7.9-.8-7.9-.8s.67-6.57.82-9c-.05-2.72.34-6.83.34-10.42" fill="#009749"/><path d="M45.7 74.24a1.88 1.88 0 0 0-.33-.75c-1.24-2.27-4.73-1.4-9.79-.5-.84.14-.56-.94-.7-3.17-.08-1.45-1.43-3.43-2.96-3.13-2.54.5.3 2-.96 7.37-.68 2.87-3.64 1.93-3.12 4.57l1.2 6c.2 1.03.5 2 1.99 1.87 1.43-.12 1.32.94 3.35.54L44.53 85a1.91 1.91 0 0 0 1.5-2.24 1.89 1.89 0 0 0-.61-1.05 1.9 1.9 0 0 0 .64-1.82 1.88 1.88 0 0 0-.61-1.05 1.9 1.9 0 0 0-.16-3.02c.36-.43.54-1 .42-1.59" fill="#ffd61b"/><path d="m39.36 77.45 4.84-.97c.66-.13 1.21-.6 1.44-1.23a.5.5 0 0 0-.95-.33c-.1.3-.37.52-.68.58l-4.96 1a.9.9 0 0 1-1.07-.72.9.9 0 0 1 .72-1.06l3.31-.66a.5.5 0 0 0 .4-.6.5.5 0 0 0-.6-.38l-3.3.66a1.89 1.89 0 0 0-.54 3.53 1.9 1.9 0 0 0 .66 2.73 1.9 1.9 0 0 0 .8 2.8c-.23.4-.33.86-.23 1.33a1.91 1.91 0 0 0 2.25 1.5l3.08-.62c.66-.13 1.21-.6 1.44-1.23a.5.5 0 0 0-.31-.64.5.5 0 0 0-.64.3c-.1.3-.37.53-.68.6l-3.09.6a.9.9 0 1 1-.35-1.77l3.66-.73c.66-.13 1.2-.6 1.43-1.23a.5.5 0 0 0-.3-.64.5.5 0 0 0-.64.3.9.9 0 0 1-.69.6l-3.97.78a.9.9 0 0 1-1.07-.7.9.9 0 0 1 .71-1.07l4.56-.9c.66-.14 1.2-.61 1.43-1.24a.5.5 0 0 0-.3-.64.5.5 0 0 0-.64.3.9.9 0 0 1-.69.6l-4.67.92a.9.9 0 0 1-1.07-.7.9.9 0 0 1 .71-1.07" fill="#ffbb29"/><path d="M32.45 88.36c-.67-.05-1.41-.38-1.92.05l-.98-1.5c1.39-1.65 4.13-1.9 4.41-1.88.72.04 1.06.01 1.1.11.04.1.13.76-.92.74-1.31-.02-.6 1.13 2.16.51.69-.15 1.88.34 1.36.76-.56.46-2.15 1.46-5.2 1.21" fill="#ffbc94"/><path d="M18.66 85.3c-1.01.43-1.38 3.73-1.07 3.96 4.54 1.45 13.14-.9 13.14-.9l.64-1.67s-6.78-.16-12.71-1.38" fill="#ffbc94"/><path d="M16.43 75.69c-.47 2.98.4 12.78 1.16 13.57l3.37-2.66s.34-9.93.34-11.61c0-2.92-4.12-4.17-4.88.7" fill="#ff7b4c"/><path d="M43.92 72.95a.58.58 0 0 1-.1-.15l-.02.02c-.45.41-1.05.49-1.35.16a.6.6 0 0 1-.11-.18c-.36.16-.73.13-.94-.1a.61.61 0 0 1-.15-.33c-.35.17-.75.14-.99-.12-.3-.32-.22-.87.16-1.22s.94-.38 1.23-.06c.08.09.13.18.16.29.43-.32.95-.35 1.22-.06a.6.6 0 0 1 .1.18c.37-.15.73-.13.95.1a.6.6 0 0 1 .15.3c.3-.16.65-.14.86.08.25.28.2.74-.13 1.04-.33.3-.8.32-1.04.05" fill="#ffbc94"/><path d="M18.66 85.3c-1.01.43-1.38 3.73-1.07 3.96 4.54 1.45 12.67-.77 12.67-.77l-.59-2.32s-5.08.36-11.01-.86" fill="#006a3c"/><path d="M16.35 75.62c-.5 3.05-.1 12.95 1.24 13.64l3.4-2.6s.4-10.12.4-11.84c0-2.98-4.24-4.17-5.04.8" fill="#006a3c"/></g><path fill="none" d="M0 0h160v140H0z"/></svg>