<svg viewBox="0 0 160 140" xmlns="http://www.w3.org/2000/svg" xml:space="preserve" fill-rule="evenodd" clip-rule="evenodd" stroke-linejoin="round" stroke-miterlimit="2"><ellipse cx="80" cy="124.61" rx="66.95" ry="15.39" fill="#06d372"/><path d="M115.86 61.36H92.58a.74.74 0 0 1-.74-.74V40.59a.74.74 0 1 1 1.49 0v19.28h22.53a.74.74 0 1 1 0 1.5" fill="#e2f8e8" fill-rule="nonzero"/><path d="M94.35 56.47a.74.74 0 0 1-.54-1.26l7.52-7.79c.25-.25.64-.3.94-.1l3.56 2.3 3.75-4.35a.75.75 0 0 1 1.13.97l-4.17 4.85a.75.75 0 0 1-.98.14l-3.58-2.33-7.1 7.34a.74.74 0 0 1-.53.23" fill="#ffa4b9" fill-rule="nonzero"/><path d="m110.73 48.46-1.06-2.15-2.29-.73 5.09-2.52-1.74 5.4Z" fill="#ffa4b9" fill-rule="nonzero"/><path d="m50.78 122.92-2.74-.01 7.21-32.37 2.62.55-7.09 31.83ZM115.45 122.92l2.74-.01-7.2-32.37-2.62.55 7.08 31.83Z" fill="#547bcd" fill-rule="nonzero"/><path d="M93.45 117.67a.96.96 0 0 1-.96-.96v-17.3h1.93v17.3c0 .53-.44.96-.97.96M70.21 117.67a.96.96 0 0 1-.96-.96v-17.3h1.92v17.3c0 .53-.43.96-.96.96" fill="#006a3c" fill-rule="nonzero"/><path d="M94.54 99.44H68.72c-.86 0-1.55-.7-1.55-1.56v-.3c0-.85.7-1.55 1.55-1.55h25.82c.86 0 1.56.7 1.56 1.56v.29c0 .86-.7 1.56-1.56 1.56" fill="#009749" fill-rule="nonzero"/><path d="M90.4 67.52c1.76.52 8.55 7.8 10.17 13.19-.88 4.85-8.57 7.36-8.57 7.36l-.13-3.75s2.53-1.69 3.68-3.61c-1.84-1.33-5.47-5.8-5.47-5.8l.31-7.39ZM73.41 67.52c-1.76.52-6.14 7.52-7.93 13.85-4.7 3.05-8.37 6.4-8.37 6.4l4.36.29s5.71-1.41 8.74-4.7c1.26-2.57 3.5-8.44 3.5-8.44l-.3-7.4Z" fill="#1b173f" fill-rule="nonzero"/><path d="m84.75 66.17-5.94.27-.6 5.8.65 16.58 6.26-.08 1.64-18.55-2-4.02Z" fill="#8fa8de" fill-rule="nonzero"/><path d="M77.7 57.4c.82-.95 1.47-.03 2.65-1.2 1.18-1.18 2.12-2.03 3.13-.79 1.01 1.24 1.53 1.42 2.27 1.35.73-.07.72 2.95.72 2.95s1.8-.48 1.94-2.49c.17-2.37-2.2-5.05-6.54-5.4-3.52-.29-7.69 3.24-6.9 5.85.3 1.02 1.16 1.95 1.56 1.87.53-.11.63-1.53 1.16-2.14" fill="#2a2359" fill-rule="nonzero"/><path d="M86.02 59.42c-.4.76-.28 1.7.25 2.1.54.4 1.3.11 1.69-.65.4-.76.28-1.7-.25-2.1-.54-.4-1.3-.12-1.69.65" fill="#ffbc94" fill-rule="nonzero"/><path d="M86.73 61.15h.05c.08-.03.13-.13.12-.22-.08-.5-.04-.86.12-1.06.21-.26.59-.18.6-.18.07.01.15-.05.17-.15.02-.1-.03-.2-.11-.21-.03 0-.54-.12-.87.29-.24.29-.3.76-.2 1.39 0 .08.06.14.13.14" fill="#fc9858" fill-rule="nonzero"/><path d="m79.79 67.64 2.06 1.63 2.1-1.63.28-4H79.5l.28 4Z" fill="#fea670" fill-rule="nonzero"/><path d="m73.34 67.52.11 21.3c2.02 1.66 5.98 2.1 5.98 2.1l-.72-24.1-5.36.7ZM90.54 67.52l-.11 21.3c-2.02 1.66-5.8 2.15-5.8 2.15l.54-24.15 5.37.7Z" fill="#2a2359" fill-rule="nonzero"/><path d="m75.81 70.24 3.41 14.72-.51-18.4-2.9 3.68ZM88.25 69.22l-3.5 15.9.42-18.3 3.08 2.4Z" fill="#464b82" fill-rule="nonzero"/><path d="M81.78 53.4c-6.09-.14-4.7 8.05-4.25 9.34.24.7 1.79 3.4 4.27 3.44 2.48-.04 4-2.73 4.23-3.44.45-1.29 2.05-9.24-4.25-9.34" fill="#ffbc94" fill-rule="nonzero"/><path d="M80.72 59.24a.28.28 0 0 0-.04-.51 2.43 2.43 0 0 0-2.07.34.28.28 0 0 0 .33.46 1.87 1.87 0 0 1 1.56-.27c.07.03.15.02.22-.02M83.41 59.24a.28.28 0 0 1 .05-.51c.04-.02 1.1-.35 2.05.34.13.09.16.26.07.39a.28.28 0 0 1-.4.06 1.87 1.87 0 0 0-1.55-.26.28.28 0 0 1-.22-.02" fill="#2a2359" fill-rule="nonzero"/><path d="M84.54 60.15a.5.5 0 1 1-.99 0 .5.5 0 0 1 1 0M80.4 60.07a.5.5 0 1 1-1 0 .5.5 0 0 1 1 0" fill-rule="nonzero"/><path d="M82.1 60.45c.3.69.7 1.53.7 1.53s-.33.63-1.2.51c.39-.1.79-.3.7-.81l-.2-1.23" fill="#fc9858" fill-rule="nonzero"/><path d="m82.4 70.8 1.03 13.98-1.56 1.84-1.56-1.84 1.07-13.95 1.01-.03Z" fill="#1b173f" fill-rule="nonzero"/><path d="m82.97 69.3-1.04-.28-1.07.32.52 1.52 1.02-.02.56-1.55Z" fill="#1b173f" fill-rule="nonzero"/><path d="M81.87 69.02s-.68 1.01-1.9 1.58l-2.05-3.1.9-1.06 3.05 2.58Z" fill="#fff" fill-rule="nonzero"/><path d="M81.87 69.02a6 6 0 0 0 1.97 1.51l1.85-3.35-.87-1-2.95 2.84Z" fill="#fff" fill-rule="nonzero"/><path d="M76.97 58.88c.69.22.9-3.54 3.58-1.76 1.89 1.26 5.4 1.06 4.7-.65.55.42 1.37 1.25 1.37 1.25l-1.24-4.1s-5.1-1.6-6.91.03c-1.81 1.62-1.5 5.23-1.5 5.23" fill="#2a2359" fill-rule="nonzero"/><path d="M78.03 59.57c.4.8.17 1.72-.53 2.08-.7.35-1.59 0-1.99-.8-.4-.8-.17-1.72.53-2.08.7-.35 1.58 0 1.99.8" fill="#ffbc94" fill-rule="nonzero"/><path d="M76.97 61.23a.18.18 0 0 1-.17-.24c.15-.48.14-.85-.04-1.06-.23-.28-.7-.23-.7-.23a.18.18 0 0 1-.04-.36c.02 0 .66-.08 1.02.36.26.31.3.78.11 1.4a.18.18 0 0 1-.18.13M82.06 64.11c-.87 0-1.61-.47-1.67-.52a.23.23 0 0 1 .3-.34c.07.04 1.58.97 2.58-.13.08-.09.23-.1.32-.01.09.08.1.23.01.32a2 2 0 0 1-1.47.68h-.07" fill="#fc9858" fill-rule="nonzero"/><path d="m93.45 92.37-4.22-3.9H75.27l-5.06 3.88 5.72 4.14h12.65l4.87-4.12Z" fill="#1b173f" fill-rule="nonzero"/><path d="M73.85 114.92c-1.3 2.8-5.98 2.34-5.15 5.45.82 3.11 9.39-1.85 9.39-1.85a24.7 24.7 0 0 0-.94-3.22l-3.3-.38ZM90 114.78c1.36 2.93 6.25 2.44 5.39 5.69-.87 3.24-9.8-1.94-9.8-1.94.16-.79.67-2.65.97-3.36l3.45-.39Z" fill-rule="nonzero"/><path d="M77.8 97.95c-.04-4.47-3.82-9.44-7.59-6.1-3.96 3.49 2.44 23.35 2.44 23.35 2.35 1.4 3.47 1.36 5.9 0 0 0-.73-12.93-.76-17.25M86.71 97.95c.04-4.47 3.76-7.56 6.74-5.58 3.23 2.15-2.05 23.29-2.05 23.29-.91.44-3.58.72-5.43.2 0 0 .71-13.59.74-17.9" fill="#2a2359" fill-rule="nonzero"/><path d="M117.44 122.92a.96.96 0 0 1-.97-.96v-17.1h1.93v17.1c0 .53-.43.96-.96.96M124.2 122.92a.96.96 0 0 1-.96-.96v-17.1h1.93v17.1c0 .53-.43.96-.97.96M133.09 122.92a.96.96 0 0 1-.97-.96v-17.1h1.93v17.1c0 .53-.43.96-.96.96M139.85 122.92a.96.96 0 0 1-.96-.96v-17.1h1.93v17.1c0 .53-.43.96-.97.96" fill="#006a3c" fill-rule="nonzero"/><path d="M129.18 79.5v20.34c0 .23-.19.42-.42.42h-12.6a2.3 2.3 0 0 0 0 4.6h15.33a2.3 2.3 0 0 0 2.3-2.3V79.5a2.3 2.3 0 1 0-4.6 0" fill="#009749" fill-rule="nonzero"/><path fill="#009749" d="M131.49 77.2h9.97v23.43h-9.97z"/><path d="M139.15 79.5v20.34c0 .23-.19.42-.42.42h-12.6a2.3 2.3 0 0 0 0 4.6h15.33a2.3 2.3 0 0 0 2.3-2.3V79.5a2.3 2.3 0 1 0-4.6 0" fill="#006a3c" fill-rule="nonzero"/><path d="M119.16 84.07c.96.54.97 3.85.64 4.05-11.04.77-13.83.36-13.83.36l.14-1.88s6.37-2 13.05-2.53" fill="#ff7b4c" fill-rule="nonzero"/><path d="M129.56 78c-1.7 2.71-8.74 10.05-9.9 10.16l-1.3-4s6.61-8.75 7.79-10.1c2.03-2.34 6.2-.48 3.41 3.94M104.08 86.34c.62.01 1.27.06 2.15.22l.63.33-.06 1.09c-.92 1.26-3.68 1.46-3.93 1.46-.66 0-.96.04-1-.05-.05-.09-.16-.68.8-.71 1.2-.04.49-1.06-2-.37-.61.18-1.72-.22-1.27-.62.5-.44 1.88-1.43 4.68-1.35" fill="#ffbc94" fill-rule="nonzero"/><path d="M125.5 63.5c-.2-2.77.6-5.22 2.82-6.47 2.24-1.27 5.06-.03 5.06-.03s2.38-.84 4.53 1.53c2.16 2.38.53 4.47 1.4 6.2.53 1.03 3.19 1.24 2.5 4.58-.2.97-1.35 1.61-2.34 1.68-1.72.11-3.33-.55-4.03.11-2.3 2.2-7.4 1.4-8.12-.6-.23-.63-4.82.58-4.36-3.67.23-2.15 2.73-.84 2.55-3.32" fill="#050414" fill-rule="nonzero"/><path d="m129.72 72.49 3.64-.68 1.37 1.82-2.9 5.96-4.28-3.63 2.17-3.47Z" fill="#ffbc94" fill-rule="nonzero"/><path d="M124.99 86.85c.06-1.13-1.77-5.79-.8-8.13.7-1.89 1.87-5.05 3.3-5.58.68-.25 1.38-.42 2.23-.65 0 0-.48 2.37.51 2.45 1.91.16 3.13-3.13 3.13-3.13 1.03-.1 5.76 1.46 5.76 1.85-.01 3.04-2.48 7.47-3.3 10.76-.3 3.55.93 7.8.94 8.2 0 0-7.61 2.14-12.12-.34-.1-.34.26-3.86.35-5.43" fill="#009ae9" fill-rule="nonzero"/><path d="M135.61 88.98s1.68 4.23 2.09 6.9c.4 2.67-1.9 4.38-1.9 4.38h-19.22s-2.06-3.34-1.47-5.64c.6-2.3 1.96-2.67 1.96-2.67l18.54-2.97Z" fill="#009ae9" fill-rule="nonzero"/><path d="M116.32 91.83c2.46-.35 9.58 2.42 12.61 8.43h-8.5l-4.1-8.43Z" fill="#fda167" fill-rule="nonzero"/><path d="M119.01 94.04c-.32-.35-.6-.77-.86-1.22a2.12 2.12 0 0 0-3.41-.4c-3.55 3.9-11.1 12.8-12.78 13.92-.47.3-3.25 1.9-5.89 1.6 0 0-1.3.49-.43 1.52.44.53 7.15 1.08 7.15 1.08l.52-1.97c3.9-2.88 8.76-2.68 12.88-7.96 2.27-2.9 2.82-6.57 2.82-6.57" fill="#fda167" fill-rule="nonzero"/><path d="m101.43 111.68-2.7 1.75-.37-.44 2.19-2.04c-1.25-.98-4.13-.17-4.13-.17-.94-.6-2.78-2.58-2.97-3.64.6-.75 2.62.8 2.62.8-.08.33.56 1.5 1.07 1.7 2.2.47 4.38-.16 6.17-1.07 0 0 1.49 2.27-1.88 3.1" fill="#1b173f" fill-rule="nonzero"/><path d="M119.05 94.57c.5.14.86.55.93 1.05.2 1.36 1.19 4.12-.16 7.01-3.3 7.1-5.24 11.78-5.58 13.6.86 1.62-2.58 6.02-2.63 6.31l-2.47-.77s1.42-2.11 1.93-2.94c1.22-1.96 1.41-4.38 1.61-6.25.84-7.98-.6-13.02 5.17-17.7.34-.28.78-.42 1.2-.3" fill="#ffbc94" fill-rule="nonzero"/><path d="m115.47 119.61-.25 3.21-.57.03-.3-2.98c-1.53.4-2.63 3.18-2.63 3.18-1.05.38-3.74.65-4.7.15-.23-.93 2.22-1.6 2.22-1.6.22.27 1.53.47 2 .19a9.55 9.55 0 0 0 3-5.55s2.6.18 1.23 3.38" fill="#1b173f" fill-rule="nonzero"/><path d="m130.64 69.5 2.96-.44-.24 2.75s-.57 1.25-1.22 1.33l-2.42-.65.92-2.98Z" fill="#ffbc94" fill-rule="nonzero"/><path d="M136.34 65.53c-.77 3.2-3.42 5.3-5.93 4.7-2.5-.6-3.92-3.68-3.15-6.87.76-3.2 3.41-5.3 5.92-4.7 2.51.6 3.92 3.68 3.16 6.87" fill="#ffbc94" fill-rule="nonzero"/><path d="M128.43 64.2a.45.45 0 1 1-.8-.4.45.45 0 0 1 .8.4M131.95 65.07a.49.49 0 1 1-.87-.44.49.49 0 0 1 .87.44" fill-rule="nonzero"/><path d="M132.5 64.66a.17.17 0 0 1-.09-.08c-.24-.52-.9-.62-.9-.63a.17.17 0 0 1 .04-.33c.04 0 .85.13 1.17.82a.17.17 0 0 1-.23.22M127.45 63.55a.17.17 0 0 1-.04-.27c.52-.51 1.15-.3 1.18-.3.09.04.13.13.1.22a.17.17 0 0 1-.21.1.85.85 0 0 0-.83.22.17.17 0 0 1-.2.03" fill="#050414" fill-rule="nonzero"/><path d="M128.72 65.17c-.25.25-.46.52-.7.66a.18.18 0 0 0-.06.24c.2.34.75.61 1.09.76.05.02.09-.05.05-.08-.34-.3-.5-.52-.55-.64a.22.22 0 0 1 0-.2l.3-.65c.03-.08-.07-.15-.13-.09" fill="#fc9858" fill-rule="nonzero"/><path d="M135.13 65.55c-.6.48-.79 1.27-.4 1.76.39.5 1.2.52 1.8.05.62-.47.8-1.26.4-1.76-.38-.5-1.19-.52-1.8-.05" fill="#ffbc94" fill-rule="nonzero"/><path d="M135.48 67.17a.17.17 0 0 1-.06-.05c-.23-.31-.26-.66-.06-.94.2-.28.58-.4.9-.3.08.03.13.12.1.21a.17.17 0 0 1-.22.1c-.17-.05-.4.03-.5.2-.11.14-.1.33.05.53.06.07.04.18-.03.23a.17.17 0 0 1-.18.02" fill="#fc9858" fill-rule="nonzero"/><path d="M131.5 67.72c.06-.1-.01-.23-.13-.22-.3.04-.8.09-1.27.09s-.97-.05-1.26-.09a.13.13 0 0 0-.13.22c.22.3.67.74 1.4.74.72 0 1.17-.45 1.38-.74" fill="#fff" fill-rule="nonzero"/><path d="M136.4 65.25c-3-.4-7.18-3.45-7.53-5.02.58-1.88 3.67-2.82 5.41-1.95 1.74.87 3.39 4.6 2.12 6.97" fill="#050414" fill-rule="nonzero"/><path d="M151.36 68.11c-1.63-.78-1.28-2.3-1.28-2.3-.71.1-2.31 6.58-2.62 10.45-3.54-1.7-9.4-3.62-10.71-3.39 0 0-1.84.15-1.72 2.39.1 2 2.66 2.53 2.66 2.53s11.21 3.15 12.34 2.11c1.75-1.6.94-9.8 1.33-11.79" fill="#ffbc94" fill-rule="nonzero"/><path d="M153.18 67.3c-.72.3-1.75.26-1.8 1.02l-1.7-.2-.4-.83c.54-2.43 3.37-4.07 3.66-4.2.75-.35 1.08-.56 1.18-.47.1.08.53.7-.55 1.24-1.35.67-.01 1.47 2.48-.63.63-.52 2.1-.65 1.8.05-.33.77-1.42 2.63-4.67 4.02" fill="#ffbc94" fill-rule="nonzero"/><path d="M46.26 123.14h.08c.62 0 1.13-.5 1.13-1.13v-19.32h-2.34V122c0 .62.5 1.13 1.13 1.13M38.06 123.14h.08c.62 0 1.13-.5 1.13-1.13v-19.32h-2.34V122c0 .62.5 1.13 1.13 1.13M26.17 122.05c0 .6.52 1.09 1.17 1.09.64 0 1.17-.49 1.17-1.1V102.7h-2.34v19.36ZM19.1 123.14h.08c.62 0 1.13-.5 1.13-1.13v-19.32h-2.34V122c0 .62.5 1.13 1.13 1.13" fill="#006a3c" fill-rule="nonzero"/><path d="M32.07 71.96V96.6c0 .28.23.5.5.5h15.28a2.79 2.79 0 1 1 0 5.59H29.28a2.79 2.79 0 0 1-2.8-2.8V71.97a2.79 2.79 0 1 1 5.58 0" fill="#009749" fill-rule="nonzero"/><path fill="#009749" d="M17.2 69.17h12.08v28.39H17.2z"/><path d="M20 71.96V96.6c0 .28.22.5.5.5h15.27a2.8 2.8 0 1 1 0 5.59H17.2a2.8 2.8 0 0 1-2.8-2.8V71.97a2.8 2.8 0 0 1 5.58 0" fill="#006a3c" fill-rule="nonzero"/><path d="M52.93 72.11c-.76-.79-1.64-1.12-1.65-2.56 0-.52.04-1.07.07-1.7.04-.98.23-1.8.44-1.84.46-.1.61.16.69.74.06.44-.2 1.04.12 1.3.28.22.68.37 1.65-.77 1.25-1.45 1.44-2.17 1.95-1.82.34.23-.22 1-1.36 2.4.86-.48 1.9-2.7 2.53-2.12.46.42-1.56 2.48-2.17 2.9 1.28-.5 2.18-2.38 2.54-2.19.72.44-.82 2.24-1.94 2.76 1.2-.21 1.6-1.33 1.92-1.1.58.43-1.18 2.28-2.5 2.91l-2.3 1.1" fill="#ffbc94" fill-rule="nonzero"/><path d="M53.3 68.63c.1.36.23.83-.07 1.32-.29.46-.94.54-.94.54.42.1.88 0 1.15-.39.32-.48.18-1.16-.15-1.47" fill="#fc9858" fill-rule="nonzero"/><path d="M44.47 76.46c2.6-1.97 6.36-6.36 6.36-6.36 1.5.65 2.28 2.3 2.28 2.3-1.8 6.48-7.38 11.85-9.91 12.24-2.32.36-8.2-10.83-5.34-16.25l1.19-.26c3.23 1.59 5.42 8.33 5.42 8.33" fill="#006cc8" fill-rule="nonzero"/><path d="m57.05 119.8 2.77.7 1.14-2.47c-.12-.09-.3-1.73-.41-2.98l-4.48.62c.22 1.26.59 2.91.98 4.13" fill="#ffbc94" fill-rule="nonzero"/><path d="M61.94 121.25s.96-1.6 2.18-1.7c0 0 2.29.12 3.1 1.09.25.3.15.95.05 1.36-.06.26-.28.54-.96.75-1 .32-2.35.5-4.84-.14-2.98-.77-3.45-.45-4.56-.8-1.14-.37-.77-1.77-.46-3.13 0 0 .83 1.66 5.5 2.57" fill="#1b173f" fill-rule="nonzero"/><path d="M61.03 117.79s1.33.8 3.07 1.2c.98.23 3.57.73 3.16 2.46-.07.26-.29.54-.96.76-1 .31-2.35.5-4.84-.14-2.98-.77-3.46-.46-4.56-.81-1.14-.37-.62-1.95-.3-3.32.02.35.18 1.26 2.26 2.07.61.24.1-2.49 2.17-2.22" fill="#2a2359" fill-rule="nonzero"/><path d="M60.64 119.88c.1-.01.2-.08.22-.18.2-.85 1.08-.9 1.12-.91a.24.24 0 0 0-.02-.47 1.7 1.7 0 0 0-1.56 1.26c-.03.13.05.26.17.29h.07M61.74 120.31c.1 0 .18-.07.21-.17.21-.85 1.09-.91 1.12-.91.13-.01.23-.12.23-.25a.24.24 0 0 0-.25-.22 1.7 1.7 0 0 0-1.56 1.26.24.24 0 0 0 .25.3" fill="#464b82" fill-rule="nonzero"/><path d="m46.22 120.84 2.72.9 1.3-2.38c-.11-.1-.5-1.83-.52-3.09l-4.19.39c.13 1.27.39 2.94.7 4.18" fill="#ffbc94" fill-rule="nonzero"/><path d="M41.71 89.92c6.2 1.13 15 5.15 15.86 6.06 1.8 1.88 2.67 8.37 3.51 19.91l-5.42.36c-2-9.02-3.88-12.95-4.19-16.61 0 0-4.74.33-11.9-2.43-3.51-1.36-7.19-2.95-6.13-6.13.84-2.53 2.37-2.23 8.27-1.16" fill="#1b173f" fill-rule="nonzero"/><path d="M34.79 90.46c5.14.53 12 6.42 12.87 7.33 1.8 1.89 2.02 8.33 2.87 19.87l-5.4.5c-.87-5.98-3.42-12.84-3.42-17.23 0 0-4.83-1.05-12.3-2.73-4.09-.92-5.31-1.55-6.1-4.22-.26-.9-.62-3.01-.21-3.48 1.8-2.08 6.82-.54 11.69-.04" fill="#2a2359" fill-rule="nonzero"/><path d="M51 122.64s1.07-1.54 2.29-1.56c0 0 2.28.3 3.01 1.31.23.32.09.96-.04 1.37-.08.25-.32.52-1.01.68-1.02.24-2.38.34-4.81-.48-2.93-.98-3.42-.7-4.5-1.13-1.11-.44-.65-1.81-.24-3.15 0 0 .71 1.72 5.3 2.96" fill="#1b173f" fill-rule="nonzero"/><path d="M50.33 119.12s1.27.9 2.98 1.42c.96.29 3.51.97 2.97 2.67-.08.26-.31.52-1 .69-1.03.24-2.39.34-4.82-.48-2.92-.98-3.42-.7-4.5-1.13-1.1-.45-.47-2-.06-3.33 0 .35.1 1.26 2.1 2.22.6.28.3-2.47 2.33-2.06" fill="#2a2359" fill-rule="nonzero"/><path d="M49.34 121.26c.1 0 .2-.07.22-.18.2-.84 1.08-.9 1.12-.9.13-.01.23-.12.22-.25a.24.24 0 0 0-.24-.23 1.7 1.7 0 0 0-1.56 1.27.24.24 0 0 0 .24.3M50.44 121.7c.1 0 .19-.08.21-.18.21-.84 1.09-.9 1.12-.9a.24.24 0 0 0-.02-.48 1.7 1.7 0 0 0-1.56 1.27.24.24 0 0 0 .25.3" fill="#464b82" fill-rule="nonzero"/><path d="m31.39 62.94 2.05.01.47 4.85-2.4 1.26-2.55-1.25.41-4.86h2.02Z" fill="#fea670" fill-rule="nonzero"/><path d="M31.12 62.38c-1.77.62-3.24-1.49-3.24-1.49-1.15.07-1.21-1.09-1.21-1.09-.57-.04-1.4-.45-1.4-1.5 0-.9.85-1.05.73-2.08-.1-.82-1.06-1.36 1.47-2.09 0 0-.27-1.5 1.19-2.2 1.78-.87 2.5.16 3.37.18.98.02 2.77-1.27 3.51.8 0 0 1.33-.26 2.15.57.76.77.64.69.35 1.2 0 0 1.14.12 1.6 1.06.32.64.25 1.57-.32 2.14-.37.36-.77.47-.77.47-.41.17-.18 1.33-.51 1.64-.53.5-1.14.9-1.77 1.25l-5.15 1.13Z" fill="#2a2359" fill-rule="nonzero"/><path d="M27.58 59.74c.34 3.38 3.18 6.13 5.84 5.87 2.66-.27 4.12-3.45 3.78-6.83-.34-3.39-2.77-5.91-5.42-5.65-2.66.27-4.54 3.22-4.2 6.6" fill="#ffbc94" fill-rule="nonzero"/><path d="M35.82 60a.46.46 0 1 0 .88-.3.46.46 0 0 0-.88.3M32.24 60.08a.5.5 0 1 0 .95-.33.5.5 0 0 0-.95.33" fill-rule="nonzero"/><path d="m34.36 60.1 1.06 1.44s-.2.73-1.15.8c.4-.2.77-.49.57-1l-.48-1.24" fill="#fc9858" fill-rule="nonzero"/><path d="M31.61 59.49a.23.23 0 0 1-.14-.34c.18-.3.68-.83 1.36-.63.13.03.2.16.16.28a.23.23 0 0 1-.28.16c-.5-.14-.83.41-.83.42a.23.23 0 0 1-.27.1M35.79 59.08a.2.2 0 0 1-.08-.33c.01-.01.3-.28.69-.24.27.02.5.18.7.46a.2.2 0 0 1-.04.27.2.2 0 0 1-.27-.04c-.14-.2-.28-.3-.43-.3a.55.55 0 0 0-.38.13.2.2 0 0 1-.19.05" fill="#2a2359" fill-rule="nonzero"/><path d="m37.82 55.34-5.94-3.37-5.63 4.6 1.78 4.4c-.3-2.14 1.14-1.74 1.67-2.5.54-.78.63-1.82 2.4-1.3 0 0 1.1-1.17 2.04-.06.72.85 1.38.52 2.09.42.83-.12.8.72 1.3.58l.29-2.77Z" fill="#2a2359" fill-rule="nonzero"/><path d="M28.31 59.42c.56.57.64 1.4.17 1.87-.46.45-1.3.37-1.86-.2-.56-.57-.64-1.4-.17-1.87.47-.46 1.3-.37 1.86.2" fill="#ffbc94" fill-rule="nonzero"/><path d="M27.73 61.03c.03 0 .05-.02.07-.04.28-.29.35-.64.19-.95a.84.84 0 0 0-.87-.44.17.17 0 1 0 .06.35c.19-.04.4.08.5.25.1.18.05.37-.13.55a.18.18 0 0 0 0 .24c.05.05.12.07.18.04" fill="#fc9858" fill-rule="nonzero"/><path d="M35.46 63.4c.08-.1 0-.25-.13-.24-.35.02-.91.05-1.45.02-.54-.02-1.1-.1-1.45-.16a.15.15 0 0 0-.15.23c.23.35.72.88 1.55.92.83.04 1.36-.44 1.63-.76" fill="#fff" fill-rule="nonzero"/><path d="M23.1 90.6s4.3.44 8.32.46c4.02-.03 8.32-.8 8.32-.8s-.54-7.4-.48-10.24c.07-3.26-.21-7.58-.21-11.9 0 0-2.86-.45-4.47-.65l-.67-.07s-.92 1.92-4.92 0a5.01 5.01 0 0 0-.76 0c-1.68.1-4.38.73-4.38.73 0 4.3-.18 8.5-.12 11.77l-.63 10.7" fill="#009ae9" fill-rule="nonzero"/><path d="M34.25 79.9c-.33-1-.94-1.65-.35-2.88.2-.45.47-.9.76-1.43.44-.82.94-1.45 1.14-1.4.43.11.45.4.28.92-.14.4-.6.81-.43 1.16.14.31.43.6 1.73.03 1.66-.73 2.12-1.27 2.42-.75.2.34-.6.77-2.16 1.48.94-.05 2.74-1.52 3.05-.76.22.55-2.37 1.48-3.06 1.58 1.3.1 2.85-1.13 3.07-.82.45.67-1.62 1.58-2.79 1.56 1.12.31 1.93-.48 2.1-.15.32.6-1.96 1.47-3.35 1.46h-2.41" fill="#ffbc94" fill-rule="nonzero"/><path d="M24.67 78.92c3.26-.23 8.81-1.84 8.81-1.84.9 1.37.65 3.18.65 3.18-5.06 4.43-12.68 5.87-15.01 4.8-2.13-.97-.63-13.96 4.73-16.93l.18.02c1.84 3.1.64 10.77.64 10.77" fill="#006cc8" fill-rule="nonzero"/><path d="M28.23 67.4c.28.46.67.81 1.23 1.09.88.44 2.07.63 2.8.57a3.23 3.23 0 0 0 1.65-.6c.44-.36.63-.8.67-.99l-.71-.09s-.88 1.94-4.88.02a5.01 5.01 0 0 0-.76 0" fill="#005bc9" fill-rule="nonzero"/><path d="M60.33 88.74a.56.56 0 0 1-.12-.13l-.02.02c-.39.48-.98.65-1.33.37a.62.62 0 0 1-.14-.16c-.34.2-.71.23-.96.03a.62.62 0 0 1-.2-.3c-.32.23-.73.25-1 .03-.35-.28-.36-.84-.03-1.25.33-.41.88-.52 1.23-.24.09.07.15.16.2.25.38-.38.9-.49 1.2-.24.07.05.11.1.15.17.33-.21.7-.24.95-.04.1.07.16.17.2.28.28-.22.64-.25.88-.05.3.23.3.7.02 1.06-.28.34-.74.44-1.03.2" fill="#ffbc94" fill-rule="nonzero"/><path d="M39.36 88.1h18.6l3.68-11.68a.84.84 0 0 0-.8-1.09H44a.84.84 0 0 0-.8.59L39.36 88.1Z" fill="#00b128" fill-rule="nonzero"/><path d="M40.77 88.1h18.61l3.67-11.68a.84.84 0 0 0-.8-1.09H45.4a.84.84 0 0 0-.8.59L40.77 88.1Z" fill="#00a839" fill-rule="nonzero"/><path d="M51.73 81.94c-.21.73.16 1.46.81 1.65.66.19 1.35-.25 1.56-.97.2-.72-.16-1.46-.82-1.64-.65-.2-1.35.24-1.55.96" fill="#b1ecc2" fill-rule="nonzero"/><path d="M28.78 86.88h11.99v1.2H27.59c0-.67.54-1.2 1.2-1.2M121.44 88.1h-18.1l-3.58-11.37a.82.82 0 0 1 .77-1.06h16.4c.36 0 .68.23.78.58l3.73 11.85Z" fill="#00b128" fill-rule="nonzero"/><path d="M120.23 88.1h-18.11l-3.58-11.37a.82.82 0 0 1 .78-1.06h16.4c.36 0 .67.23.78.58l3.73 11.85Z" fill="#00a839" fill-rule="nonzero"/><path d="M109.57 82.11c.2.7-.16 1.42-.8 1.6-.63.18-1.31-.24-1.51-.94-.2-.7.15-1.42.8-1.6.63-.18 1.3.24 1.5.94" fill="#b1ecc2" fill-rule="nonzero"/><path d="M131.89 86.91h-11.66v1.16h12.82c0-.64-.52-1.16-1.16-1.16" fill="#00b128" fill-rule="nonzero"/><path d="M139.15 91.22H23.42c-1.3 0-2.36-.7-2.36-1.59 0-.88 1.06-1.59 2.36-1.59h115.73c1.3 0 2.36.71 2.36 1.6 0 .87-1.05 1.58-2.36 1.58" fill="#547bcd" fill-rule="nonzero"/><path d="M91.64 87.39H70.98l-.77-11.9c-.05-.79.58-1.46 1.37-1.46h19.47c.79 0 1.42.67 1.37 1.46l-.78 11.9Z" fill="#b1ecc2" fill-rule="nonzero"/><path d="M91.64 88.04H70.98l-.77-11.9c-.05-.78.58-1.45 1.37-1.45h19.47c.79 0 1.42.67 1.37 1.46l-.78 11.9Z" fill="#00a839" fill-rule="nonzero"/><path d="M82.21 81.94a1.23 1.23 0 1 1-2.46 0 1.23 1.23 0 0 1 2.46 0" fill="#b1ecc2" fill-rule="nonzero"/><path d="M91.02 87.28a.57.57 0 0 1 .13-.13l-.02-.02c-.5-.36-.7-.95-.44-1.3a.6.6 0 0 1 .16-.15c-.23-.33-.28-.7-.09-.96.07-.1.18-.17.3-.22-.25-.3-.3-.7-.09-1 .26-.36.82-.4 1.25-.09.43.31.57.86.3 1.22a.7.7 0 0 1-.24.2c.4.37.54.88.3 1.2-.04.07-.1.12-.16.16.23.32.28.7.09.95a.62.62 0 0 1-.27.2c.23.27.28.63.1.89-.23.3-.7.33-1.06.07-.36-.26-.48-.72-.26-1.02" fill="#ffbc94" fill-rule="nonzero"/><path d="m24.74 122.92-2.74-.01 7.2-32.37 2.63.55-7.09 31.83ZM128.43 122.92l2.74-.01-7.2-32.37-2.63.55 7.09 31.83Z" fill="#547bcd" fill-rule="nonzero"/><path d="m105.5 22.06 1.61 10.58c.06.4-.21.78-.61.84L88.1 36.3a.74.74 0 0 1-.83-.62L85.65 25.1a.74.74 0 0 1 .61-.84l18.4-2.82c.4-.06.77.22.84.62" fill="#ffbd2a" fill-rule="nonzero"/><path d="m105.5 22.06.08.59-7.45 7.3c-.72.73-1.84.9-2.75.44l-9.68-4.96-.05-.33a.74.74 0 0 1 .62-.84l18.38-2.82c.4-.06.78.22.84.62" fill="#ffce70" fill-rule="nonzero"/><path d="M35.86 45.33h-19a2.71 2.71 0 0 1-2.71-2.72v-8.1c0-1.5 1.21-2.72 2.71-2.72h19c1.5 0 2.71 1.22 2.71 2.72v8.1c0 1.5-1.21 2.72-2.71 2.72" fill="#e2f8e8" fill-rule="nonzero"/><path d="M23.75 44.72v5.04c0 .4-.55.53-.73.17l-2.65-5.2h3.38Z" fill="#e3f7e8" fill-rule="nonzero"/><path d="M35.39 36.02H17.56a1.24 1.24 0 1 1 0-2.48h17.83a1.24 1.24 0 0 1 0 2.48M35.39 39.96H17.56a1.24 1.24 0 1 1 0-2.48h17.83a1.24 1.24 0 0 1 0 2.48M35.57 43.9H24.13c-.59 0-1.06-.48-1.06-1.06v-.37c0-.58.47-1.05 1.06-1.05h11.44c.59 0 1.06.47 1.06 1.05v.37c0 .58-.48 1.06-1.06 1.06" fill="#fff" fill-rule="nonzero"/><path d="M128.47 51.01h19c1.5 0 2.71-1.21 2.71-2.71v-8.1c0-1.5-1.21-2.72-2.71-2.72h-19a2.71 2.71 0 0 0-2.71 2.71v8.1c0 1.5 1.21 2.72 2.71 2.72" fill="#e2f8e8" fill-rule="nonzero"/><path d="M140.58 50.4v5.05c0 .4.55.53.73.17l2.65-5.21h-3.38Z" fill="#e3f7e8" fill-rule="nonzero"/><path d="M128.94 41.7h17.83a1.24 1.24 0 0 0 0-2.48h-17.83a1.24 1.24 0 1 0 0 2.49M128.94 45.65h17.83a1.24 1.24 0 1 0 0-2.49h-17.83a1.24 1.24 0 1 0 0 2.49M128.76 49.58h11.44c.59 0 1.06-.47 1.06-1.06v-.36c0-.58-.47-1.06-1.06-1.06h-11.44c-.58 0-1.06.48-1.06 1.06v.36c0 .59.48 1.06 1.06 1.06" fill="#fff" fill-rule="nonzero"/><path d="M68.56 51.46H48.01a2.94 2.94 0 0 1-2.94-2.94V37.2a2.94 2.94 0 0 1 2.94-2.94h20.55a2.94 2.94 0 0 1 2.94 2.94v11.32a2.94 2.94 0 0 1-2.94 2.94" fill="#bbeeca" fill-rule="nonzero"/><path d="M67.76 50.8v5.46c0 .43-.6.57-.79.18l-2.86-5.64h3.65ZM125.86 44.37l-22.62-8.84a2.8 2.8 0 0 1-1.58-3.62L112 5.43a2.8 2.8 0 0 1 3.62-1.58l22.62 8.84a2.8 2.8 0 0 1 1.59 3.61l-10.35 26.48a2.8 2.8 0 0 1-3.62 1.59" fill="#bbeeca" fill-rule="nonzero"/><path d="m117.56 13.35 2.23.87L112.06 34l-2.22-.87 7.72-19.77ZM120.89 14.65l2.23.87-7.73 19.77-2.22-.87 7.72-19.77ZM124.22 15.95l2.22.87-7.72 19.77-2.23-.87 7.73-19.77ZM127.54 17.25l2.23.87-7.72 19.77-2.23-.87 7.72-19.77ZM130.87 18.55l2.23.87-7.73 19.77-2.23-.87 7.73-19.77ZM118.25 11.59l2.23.87-.41 1.04-2.23-.87.41-1.04ZM114.27 12.07l2.23.87-.41 1.04-2.23-.87.41-1.04ZM112.98 15.36l2.23.87-.4 1.04-2.23-.86.4-1.05ZM111.7 18.66l2.22.86-.4 1.05-2.23-.87.4-1.04ZM110.4 21.95l2.24.87-.41 1.04L110 23l.4-1.04Z" fill="#fff"/><path d="m110.4 21.95 2.24.87-.41 1.04L110 23l.4-1.04ZM109.12 25.24l2.23.87-.4 1.05-2.24-.87.41-1.05ZM107.83 28.54l2.23.87-.4 1.04-2.23-.87.4-1.04ZM121.58 12.89l2.23.87-.41 1.04-2.23-.87.4-1.04ZM124.9 14.19l2.23.87-.4 1.04-2.23-.87.4-1.04ZM128.23 15.49l2.23.87-.41 1.04-2.23-.87.41-1.04ZM131.56 16.79l2.22.87-.4 1.04-2.23-.87.4-1.04Z" fill="#fff"/><path d="M134.57 15.77 117.24 9a1.3 1.3 0 0 1 .95-2.44l17.33 6.77a1.3 1.3 0 0 1-.95 2.44" fill="#fff" fill-rule="nonzero"/><path d="M62.44 47.16c0 .23-.04.45-.11.66-.37 1.06-1.6 1.83-3.05 1.83-1.46 0-2.68-.77-3.05-1.83a2 2 0 0 1-.11-.66h6.32Z" fill="#8fa8de" fill-rule="nonzero"/><path d="M62.44 47.16c0 .23-.04.45-.11.66h-6.1a2 2 0 0 1-.11-.66h6.32Z" fill="#7696de" fill-rule="nonzero"/><path d="M65.9 36.5a6.62 6.62 0 1 0-11.86 4.05 8.29 8.29 0 0 1 1.76 5.08v.04h6.95v-.04c0-1.84.64-3.62 1.77-5.08a6.59 6.59 0 0 0 1.38-4.05" fill="#ffbd2a" fill-rule="nonzero"/><path d="M59.35 36.55c-.2.33-.35.7-.46 1.07a2.9 2.9 0 0 0-.07 1.7c.1.29.29.44.56.46.28.02.46-.1.56-.36.22-.61-.05-1.86-.59-2.87m.93 8.37-.06-.01a.17.17 0 0 1-.1-.22c0-.02.79-2.27 1.36-4.56 1-4.06.48-4.72.22-4.82-.8-.28-1.43.14-1.82.53a3.3 3.3 0 0 0-.32.4c.16.29.32.61.45.95.35.94.44 1.82.25 2.34a.83.83 0 0 1-.9.59c-.4-.03-.7-.27-.86-.68a3.19 3.19 0 0 1 .06-1.91c.14-.47.35-.92.6-1.3-.24-.38-.5-.7-.8-.9-.44-.33-.84-.34-1.22-.05-.76.6-.8 2.4-.08 5.21.55 2.17 1.35 4.17 1.36 4.2.03.08 0 .18-.1.22a.17.17 0 0 1-.21-.1c-.01-.02-.82-2.04-1.38-4.23-.76-3-.69-4.87.2-5.57.5-.38 1.07-.37 1.63.04.28.2.55.5.8.88l.28-.32c.65-.66 1.42-.88 2.17-.62.46.17.66.8.58 1.92-.05.83-.25 1.94-.59 3.3a59.45 59.45 0 0 1-1.36 4.6.17.17 0 0 1-.16.1" fill="#fff" fill-rule="nonzero"/><path d="M62.17 47.38h-5.78c-.7 0-1.25-.56-1.25-1.25v-.05c0-.69.56-1.25 1.25-1.25h5.78c.69 0 1.24.56 1.24 1.25v.05c0 .7-.55 1.25-1.24 1.25" fill="#8fa8de" fill-rule="nonzero"/><path d="M70.53 36.77h-2.17a.56.56 0 0 1 0-1.12h2.17a.56.56 0 0 1 0 1.12M50.2 36.77h-2.17a.56.56 0 0 1 0-1.12h2.16a.56.56 0 0 1 0 1.12M51.57 32.19l-1.72-1.31a.56.56 0 1 1 .67-.9l1.73 1.32a.56.56 0 0 1-.68.89M66.88 32.19l1.72-1.31a.56.56 0 1 0-.68-.9L66.2 31.3a.56.56 0 1 0 .68.89M51.57 40.93l-1.72 1.3a.56.56 0 1 0 .67.9l1.73-1.32a.56.56 0 0 0-.68-.88M66.88 40.93l1.72 1.3a.56.56 0 1 1-.68.9L66.2 41.8a.56.56 0 1 1 .68-.88" fill="#ffbd2a" fill-rule="nonzero"/><path d="M60.48 22.63H38.26c-.56 0-1.02-.46-1.02-1.02V6.82c0-.56.46-1.01 1.02-1.01h22.22c.56 0 1.02.45 1.02 1.01v14.79c0 .56-.46 1.02-1.02 1.02" fill="#bbeeca" fill-rule="nonzero"/><path d="M56.8 11.49H39.66c-.6 0-1.09-.49-1.09-1.1v-.35c0-.6.5-1.09 1.1-1.09H56.8c.6 0 1.1.49 1.1 1.1v.35c0 .6-.5 1.09-1.1 1.09M49.8 14.82H39a.42.42 0 0 1-.43-.42v-.42c0-.23.2-.42.43-.42h10.8c.24 0 .43.19.43.42v.42c0 .23-.19.42-.42.42M46.53 19.94h-7.6a.36.36 0 0 1-.36-.36v-.55c0-.2.16-.36.36-.36h7.6c.2 0 .36.16.36.35v.56c0 .2-.16.36-.36.36M52.22 17.22H39.04a.47.47 0 0 1-.47-.47v-.33c0-.26.21-.47.47-.47h13.18c.26 0 .46.2.46.47v.33c0 .26-.2.47-.46.47" fill="#fff" fill-rule="nonzero"/><path d="m59.07 23.32.58 2.03c-.15.01-.3.02-.46.01-5.48.15-7.4-7.46-4.72-7.37.56.06.97.56.9 1.12a3.83 3.83 0 0 0 3.7 4.2" fill="#e51a4a" fill-rule="nonzero"/><path d="M65.02 20.1c-.03.35-.1.7-.2 1.04l-2.06-.37c.7-2.06-.27-4.68-3.19-5.08a3.8 3.8 0 0 0-2.18.43c-1.2.6-2.13-1.14-.95-1.8 3.97-2.24 9.17 1.24 8.58 5.78" fill="#ffa4b9" fill-rule="nonzero"/><path d="M64.82 21.14a5.96 5.96 0 0 1-5.17 4.21l-.58-2.03a3.66 3.66 0 0 0 3.7-2.55l2.05.37Z" fill="#ff2053" fill-rule="nonzero"/><path d="M61.03 19.5a1.85 1.85 0 1 1-3.7 0 1.85 1.85 0 0 1 3.7 0" fill="#e51a4a" fill-rule="nonzero"/><path fill="none" d="M0 0h160v140H0z"/></svg>