<svg viewBox="0 0 800 600" xmlns="http://www.w3.org/2000/svg" xml:space="preserve" fill-rule="evenodd" clip-rule="evenodd" stroke-linejoin="round" stroke-miterlimit="2"><path d="M800 0H0v600h800V0Z" fill="url(#a)" /><path d="M591 430s48 34 21 66c-33 40-138 38-165 104h253V428l-109 2Z" fill="url(#b)" /><path d="M296 0c-12 48-23 168 96 281 120 114 257 160 263 230 2 15-6 34-29 60-9 10-15 20-20 29h194V0H296Z" fill="url(#c)" /><defs><linearGradient id="a" x1="0" y1="0" x2="0" y2="600" gradientUnits="userSpaceOnUse"><stop offset="0" stop-color="#f5f6ff" /><stop offset="1" stop-color="#ecf1ff" /></linearGradient><linearGradient id="b" x1="0" y1="0" x2="1" y2="0" gradientUnits="userSpaceOnUse" gradientTransform="rotate(-90 579 21) scale(169.089)"><stop offset="0" stop-color="#00a844" /><stop offset="1" stop-color="#00c354" /></linearGradient><linearGradient id="c" x1="0" y1="0" x2="0" y2="600" gradientUnits="userSpaceOnUse"><stop offset="0" stop-color="#003fff" /><stop offset="1" stop-color="#000091" /></linearGradient></defs></svg>